<svg version="1.1" viewBox="0 0 48 48" xmlns="http://www.w3.org/2000/svg"><path d="m24 0a24 24 0 0 0-24 24 24 24 0 0 0 24 24 24 24 0 0 0 7.702-1.269c-1.77-1.472-3.93-4.156-6.004-6.758-0.3475 1.166-0.9286 2.343-1.582 3.345-1.216 1.864-4.476 3.228-4.612 3.046-0.1603-0.2147 2.45-0.9749 4.316-4.004 0.7779-1.263 1.448-3.268 1.418-5.116a18.08 18.08 0 0 1-3.505 0.5405c0.1409 0.6948 0.1933 1.435 0.085 1.895-0.2002 0.8502-1.253 0.6764-0.9699-0.4682 0.092-0.3729 0.1594-0.8763 0.173-1.402a18.08 18.08 0 0 1-0.2636 2e-3 18.08 18.08 0 0 1-18.08-18.08 18.08 18.08 0 0 1 0.2659-3.09c2.357 0.2457 3.95 1.92 5.039 1.94 1.083 0.0194 3.986-3.704 5.722-3.742-0.4522-0.6013-2.073-1.588-4.577-1.649-0.8348-0.0201-1.768 0.0628-2.788 0.2973-1.261 0.2897-2.192 0.6491-2.896 1.036a18.08 18.08 0 0 1 3.801-6.806c0.7397 0.3855 1.473 0.9252 2.054 1.94 0.7933 1.385 2.233 4.035 3.901 3.98 2.13-0.0697 2.372-1.405 2.369-2.124-0.01-1.227-0.3021-2.283-3.225-3.856-1.194-0.6428-2.475-0.8041-3.526-0.7504-0.331 0.0169-0.6391 0.0552-0.9142 0.1065a18.08 18.08 0 0 1 12.85-5.365 18.08 18.08 0 0 1 11.7 4.3c0.2923-0.0204 0.6047-0.042 0.9215-0.0656-0.011-0.7986-0.024-1.412-0.04-1.744-0.02-0.408-0.1396-0.5368-0.7321-0.8999-0.2251-0.138-0.1477-0.2746 0.1513-0.2785 0.1-1e-3 0.2239 0.0122 0.3698 0.0453 0.5086 0.1153 1.481 0.5314 1.734 1.021 0.2196 0.4257-0.1516 0.4371-0.2298 0.6622-0.042 0.1213 0.011 0.6775-0.073 1.094 0.8244-0.0811 1.535-0.1839 1.816-0.3236 0.6097-0.3031 1.4-0.5035 2.072-0.6218a24 24 0 0 0-14.45-4.838zm8.461 5.948c-0.6456 0.045-1.193 0.0838-1.474 0.1245-0.7091 0.103-0.953 7e-3 -1.36-0.0175-0.5921-0.0358-2.034-0.5196-1.197 0.1847 0.2856 0.2402 1.06 0.5533 1.572 0.7624 0.4265 0.1742 0.5911 0.1053 0.949-0.05 0.3864-0.1677 1.399-0.281 2.196-0.3911a18.08 18.08 0 0 0-0.6856-0.613zm0.6856 0.613a18.08 18.08 0 0 1 0.246 0.2358c-8e-4 -0.0917 0-0.182 0-0.2706-0.078 0.0116-0.1596 0.0232-0.2434 0.0347zm0.246 0.2358c0 0.4396 0.01 0.9138 0.01 1.412-2.101 0.2255-4.251 0.5867-5.105 0.3857-0.05-0.0118-0.095-0.0199-0.1349-0.0245-0.2415-0.1466-0.5357-0.162-0.8256-0.191-0.4823-0.0483-0.1984 0.3044-0.069 0.41 0.1295 0.1058 0.43 0.3954 0.5669 0.6892 0.1456 0.3126 0.3323 1.285 0.4608 1.999 0.1001 0.5562 0.2517 1.898 0.2963 2.539 0.023 0.3255 0.075 0.6622 0.4282 0.9949 0.2229 0.2102 0.2734 0.3498 0.7143-0.1722 0.067-0.0796 0.093-0.1771 0.091-0.2899 0.5833-0.0574 1.465-0.2178 2.451-0.3561-0.884 1.794-3.998 4.148-5.88 5.569-0.2783-0.2262-0.6277-0.4074-0.8692-0.5191-0.2223-0.1029-0.415-0.144-0.5536-0.1374-0.3047 0.0143-0.3473 0.259 0.1347 0.5834 0.3242 0.2182 0.085 1.239-0.2429 2.303-1.594 0.1197-3.345 0.2833-5.022 0.4663-0.1761-1.109-0.1049-1.851-0.4379-2.04-1.168-0.6614-2.585-0.5127-1.243 0.2568 0.4957 0.2842 0.5459 0.6859 0.7989 1.882-0.079 9e-3 -0.1573 0.0182-0.2355 0.0273-2.308 0.2696-2.852 0.4306-3.477 0.1867-0.8623-0.3365-1.025-0.274-0.6255 0.09 0.6328 0.576 0.9932 0.6998 1.399 0.8836 0.9942-0.171 2.036-0.3373 3.094-0.486 0.015 0.0651 0.031 0.132 0.047 0.2006 0.4729 2 1.675 2.956 0.8648-0.1216-0.017-0.0661-0.034-0.1314-0.049-0.1957 1.572-0.2044 3.16-0.3629 4.658-0.4339-0.1529 0.4648-0.3022 0.9042-0.4061 1.251-0.4056 1.355-0.046 1.727 0.6757 0.0405 0.2343-0.548 0.401-0.9715 0.5493-1.322 1.268-0.0324 2.454 7e-3 3.492 0.1445 2.775 0.3688 0.7777-1.226-0.3807-1.666-0.1801 0.2033-0.3886 0.404-0.6948 0.6577-0.6176 0.0231-1.312 0.0607-2.055 0.1101 0.1886-0.3272 0.4123-0.6074 0.765-0.9382 0.407-0.3818 0.2907-0.7497 0-1.057 2.23-1.072 4.745-2.899 6.807-5.337-0.03 2.741-0.091 4.979-0.1973 5.166-0.2862 0.5047 0.049 2.506 0.6899 2.168 0.328-0.1726 0.4514-0.5275 0.4288-1.672-0.012-0.6042-0.025-3.248-0.018-6.095 1.516 1.38 3.033 3.067 4.512 4.432a18.08 18.08 0 0 0-0.1598-1.515c-1.445-1.002-2.802-2.131-3.907-3.132 1.092-0.0911 2.198-0.201 3.049-0.2971a18.08 18.08 0 0 0-0.2668-0.7008c-0.082 4e-3 -0.1551 0.0131-0.2173 0.0268-0.4671 0.1027-0.5917 0.1102-1.425 0.1736-0.281 0.0214-0.8887 0.0897-1.583 0.1731 0-0.6842 0.01-1.37 0.012-2.032 0.3898-0.0448 0.7702-0.0839 1.121-0.1118 0.3743-0.0298 0.7836-0.0687 1.201-0.1122a18.08 18.08 0 0 0-0.4052-0.7041c-0.3875 0.0825-0.9468 0.1568-1.91 0.279 0.01-0.6498 0.015-1.267 0.026-1.826 0.2626-0.0349 0.515-0.0686 0.757-0.101a18.08 18.08 0 0 0-0.4999-0.6216c-0.08 8e-3 -0.1611 0.0158-0.2422 0.0238 0-0.1019 0-0.201 0.01-0.297a18.08 18.08 0 0 0-0.9663-1.02zm0.9663 1.02a18.08 18.08 0 0 1 0.2345 0.2733c1.957-0.193 3.687-0.3908 4.491-0.6684 0.4559-0.1575 0.5203-0.1122 0.9121 0.1588 0.3735 0.2582 1.2 0.7951 1.601 1.091-0.092 0.1057-0.3848 0.5001-0.7261 0.7097-0.3947 0.2424-0.3931 0.2727-0.5653 0.9019-0.1382 0.5049-0.837 2.807-1.138 3.496-0.1912 0.4383-0.5369 0.375-0.7903 0.2485-0.087-0.0436-0.1118-0.1861-0.087-0.4406-0.1559 0.0189-0.326 0.0388-0.5077 0.0593a18.08 18.08 0 0 1 0.8579 3.429c1.689 1.171 3.498 2.171 5.166 2.592 1.014 0.2557 2.585 0.4951 3.903 0.6225a24 24 0 0 0-7.354-13.85c-1.144-0.0443-3.156-0.13-3.546-0.0791-0.3142 0.041-1.639 3e-3 -2.388 0.0261-0.026 0.3074-0.047 0.8047-0.065 1.432zm0.7344 0.8948a18.08 18.08 0 0 1 1.128 1.648c0.4692-0.0999 0.6864-0.212 1.064-0.4361 0.5199 0.1797 1.092 0.2819 1.644 0.3916 0.1517-1.015 0.21-1.865 0.1269-1.942-0.05-0.0459-0.1902-0.0653-0.4176-0.0626-0.599 7e-3 -1.802 0.1676-3.545 0.4006zm1.533 2.352a18.08 18.08 0 0 1 0.8911 1.882c0.2479-0.0133 0.5695 0.0146 0.8679 0.072 0.058-0.2852 0.1374-0.634 0.2342-1.052 0.087-0.376 0.1651-0.7732 0.2314-1.161-0.6553 0.0822-1.454 0.178-2.225 0.2584zm2.176 7.526a18.08 18.08 0 0 1 0.036 1.139 18.08 18.08 0 0 1 0 0.2217c0.2592 0.1046 0.4254 0.2492 0.5959 0.3965 0.2737 0.2365 0.052 0.4202-0.057 0.5541-0.1048 0.1286-0.052 0.7426-0.1138 1.331 1.778-0.1304 4.295-0.2611 4.563-0.3752 0.3536-0.1503 0.5485-0.4229 0.9595-0.196 0.8595 0.4748 1.562 0.8895 1.372 1.23-0.1168 0.209-2.295-0.2005-5.628-0.1081-0.6271 0.0174-1.297 0.0563-1.968 0.11a18.08 18.08 0 0 1-0.4559 1.938c0.022-2e-3 0.043-3e-3 0.065-5e-3 1.873-0.1312 3.882-0.4446 4.257-0.4048 0.2771 0.0294 0.8899 0.7405 1.069 0.8881 0.254 0.209-0.6012 0.4286-0.7535 0.5722-0.1724 0.7179-0.2943 1.107-0.4848 1.705-0.1983 0.623-0.3505 0.834-0.7703 0.6284-0.048-0.0235-0.068-0.0963-0.067-0.2056-1.031-0.0225-1.375 0.0365-2.176 0.0772-0.3551 0.018-0.6815 0.0436-0.9944 0.0762 0.3257 0.1267 0.59 0.2945 0.7985 0.5387 0.1293 0.1514 0.048 1.428 0.081 2.365 0.039 1.117-0.1976 1.346-0.1216 1.622 0.1029 0.3733-0.2663 1.063-0.6217 1.655-0.2635 0.4392-0.4664 0.0886-0.7973-0.6689-0.1871-0.4285-2.073-1.339-1.992-1.474 0.081-0.1351 1.82 0.7783 2.221 0.5616 0.5846-0.3156 0.2968-2.011 0.5-3.412 0.063-0.4346-0.1649-0.8345-0.5432-1.132-0.3832 0.0501-0.7569 0.1108-1.151 0.1808a18.08 18.08 0 0 1-1.164 1.829c-0.01 0.0182-0.018 0.0356-0.033 0.0519a18.08 18.08 0 0 1-3.936 3.989c-0.014-0.016-0.028-0.0322-0.042-0.0486-0.7487-0.8699-0.7235-1.88-0.9779-4.17-0.534 1.719-0.1337 3.77-0.6986 4.459-0.2886 0.3521-2.095 0.4461-3.521 0.3204 0.01-0.0626 0.015-0.1114 0.025-0.1446 0.2102-0.7453 0.8313-0.6689 0.095-1.137-0.4369-0.278-1.179-0.5972-1.478-0.6082-0.205-8e-3 -0.2029 0.1292 0.2456 0.5222 0.127 0.1113 0.1392 0.5788 0.1252 1.229-0.4043-0.086-0.6934-0.2-0.7749-0.3402-0.3285-0.565-0.1781-2.41-0.1097-4.563 1.47-0.5496 3.997-1.529 4.658-2.126 0.1731-0.1565 0.2261 0.1283 0.5064-0.3153 0.3116-0.4931-0.2697-0.9001-0.7548-1.156-1.497-0.7903-1.224-0.3265-1.089-0.2102 0.3325 0.2875 0.235 0.2376 0.2198 0.7549-0.013 0.4299-2.188 1.745-3.525 2.512 0.012-0.5223 0.017-1.058 0.01-1.593 0.2577-0.4079 0.466-0.5033 0.7948-0.8903-0.2565-0.3853-0.7865-0.9956-1.414-1.07-0.4214-0.0501-0.6899-0.0646-0.8495-0.0535-0.4787 0.0333 0.022 0.2971 0.3118 0.5215 0.3484 0.2701 0.2369 3.676 0.1856 5.625-0.046 1.757-0.095 2.479 0.305 2.929 0.3465 0.3899 0.8729 0.635 1.507 0.7848-0.014 0.5064-0.025 1.064-0.01 1.623v0.1198a18.08 18.08 0 0 0 0.9043-0.2573c0.028-0.4855 0.045-0.9475 0.06-1.331 0.9493 0.0939 2.026 0.0627 3.065 0.0205a18.08 18.08 0 0 1-3.126 1.311c-0.039 0.682-0.1014 1.41-0.2142 2.034-0.025 0.1404-0.055 0.2818-0.088 0.4237 1.558 1.685 2.766 3.176 4.674 4.138 1.61 0.8107 3.635 1.196 5.124 1.409a24 24 0 0 0 10.26-11.16c-0.3169 0.1142-0.6693 0.2059-1.165 0.21-0.8322-1.183-2.017-3.111-3.041-4.14-0.3993-0.4009-0.6707-0.6243-0.5783-0.6291 0.077-4e-3 0.4028 0.1422 1.113 0.462 1.741 0.784 3.057 1.194 4.207 2.805a24 24 0 0 0 1.572-8.538 24 24 0 0 0-0.1904-3.017c-1.829 0.0729-3.745 0.0502-5.312 0.0128-1.188-0.302-2.428-1.235-3.696-2.405zm-3.376 11.69a18.08 18.08 0 0 0 0.033-0.0519c0.094-0.2538-0.6195-0.6696-1.213-0.6833-0.098-2e-3 -0.192 6e-3 -0.279 0.0283-0.1638 0.0414 0.2974 0.2293 0.3919 0.4662 0.051 0.1276-1.162 1.782-1.912 2.473-1.357 1.25 0.2066 0.536 1.514-0.8514 0.8783-0.9324 1.034-1.136 1.399-1.331 0.028-0.0152 0.051-0.0319 0.067-0.0499zm1.198-1.881a18.08 18.08 0 0 0 0.2997-0.5726c-0.4524 0.0615-0.78 0.1122-1.16 0.1773-0.096-0.6834-0.2993-1.665-0.4778-2.214 0.8886-0.1694 1.783-0.319 2.655-0.4341a18.08 18.08 0 0 0 0.163-0.5249c-1.621 0.1197-2.502 0.4139-3.558 0.2618-0.5066-0.1917-1.056-0.1993-0.783 0.0607 0.1575 0.1504 0.6262 0.299 0.7238 0.5996 0.2015 0.6205 0.3787 1.543 0.3873 1.968 0.019 0.9379 0.6478 1.653 0.929 1.018 0.014-0.0312 0.019-0.0975 0.016-0.1908 0.283-0.0532 0.5488-0.1028 0.8057-0.1485zm1.317-3.044a18.08 18.08 0 0 1-1.017 2.471c0.3373-0.0458 0.744-0.0976 1.293-0.1659 1.513-0.188 2.313-0.2181 3.274-0.1719 0.1233-0.6128 0.3645-1.477 0.3743-2.06-0.037-0.1668-0.1341-0.2308-0.242-0.3086-1.114-0.0326-2.373 0.0626-3.683 0.2354zm0.6189-2.463a18.08 18.08 0 0 0 0.2776-2.942c-0.2302-0.0928-0.5336-0.1541-0.9784-0.1575-0.3952-3e-3 -0.5396 0.0444-0.3634 0.2038 0.1674 0.1513 0.7199 0.1477 0.7703 0.3204 0.097 0.3314 0.086 1.347 0.089 1.989-0.062 6e-3 -0.1219 0.0116-0.1786 0.0174-1.544 0.1574-4.981 0.5919-5.512 0.4496-0.5737-0.1539-1.611-0.8739-1.13-0.2044 0.7309 1.018 1.35 1.216 1.963 1.045 0.8823-0.2461 2.98-0.5545 5.062-0.7211zm-17.54 14.91a18.08 18.08 0 0 0 0.712-0.025c-0.1859-0.9169-0.5258-1.756-0.8535-1.772-0.028-1e-3 -0.057 3e-3 -0.085 0.0147 0.1828 0.5038 0.2422 1.158 0.2261 1.782zm2.028-29.25c-0.9134-0.0353-2.666-0.0725-3.969 0.4736-1.592 0.6672-3.123 1.62-2.905 3.612 0.1403 1.283 1.368 2.018 2.572 1.717 0.867-0.2165 1.332-0.3469 2.181-2.308 0.7868-1.819 0.9873-2.645 2.122-3.494zm10.36 0.3788v1.818c-1.691 0.2074-3.196 0.3602-4.19 0.4331-0.086-0.7102-0.3039-1.329-0.5092-1.798 0.8225-0.0572 2.662-0.1998 4.698-0.4539zm6e-4 2.464c0 0.6797 0 1.363-0.01 2.031-0.9336 0.1166-1.845 0.2362-2.219 0.2908-0.4484 0.0653-1.084 0.0612-1.53 0.1037-0.062-0.1937-0.1258-0.4035-0.1645-0.625-0.1029-0.5881-0.1816-1.139-0.2282-1.622 0.27 0.1098 0.6296 0.1948 1.249 0.1767 0.437-0.0128 1.636-0.1925 2.903-0.3555zm-18.3 2.29a0.4865 0.4865 0 0 0-0.4865 0.4865 0.4865 0.4865 0 0 0 0.4865 0.4865 0.4865 0.4865 0 0 0 0.4865-0.4865 0.4865 0.4865 0 0 0-0.4865-0.4865zm5.269 1.013c-1.159-0.04-2.279 0.1518-3.166 0.7382-1.898 1.254-1.088 3.008-0.035 3.587 1.639 0.9015 3.798 0.8557 5.392-0.5811 1.555-1.402 1.893-1.944 3.027-2.365-1.248-0.6015-3.287-1.312-5.218-1.379zm-4.363 0.0682a0.4865 0.4865 0 0 0-0.4865 0.4865 0.4865 0.4865 0 0 0 0.4865 0.4865 0.4865 0.4865 0 0 0 0.4865-0.4865 0.4865 0.4865 0 0 0-0.4865-0.4865zm-1.257 0.4324a0.4324 0.4324 0 0 0-0.4325 0.4324 0.4324 0.4324 0 0 0 0.4325 0.4324 0.4324 0.4324 0 0 0 0.4324-0.4324 0.4324 0.4324 0 0 0-0.4324-0.4324zm-1.251 1.031c-0.083-3e-3 -0.1695-3e-3 -0.258 1e-3 -0.5714 0.0275-2.753 0.2032-4.033 3.402-0.9732 2.431-0.6742 3.969-0.5285 4.915 1.072-1.266 2.648-2.029 4.604-3.124 2.114-1.183 2.155-2.28 2.158-3.236 0-1.014-0.6901-1.907-1.943-1.959zm5.064 9.246c-0.2072 4e-3 -0.088 0.2596 0.2806 0.6013 0.93 0.8628-4.758 6.657-4.371 6.522 0.9648-0.3356 2.56-2.24 3.391-2.946 0.1074 1.37-0.048 4.033-0.1942 4.572-0.1757 0.6486-0.2582 1.177 0.4459 1.824 0.5 0.4595 0.5397-0.9588 0.5135-2.554-0.02-1.215 0.048-3.326 0.086-4.352 0.6623-0.5159 1.653-1.68 1.883-2.14-0.3252-0.482-0.8855-1.015-1.429-1.304-0.2989-0.1593-0.497-0.2261-0.6055-0.2239zm12.38 10.13c0.2745 0.1236 0.5083 0.327 0.7661 0.6087 0.7443 0.8017 0.1416 0.867-0.3774 0.8982-0.7331 0.3401-3.726 1.592-3.989 1.486-0.2152-0.0866 2.877-1.922 3.249-2.398 0.1159-0.1488-0.088-0.3796-0.3701-0.5694 0.1511-6e-3 0.3001-0.0109 0.4465-0.0151 0.097-3e-3 0.189-6e-3 0.2755-0.01z"/></svg>