<svg version="1.1" viewBox="0 0 48 48" xmlns="http://www.w3.org/2000/svg"><path d="m23.89 48c-6.707 5e-3 -13.33-2.966-17.78-7.981-3.542-3.952-5.8-9.119-6.041-14.44 0-2.248-0.1059-4.521 0.4616-6.72 1.612-7.666 7.262-14.31 14.56-17.16 6.642-2.694 14.48-2.16 20.69 1.406 0.8589 0.519 1.83 1.049 2.528 1.708-1.198 0.2248-2.371 0.9479-3.659 0.9213-0.082-0.3098-0.2054-1.043 0.1832-1.303 0.2912-0.5466-0.5297-0.9618-0.9541-1.168-0.3896-0.1735-1.188-0.5322-1.423-0.1463 0.443 0.2895 1.012 0.6469 0.8567 1.284-0.1327 0.4317 0.3825 1.393-0.1877 1.473-1.164-0.1772-0.029 0.4422-0.2391 0.668-0.8621 0.086-1.712 0.3547-2.536 0.5448-0.7454-0.2866-1.716-0.4736-2.162-1.177 0.5453-0.1082 1.134 0.2375 1.717 0.157 0.8166 0.0908 1.739-0.0427 2.501-0.1724-3.387-2.911-7.901-4.455-12.36-4.259-4.527 0.1315-8.982 2.084-12.14 5.33 2.545-0.3658 5.184 0.6331 6.904 2.532 0.7768 0.8601 1.022 2.343 0.3259 3.325-0.7751 0.9622-2.269 1.053-3.204 0.3306-1.59-1.042-2.123-3.047-3.345-4.424-0.4216-0.3676-0.9163-0.9172-1.473-0.943-1.692 1.934-2.942 4.236-3.718 6.66 0.341-0.0428 0.9679-0.4621 1.455-0.5346 2.567-0.9474 5.598-1.079 8.043 0.278 0.1738 0.1567 1.07 0.5819 0.5005 0.6681-2.124 0.619-3.309 2.715-5.218 3.689-1.178-0.0691-2.129-0.9465-3.217-1.347-0.6547-0.2548-1.338-0.5765-2.051-0.5459-1.118 6.13 1.251 12.73 6 16.77 3.315 2.886 7.681 4.46 12.08 4.403 0.095 0.7519-0.488 1.586-0.05 2.261 0.5934 0.491 0.9958-0.3769 0.9445-0.8855 0.1583-0.427-0.2903-1.175-0.01-1.418 1.11-0.0269 2.218-0.3203 3.292-0.4596 0.01 3.396-1.835 6.773-4.837 8.424-0.2856 0.1235-1.29 0.7492-0.4894 0.6047 1.978-0.757 3.875-1.997 4.832-3.952 0.419-0.7411 0.7235-1.602 1.049-2.344 1.885 2.246 3.665 4.691 5.886 6.656-2.435 0.9007-5.111 1.273-7.711 1.288zm11.63-3c-2.201-0.4448-4.549-0.8654-6.372-2.264-1.2-0.9792-2.327-2.108-3.28-3.303 0.082-0.7972 0.2663-1.63 0.2156-2.414-0.6399 0.3705-1.068 0.0595-0.8626-0.6708 0.1735-0.6871-0.082-1.027-0.7662-1.11-0.848-0.3149-1.197-1.245-1.054-2.091-0.028-2.209 0.047-4.438-0.044-6.635 0.061-0.4158-1.087-0.8173-0.3648-0.9039 0.8211 9e-3 1.827 0.4377 2.092 1.246-0.396 0.4036-0.9108 0.7998-0.73 1.439-0.087 0.6584-0.031 1.27 0.6485 0.5997 0.9602-0.6686 2.114-1.16 2.864-2.07 0.2634-0.4151-0.1572-0.7581-0.272-1.047 0.7033 0.1422 1.704 0.4768 1.978 1.23 0.098 0.6653-0.7485 0.6432-1.122 0.9871-1.341 0.7253-2.773 1.254-4.191 1.805 0.033 1.4-0.085 2.816 0.041 4.207 0.032 0.3898 0.7617 0.822 0.9486 0.5304 0.034-0.5072 0.062-1.176-0.4889-1.399 0.1393-0.4137 0.8363 0.0706 1.149 0.1606 0.3835 0.1527 1.096 0.5508 0.5601 0.9816-0.6748 0.7454 0.454 0.5658 0.9294 0.588 0.8336-0.0974 1.967 0.2153 2.515-0.5885 0.3465-1.12 0.072-2.373 0.4051-3.521 0.075-0.8685 0.2091-0.5734 0.2086 0.1285 0.1436 1.149 0.1482 2.47 0.938 3.386 1.505-1.066 2.885-2.443 3.92-3.972-1.139 0.814-1.927 2.094-3.2 2.761-0.699 0.2747 0.7131-0.9974 0.4865-0.7712 0.6368-0.6836 1.369-1.407 1.659-2.304-0.8403-0.5196 0.2104-0.5352 0.6268-0.2621 0.4104 0.0405 0.4349 0.85 0.6883 0.2621 0.3345-0.4944 0.6589-0.9967 0.9331-1.528-0.445-0.0605-0.7974 0.1224-0.9877 0.5135-0.8031-0.1485-0.6677-1.227-0.8024-1.852-0.1458-0.7498-0.1889-1.658-1.019-1.973-0.1-0.4477 0.9035 0.0605 1.241 0.0212 1.019-0.0871 2.031-0.264 3.051-0.3324-0.3636 0.6624 0.297 0.4696 0.7313 0.4078 0.9428-0.1242 1.892-0.1323 2.841-0.1239 0.4372 0.5161-0.029 1.264-0.063 1.865 0.049 0.7786-0.8714 0.3781-1.353 0.4915-1.081 0.0212-2.189 0.2185-3.237 0.3172 0.2527-0.7702 0.7677-1.62 0.9176-2.432-0.8622 0.0803-1.813 0.2152-2.625 0.4205 0.2248 0.7195 0.3041 1.582 0.4902 2.243 0.3197 3e-3 1.427-0.4477 0.9244 0.2194-0.1495 0.4618 0.8721-0.1605 1.13 0.0699 0.8391 0.6795 0.2834 1.866 0.3252 2.779-0.1025 0.5279 0.1603 1.443-0.452 1.662-0.7424 0.0515-1.419-0.5791-2.117-0.5381 0.7197 0.7156 2.042 0.9759 2.279 2.14 0.5065 0.4916 0.7732-0.4517 0.975-0.7959 0.2669-0.6893 0.2258-1.449 0.2737-2.179-0.065-0.8956 0.1587-1.859-0.096-2.71-0.5692-0.3908-0.5819-0.6031 0.1638-0.5542 0.7159-9e-3 1.505-0.1781 2.178-0.0306 0.3697 0.5376 0.8381-0.0107 0.879-0.4543 0.2514-0.5756 0.3274-1.233 0.5923-1.788 0.6488-0.1712 0.9495-0.5769 0.2431-0.9736-0.6614-0.8778-1.802-0.2718-2.703-0.302-0.7166 0.038-1.44 0.193-2.15 0.1852-0.075-0.5727 0.3647-1.284 0.293-1.858-1.837 0.1386-3.692 0.36-5.492 0.7838-0.6799-0.1652-1.348-0.7105-1.573-1.361 0.5816 0.1089 1.153 0.6292 1.825 0.4807 1.697-0.0215 3.402-0.3246 5.076-0.5023 0.017-0.651 0.044-1.37-0.091-2.023-0.365-0.1333-1.291-0.4954-0.363-0.4642 0.4979-0.0284 1.194 0.042 0.9199 0.7168-0.01 0.7799-0.1769 1.594-0.2329 2.34 1.875-0.1119 3.766-0.1185 5.64-8e-3 0.6437 0.01 1.358 0.2319 1.96 0.0279-0.076-0.7046-0.961-0.9714-1.519-1.254-0.5643-0.2304-1.022 0.5011-1.631 0.3244-1.209 0.0719-2.415 0.1731-3.623 0.2602-0.1934-0.3833-0.1469-1.05 0.09-1.446 0.3518-0.6309-0.9479-0.6002-0.6748-1.245-0.1194-0.6553 0.05-1.135 0.5601-0.4216 0.89 0.8557 1.999 1.608 3.202 1.879 1.727 0.0372 3.457 0.0915 5.184 8e-3 0.471 3.855 0.063 7.839-1.352 11.47-0.6698-0.8173-1.521-1.595-2.555-1.986-0.9294-0.3908-1.825-0.9532-2.791-1.204 0.4163 0.5908 1.135 1.046 1.497 1.733 0.7883 0.9296 1.424 1.985 2.106 2.996 0.2594 0.3099 1.16-0.3342 1.06 0.0881-2.097 4.592-5.738 8.477-10.16 10.92zm-8.041-6.358c1.524-0.4759 2.958-1.257 4.501-1.645 0.2402-0.4977-0.4501-0.9332-0.7697-1.242-0.3167-0.2394-1.383-0.2568-0.6794 0.2446 0.045 0.5297-0.7414 0.7156-1.08 1.038-0.6889 0.5308-1.532 0.9192-2.13 1.53 0.048 0.0375 0.068 0.1495 0.1588 0.0743zm-1.301-1.668c1.03-0.3122 2.079-0.7184 2.992-1.271-1.001-6e-3 -2.041 0.0148-3.018-0.0227 0.041 0.398-0.1115 0.968 0.026 1.293zm-4.906 0.8381c-0.6006 0.0236-0.1338-0.9556-0.383-1.35-0.2678-0.8351 0.4702-0.1269 0.5193 0.2964 0.066 0.3626 0.6981 1.265-0.1363 1.054zm-3.055-1.732c-0.715-0.2456-0.8152-1.238-0.5715-1.878 0.2519-1.51 0.1723-3.057 0.2763-4.583-1.094 0.9411-2.054 2.209-3.345 2.92-0.1372-0.3253 0.5651-0.7212 0.7628-1.058 1.286-1.502 2.634-3.002 3.547-4.769 0.2484-0.5021-0.2494-0.8419-0.4261-1.203 0.8621 0.0777 1.58 0.811 2.082 1.458-0.3603 0.942-1.357 1.506-1.86 2.307-0.051 2.15 0.01 4.312-0.1447 6.453-0.082 0.128-0.131 0.3634-0.3212 0.3516zm1.833-10.84c-0.6828-0.3631-0.734-1.325-0.948-2.007-1.056 0.102-2.11 0.2436-3.142 0.4966-0.567-0.2796-1.2-0.6421-1.549-1.164 0.5126-3e-3 1.128 0.4223 1.722 0.3217 0.9287-0.0982 1.886-0.1966 2.794-0.3487-0.086-0.8014-0.2326-1.757-1.084-2.094-0.6457-0.4747 0.4928-0.4738 0.8186-0.3199 0.5235 0.1101 1.108 0.3786 0.9576 1.018 0.079 0.4048 0.019 1.127 0.3697 1.312 1.617-0.1546 3.268-0.2866 4.856-0.5232 0.085-0.7787 0.824-1.745 0.091-2.402-0.6106-0.6371 0.7039-0.414 0.9521-0.0663 0.3735 0.5191 0.7553 0.0882 1.118-0.2052 1.923-1.485 4.031-2.951 5.269-5.075-0.8085 0.1158-1.636 0.2057-2.429 0.379-0.1631 0.6732-0.8669 0.7356-1.118 0.0836-0.3104-1.186-0.2463-2.474-0.5308-3.685-0.1559-0.8652-0.3145-1.773-1.054-2.325-0.26-0.5632 1.651 0.0988 1.184-0.0439 1.565 0.1308 3.152-0.1939 4.718-0.3314 0.7514 0.0657-0.01-1.097 0.5295-1.254 0.3198 0.252 0.9218 1.228 0.7939 0.241-0.1645-0.772 0.2095-0.9945 0.9434-0.8498 1.657-0.0403 3.314-0.021 4.971 0.0199 3.901 3.589 6.538 8.506 7.378 13.74-0.3542 0.2601-0.9844-0.1133-1.449-0.0881-2.762-0.1371-5.276-1.438-7.531-2.946-0.1348 0.2947 0.3118 1.31-0.056 1.24-1.462-1.344-2.873-2.844-4.32-4.141-0.095 2.309 0.041 4.702-0.069 7.031 0 0.5632-0.7772 1.008-0.9131 0.2567-0.3764-0.6978-0.2967-1.475-0.078-2.197 0.082-1.535 0.032-3.078 0.064-4.617-0.968 0.9183-1.901 1.996-2.998 2.823-1.146 0.9562-2.478 1.707-3.741 2.433 0.4484 0.3078 0.3235 0.8799-0.1196 1.126-0.4759 0.3443-1.005 1.127-0.022 0.8399 0.687-0.0956 1.535 0.0852 1.958-0.6123 0.4578-0.3147 1.005 0.3594 1.399 0.6088 0.4782 0.1596 0.7217 0.9906 0.043 0.9821-1.443-0.1826-2.911-0.2532-4.358-0.1667-0.387 0.7826-0.7084 1.654-1.214 2.344-0.5372-0.1511-0.01-0.9672 0.035-1.378-0.016-0.3448 0.6256-1.213-0.073-1.03-1.42 0.1564-2.876 0.2504-4.268 0.5055 0.052 0.6692 0.5012 1.361 0.2657 2.013-0.055 0.0195-0.1006 0.0804-0.1672 0.0557zm18.56-8.184c-0.073-1.144-0.4961-2.324-0.7838-3.414 0.4317-0.1079 0.5061 0.719 1.018 0.4815 0.6596-0.567 0.6145-1.57 0.9795-2.322 0.3256-0.718 0.3647-1.582 0.784-2.235 0.2539-0.2889 1.328-0.7321 0.7123-1.112-0.6501-0.357-1.202-1.012-1.942-1.143-1.534 0.5186-3.229 0.5138-4.772 0.7881 0.441 0.4095 0.584 0.7377-0.1487 0.7094-0.3173 0.3674-0.043 1.196-0.1352 1.739 0.3862 0.179 1.096-0.0598 1.601-0.1386 0.3579-0.2714 0.9889 0.8273 0.3666 0.6777-0.6489 0.0973-1.42 0.0627-1.996 0.2402-0.028 0.6644 0.01 1.336 0 2.003 1.07-0.1335 2.164-0.1857 3.222-0.365 0.4404 0.5882 0.1482 0.8251-0.4982 0.7535-0.7688 0.0858-1.603 0.0844-2.332 0.2155 1.247 1.1 2.542 2.265 3.924 3.121zm-0.367-4.09c-0.5744 0.061-0.9456-0.2099-1.055-0.8072-0.1216-0.3776-0.4404-0.7503-0.5052-1.105 0.696-0.0366 1.395-0.1895 2.085-0.1907-0.025 0.6973-0.2585 1.405-0.384 2.103h-0.1016zm-1.958-2.65c-0.3868-0.3132-0.6112-0.9649-0.9978-1.361-0.3522-0.4911 0.8027-0.2597 1.11-0.4064 0.8647-0.0459 1.767-0.3392 2.616-0.1781 0.1351 0.5834-0.079 1.259-0.1102 1.868-0.6979 0.0677-1.498-0.586-2.16-0.0722-0.1528 0.0426-0.296 0.1518-0.4568 0.1491zm-6.199 3.48c1.107-0.0318 2.207-0.1998 3.304-0.3477-0.019-0.6847 0.036-1.4-0.026-2.067-1.364 0.1246-2.77 0.5044-4.124 0.1926 0.014 0.7572 0.1784 1.504 0.3683 2.235 0.1594-4e-3 0.3188-8e-3 0.4782-0.0124zm-0.6475-2.627c1.319-0.0753 2.632-0.2313 3.938-0.4331-0.038-0.5768 0.075-1.334-0.055-1.802-1.53 0.1894-3.104 0.275-4.611 0.4824 0.2143 0.5732 0.2779 1.195 0.4679 1.771 0.087-6e-3 0.1737-0.0117 0.2605-0.0176zm5.001-3.061c0.357-0.0711-0.3608-0.5378-0.1149-9.8e-4l0.016 0.0159zm-25.74 16.35c-0.4577-1.615-0.035-3.415 0.564-4.972 0.7364-1.869 2.603-3.547 4.723-3.19 1.56 0.3706 1.793 2.446 1.029 3.628-0.78 1.207-2.24 1.684-3.407 2.429-1.094 0.5412-2.083 1.211-2.909 2.105zm10.93-4.872c-1.376 0.0272-3.07-0.4128-3.512-1.891-0.3236-1.309 0.9385-2.487 2.146-2.702 2.433-0.7042 5.031 0.068 7.232 1.083-1.822 0.7299-2.776 2.815-4.731 3.362-0.3571 0.1432-0.7552 0.1438-1.136 0.148zm-4.899-3.54c-0.6863 0.01-0.4371-1.102 0.1816-0.8317 0.4233 0.2041 0.2661 0.8241-0.1816 0.8317zm1.264-0.3229c-0.6521 0.0238-0.5999-1.034 0.053-0.9472 0.5732 0.0875 0.5334 0.9333-0.053 0.9472zm-0.8824-1.091c-0.6807 0.0959-0.6347-1.083 0.059-0.9342 0.5256 0.1253 0.4851 0.8945-0.059 0.9342zm2.995-0.2446c-1.377 0.0512-2.422-1.572-1.846-2.825 0.431-1.463 1.934-2.242 3.289-2.677 1.077-0.3098 2.25-0.4196 3.351-0.2981-0.6761 0.6135-1.239 1.461-1.542 2.367-0.4568 1.082-0.8532 2.31-1.763 3.091-0.4477 0.2554-0.9834 0.3102-1.489 0.3431z"/></svg>