<svg id="hero" version="1.1" viewBox="0 0 200 500" xmlns="http://www.w3.org/2000/svg"><path d="m100 140a60 60 0 0 0-60 60 60 60 0 0 0 60 60 60 60 0 0 0 19.26-3.174c-4.425-3.679-9.825-10.39-15.01-16.9-0.8688 2.916-2.321 5.857-3.956 8.363-3.041 4.66-11.19 8.071-11.53 7.615-0.4007-0.5368 6.125-2.437 10.79-10.01 1.945-3.158 3.621-8.169 3.546-12.79a45.2 45.2 0 0 1-8.762 1.351c0.3521 1.737 0.4832 3.586 0.2122 4.737-0.5005 2.126-3.132 1.691-2.425-1.171 0.2303-0.9322 0.3983-2.191 0.4323-3.504a45.2 45.2 0 0 1-0.659 5e-3 45.2 45.2 0 0 1-45.2-45.2 45.2 45.2 0 0 1 0.6648-7.724c5.892 0.6142 9.875 4.801 12.6 4.849 2.708 0.0485 9.964-9.26 14.31-9.355-1.13-1.503-5.182-3.971-11.44-4.122-2.087-0.0502-4.419 0.157-6.97 0.7432-3.152 0.7242-5.481 1.623-7.241 2.591a45.2 45.2 0 0 1 9.503-17.01c1.849 0.9638 3.682 2.313 5.136 4.851 1.983 3.462 5.582 10.09 9.754 9.95 5.326-0.1743 5.931-3.514 5.922-5.311-0.015-3.068-0.7552-5.707-8.063-9.64-2.986-1.607-6.189-2.01-8.814-1.876-0.8276 0.0423-1.598 0.138-2.286 0.2663a45.2 45.2 0 0 1 32.14-13.41 45.2 45.2 0 0 1 29.26 10.75c0.7309-0.0509 1.512-0.1049 2.304-0.1639-0.027-1.996-0.061-3.53-0.1011-4.36-0.05-1.02-0.3491-1.342-1.83-2.25-0.5627-0.3449-0.3691-0.6865 0.3783-0.6961 0.2491-3e-3 0.5598 0.0305 0.9245 0.1132 1.272 0.2884 3.702 1.328 4.334 2.554 0.5489 1.064-0.3791 1.093-0.5744 1.655-0.1052 0.3032 0.028 1.694-0.1823 2.735 2.061-0.2027 3.838-0.4598 4.54-0.809 1.524-0.7578 3.5-1.259 5.179-1.554a60 60 0 0 0-36.13-12.09zm21.15 14.87c-1.614 0.1124-2.984 0.2094-3.685 0.3113-1.773 0.2575-2.382 0.0178-3.4-0.0437-1.48-0.0894-5.085-1.299-2.992 0.4618 0.714 0.6005 2.649 1.383 3.929 1.906 1.066 0.4354 1.478 0.2632 2.372-0.1251 0.9659-0.4192 3.497-0.7024 5.49-0.9778a45.2 45.2 0 0 0-1.714-1.532zm1.714 1.532a45.2 45.2 0 0 1 0.615 0.5896c0-0.2294 0-0.4549-0.01-0.6765-0.1953 0.029-0.3989 0.0579-0.6085 0.0868zm0.615 0.5896c0.01 1.099 0.018 2.285 0.024 3.53-5.252 0.5637-10.63 1.467-12.76 0.9642-0.1254-0.0295-0.2375-0.0496-0.3373-0.0614-0.6037-0.3665-1.339-0.4049-2.064-0.4776-1.206-0.1209-0.4961 0.761-0.1729 1.025 0.3237 0.2645 1.075 0.9886 1.417 1.723 0.3642 0.7816 0.8309 3.213 1.152 4.997 0.2504 1.39 0.6292 4.744 0.7409 6.349 0.057 0.8137 0.1887 1.655 1.07 2.487 0.5571 0.5256 0.6834 0.8744 1.786-0.4305 0.1682-0.199 0.232-0.4428 0.2284-0.7246 1.458-0.1435 3.664-0.5445 6.128-0.8903-2.21 4.485-9.994 10.37-14.7 13.92-0.6959-0.5656-1.569-1.018-2.173-1.298-0.5558-0.2572-1.038-0.3599-1.384-0.3436-0.762 0.0357-0.8682 0.6475 0.3367 1.459 0.8103 0.5455 0.2123 3.098-0.6072 5.757-3.984 0.2993-8.364 0.7083-12.55 1.166-0.4401-2.772-0.2622-4.628-1.095-5.099-2.921-1.653-6.463-1.282-3.108 0.6419 1.239 0.7106 1.365 1.715 1.997 4.704-0.1969 0.0227-0.3932 0.0454-0.5887 0.0682-5.77 0.6741-7.13 1.076-8.692 0.4668-2.156-0.8413-2.563-0.6851-1.564 0.2249 1.582 1.44 2.483 1.749 3.496 2.209 2.485-0.4275 5.09-0.8432 7.734-1.215 0.037 0.1628 0.076 0.3299 0.1169 0.5015 1.182 5 4.188 7.39 2.162-0.3041-0.044-0.1653-0.084-0.3284-0.1226-0.4893 3.931-0.5111 7.899-0.9072 11.64-1.085-0.3823 1.162-0.7556 2.26-1.015 3.128-1.014 3.388-0.1137 4.318 1.689 0.1014 0.5857-1.37 1.002-2.429 1.373-3.305 3.17-0.081 6.136 0.0168 8.729 0.3613 6.938 0.922 1.944-3.064-0.9518-4.164-0.4502 0.5082-0.9713 1.01-1.737 1.644-1.544 0.0578-3.279 0.1519-5.136 0.2752 0.4714-0.8179 1.031-1.519 1.912-2.346 1.018-0.9545 0.7268-1.874 0-2.641 5.575-2.681 11.86-7.248 17.02-13.34-0.074 6.852-0.2284 12.45-0.4933 12.91-0.7155 1.262 0.122 6.264 1.725 5.421 0.82-0.4315 1.129-1.319 1.072-4.18-0.03-1.511-0.063-8.12-0.044-15.24 3.791 3.451 7.583 7.667 11.28 11.08a45.2 45.2 0 0 0-0.3996-3.787c-3.613-2.506-7.005-5.328-9.768-7.83 2.731-0.2276 5.495-0.5024 7.623-0.7427a45.2 45.2 0 0 0-0.6671-1.752c-0.2038 0.0109-0.3876 0.0329-0.543 0.067-1.168 0.2566-1.479 0.2756-3.563 0.434-0.7026 0.0534-2.222 0.2243-3.957 0.4329 0.01-1.711 0.017-3.425 0.031-5.079 0.9744-0.1121 1.925-0.2098 2.801-0.2795 0.9357-0.0745 1.959-0.1718 3.003-0.2806a45.2 45.2 0 0 0-1.013-1.76c-0.9687 0.2063-2.367 0.3919-4.776 0.6974 0.017-1.624 0.038-3.168 0.064-4.566 0.6566-0.0873 1.288-0.1716 1.892-0.2525a45.2 45.2 0 0 0-1.25-1.554c-0.201 0.0198-0.4029 0.0396-0.6057 0.0594 0.01-0.2548 0.013-0.5025 0.019-0.7426a45.2 45.2 0 0 0-2.416-2.551zm2.416 2.551a45.2 45.2 0 0 1 0.5865 0.6832c4.892-0.4825 9.217-0.9771 11.23-1.671 1.14-0.3936 1.301-0.2804 2.28 0.397 0.9336 0.6456 3 1.988 4.003 2.728-0.229 0.2642-0.9618 1.25-1.815 1.774-0.9868 0.606-0.9827 0.6817-1.413 2.255-0.3455 1.262-2.092 7.018-2.844 8.741-0.478 1.096-1.342 0.9376-1.976 0.6213-0.2185-0.1091-0.2796-0.4652-0.2168-1.102-0.3898 0.0474-0.8151 0.097-1.269 0.1483a45.2 45.2 0 0 1 2.145 8.572c4.222 2.929 8.745 5.427 12.92 6.479 2.534 0.6394 6.463 1.238 9.758 1.556a60 60 0 0 0-18.38-34.63c-2.859-0.1108-7.89-0.3251-8.866-0.1978-0.7854 0.1025-4.098 6e-3 -5.97 0.0653-0.064 0.7684-0.1178 2.012-0.1614 3.581zm1.836 2.237a45.2 45.2 0 0 1 2.819 4.121c1.173-0.2498 1.716-0.5299 2.661-1.09 1.3 0.4493 2.729 0.7047 4.11 0.9791 0.3792-2.538 0.525-4.663 0.3174-4.854-0.1247-0.1147-0.4755-0.1633-1.044-0.1565-1.498 0.0178-4.505 0.419-8.863 1.001zm3.832 5.881a45.2 45.2 0 0 1 2.228 4.706c0.6199-0.0332 1.424 0.0365 2.17 0.1801 0.144-0.713 0.3435-1.585 0.5856-2.629 0.2179-0.9401 0.4128-1.933 0.5785-2.902-1.638 0.2055-3.634 0.4451-5.562 0.646zm5.439 18.82a45.2 45.2 0 0 1 0.09 2.846 45.2 45.2 0 0 1 0 0.5543c0.648 0.2614 1.064 0.623 1.49 0.9913 0.6841 0.5912 0.1288 1.051-0.1436 1.385-0.2619 0.3216-0.1299 1.856-0.2844 3.328 4.444-0.326 10.74-0.6527 11.41-0.9379 0.8839-0.3757 1.371-1.057 2.399-0.4899 2.149 1.187 3.904 2.224 3.429 3.074-0.292 0.5226-5.738-0.5013-14.07-0.2703-1.568 0.0435-3.242 0.1408-4.92 0.275a45.2 45.2 0 0 1-1.14 4.845c0.054-4e-3 0.1084-8e-3 0.1631-0.0118 4.683-0.328 9.706-1.112 10.64-1.012 0.6928 0.0736 2.225 1.851 2.674 2.22 0.6352 0.5224-1.503 1.071-1.884 1.43-0.431 1.795-0.7358 2.766-1.212 4.263-0.4958 1.558-0.8763 2.085-1.926 1.571-0.12-0.0587-0.1689-0.2408-0.168-0.514-2.578-0.0562-3.437 0.0913-5.44 0.1931-0.8878 0.0451-1.704 0.109-2.486 0.1904 0.8142 0.3168 1.475 0.7362 1.996 1.347 0.3232 0.3784 0.1207 3.571 0.2027 5.912 0.098 2.793-0.4938 3.366-0.304 4.054 0.2574 0.9333-0.6657 2.658-1.554 4.139-0.6588 1.098-1.166 0.2215-1.993-1.672-0.4679-1.071-5.182-3.346-4.979-3.684s4.55 1.946 5.553 1.404c1.462-0.7889 0.7421-5.027 1.25-8.53 0.1575-1.087-0.4121-2.086-1.358-2.829-0.9581 0.1252-1.892 0.277-2.878 0.4521a45.2 45.2 0 0 1-2.911 4.572c-0.017 0.0455-0.044 0.0889-0.083 0.1297a45.2 45.2 0 0 1-9.84 9.972c-0.035-0.0401-0.069-0.0806-0.1048-0.1215-1.872-2.175-1.809-4.699-2.445-10.43-1.335 4.298-0.3343 9.424-1.747 11.15-0.7215 0.8802-5.237 1.115-8.802 0.8009 0.018-0.1564 0.038-0.2785 0.062-0.3616 0.5256-1.863 2.078-1.672 0.2389-2.843-1.092-0.695-2.947-1.493-3.696-1.52-0.5124-0.0188-0.5072 0.3231 0.6141 1.305 0.3175 0.2782 0.3479 1.447 0.313 3.072-1.011-0.2151-1.734-0.5001-1.937-0.8505-0.8213-1.413-0.4451-6.024-0.2741-11.41 3.676-1.374 9.993-3.822 11.65-5.315 0.4329-0.3912 0.5652 0.3208 1.266-0.7882 0.7791-1.233-0.6742-2.25-1.887-2.891-3.743-1.976-3.06-0.8161-2.723-0.5255 0.8313 0.7189 0.5874 0.5941 0.5495 1.887-0.032 1.075-5.469 4.363-8.813 6.279 0.03-1.306 0.043-2.644 0.018-3.981 0.6441-1.02 1.165-1.258 1.987-2.226-0.6412-0.9632-1.966-2.489-3.536-2.676-1.054-0.1252-1.725-0.1616-2.124-0.1338-1.197 0.0833 0.056 0.7426 0.7795 1.304 0.8709 0.6753 0.5922 9.19 0.4639 14.06-0.1158 4.394-0.2365 6.197 0.7626 7.322 0.8662 0.9747 2.182 1.587 3.767 1.962-0.035 1.266-0.062 2.661-0.015 4.057 0 0.0996 0.01 0.1994 0.01 0.2994a45.2 45.2 0 0 0 2.261-0.6433c0.07-1.214 0.1117-2.369 0.1504-3.328 2.373 0.2347 5.066 0.1567 7.663 0.0513a45.2 45.2 0 0 1-7.814 3.277c-0.099 1.705-0.2534 3.526-0.5354 5.085-0.063 0.3511-0.1374 0.7045-0.2211 1.059 3.895 4.211 6.914 7.941 11.69 10.34 4.025 2.027 9.087 2.991 12.81 3.521a60 60 0 0 0 25.64-27.9c-0.7922 0.2855-1.673 0.5149-2.912 0.5251-2.08-2.958-5.042-7.779-7.603-10.35-0.9985-1.002-1.677-1.561-1.446-1.573 0.1913-0.01 1.007 0.3555 2.783 1.155 4.353 1.96 7.643 2.985 10.52 7.012a60 60 0 0 0 3.918-21.35 60 60 0 0 0-0.4759-7.542c-4.572 0.1823-9.362 0.1254-13.28 0.0319-2.971-0.7551-6.071-3.088-9.24-6.012zm-8.441 29.23a45.2 45.2 0 0 0 0.083-0.1297c0.2352-0.6346-1.549-1.674-3.033-1.708-0.244-6e-3 -0.48 0.0159-0.6976 0.0709-0.4094 0.1035 0.7435 0.5732 0.9798 1.166 0.1272 0.319-2.906 4.456-4.78 6.182-3.392 3.124 0.5165 1.34 3.784-2.128 2.196-2.331 2.586-2.84 3.497-3.328 0.071-0.0379 0.1261-0.0798 0.1685-0.1247zm2.994-4.701a45.2 45.2 0 0 0 0.7494-1.431c-1.131 0.1537-1.95 0.2805-2.901 0.4432-0.2397-1.709-0.7483-4.162-1.194-5.536 2.222-0.4234 4.458-0.7974 6.638-1.085a45.2 45.2 0 0 0 0.4076-1.312c-4.052 0.2992-6.256 1.035-8.896 0.6544-1.266-0.4793-2.638-0.4983-1.957 0.1518 0.3939 0.376 1.565 0.7476 1.81 1.499 0.5038 1.551 0.9468 3.857 0.9683 4.921 0.047 2.345 1.62 4.131 2.322 2.544 0.034-0.0779 0.046-0.2438 0.039-0.4769 0.7075-0.1331 1.372-0.2571 2.014-0.3712zm3.292-7.61a45.2 45.2 0 0 1-2.543 6.178c0.8432-0.1146 1.86-0.2441 3.233-0.4148 3.783-0.47 5.782-0.5452 8.186-0.4297 0.3081-1.532 0.9111-3.693 0.9356-5.151-0.092-0.4171-0.3352-0.5769-0.6049-0.7715-2.785-0.0815-5.933 0.1564-9.207 0.5886zm1.547-6.157a45.2 45.2 0 0 0 0.6941-7.356c-0.5755-0.2321-1.334-0.3852-2.446-0.3938-0.9879-8e-3 -1.349 0.1111-0.9085 0.5094 0.4185 0.3783 1.8 0.3693 1.926 0.801 0.2415 0.8285 0.2149 3.366 0.2233 4.972-0.1556 0.0145-0.3047 0.029-0.4466 0.0434-3.86 0.3934-12.45 1.48-13.78 1.124-1.434-0.3849-4.027-2.185-2.826-0.5111 1.827 2.546 3.374 3.041 4.907 2.613 2.206-0.6152 7.449-1.386 12.66-1.803zm-43.85 37.29a45.2 45.2 0 0 0 1.78-0.0625c-0.4648-2.292-1.315-4.389-2.134-4.43-0.071-4e-3 -0.1415 8e-3 -0.2116 0.0368 0.4572 1.259 0.6056 2.896 0.5652 4.456zm5.071-73.13c-2.284-0.0883-6.665-0.1813-9.923 1.184-3.981 1.668-7.807 4.049-7.262 9.03 0.3508 3.207 3.42 5.044 6.429 4.293 2.168-0.5413 3.331-0.8672 5.453-5.771 1.967-4.547 2.468-6.612 5.304-8.736zm25.89 0.947c0 1.468 0.01 2.996 0 4.546-4.227 0.5185-7.991 0.9004-10.48 1.083-0.2144-1.776-0.7598-3.321-1.273-4.494 2.056-0.1429 6.656-0.4994 11.74-1.135zm0 6.161c0 1.699-0.012 3.409-0.024 5.079-2.334 0.2915-4.612 0.5905-5.548 0.7269-1.121 0.1632-2.711 0.1529-3.825 0.2592-0.1553-0.4843-0.3147-1.009-0.4114-1.562-0.2571-1.47-0.454-2.848-0.5705-4.055 0.6751 0.2744 1.574 0.487 3.123 0.4417 1.092-0.0319 4.091-0.4812 7.257-0.8887zm-45.74 5.726a1.216 1.216 0 0 0-1.216 1.216 1.216 1.216 0 0 0 1.216 1.216 1.216 1.216 0 0 0 1.216-1.216 1.216 1.216 0 0 0-1.216-1.216zm13.17 2.532c-2.897-0.1001-5.697 0.3795-7.915 1.846-4.745 3.136-2.72 7.519-0.087 8.967 4.098 2.254 9.495 2.139 13.48-1.453 3.887-3.504 4.733-4.861 7.568-5.912-3.12-1.504-8.217-3.281-13.04-3.447zm-10.91 0.1704a1.216 1.216 0 0 0-1.216 1.216 1.216 1.216 0 0 0 1.216 1.216 1.216 1.216 0 0 0 1.216-1.216 1.216 1.216 0 0 0-1.216-1.216zm-3.142 1.081a1.081 1.081 0 0 0-1.081 1.081 1.081 1.081 0 0 0 1.081 1.081 1.081 1.081 0 0 0 1.081-1.081 1.081 1.081 0 0 0-1.081-1.081zm-3.128 2.578c-0.2088-9e-3 -0.4239-8e-3 -0.645 3e-3 -1.428 0.0687-6.882 0.508-10.08 8.506-2.433 6.077-1.685 9.921-1.321 12.29 2.681-3.164 6.619-5.073 11.51-7.81 5.286-2.958 5.388-5.7 5.396-8.089 0.01-2.535-1.725-4.769-4.857-4.898zm12.66 23.11c-0.5179 0.0105-0.2194 0.6489 0.7015 1.503 2.325 2.157-11.9 16.64-10.93 16.31 2.412-0.8389 6.399-5.601 8.477-7.365 0.2687 3.425-0.1201 10.08-0.4855 11.43-0.4392 1.622-0.6455 2.943 1.115 4.561 1.25 1.149 1.349-2.397 1.284-6.385-0.05-3.038 0.1206-8.315 0.2137-10.88 1.656-1.29 4.133-4.201 4.708-5.35-0.813-1.205-2.214-2.537-3.571-3.261-0.7473-0.3983-1.242-0.5652-1.514-0.5597zm30.94 25.33c0.686 0.309 1.27 0.8174 1.915 1.522 1.861 2.004 0.3538 2.168-0.9437 2.246-1.833 0.8503-9.316 3.979-9.974 3.715-0.538-0.2166 7.194-4.805 8.122-5.996 0.2899-0.3719-0.2188-0.949-0.9253-1.424 0.3778-0.0143 0.7504-0.0272 1.116-0.0377 0.243-7e-3 0.4724-0.0152 0.6888-0.0248z"/></svg>