<svg id="hero" version="1.1" viewBox="0 0 500 1080" xmlns="http://www.w3.org/2000/svg"><path d="m204.2 381.2c0 1.282-1.039 2.321-2.321 2.321s-2.321-1.039-2.321-2.321c0-1.282 1.039-2.321 2.321-2.321s2.321 1.039 2.321 2.321zm1.97-7.456c0 1.36-1.102 2.462-2.462 2.462-1.36 0-2.462-1.102-2.462-2.462 0-1.36 1.102-2.462 2.462-2.462 1.36 0 2.462 1.102 2.462 2.462zm4.783 5.557c0 1.399-1.134 2.532-2.532 2.532-1.398 0-2.532-1.134-2.532-2.532 0-1.399 1.134-2.532 2.532-2.532 1.399 0 2.532 1.134 2.532 2.532zm-51.61-39.68c8.676 1.136 11.9 7.405 16.15 13.94 2.707 4.441 5.318 9.046 9.025 12.75 1.208 1.156 9.012 8.089 17.11 2.565 5.772-3.938 4.628-10.66 3.912-13.25-1.513-6.079-6.921-10.21-12-13.45-4.731-2.968-10.51-5.328-17.38-6.075-7.191-0.7823-9.17-0.4646-16.83 3.524zm55.24 13.06c-3.236 2.928-7.299 10.14-4.511 16.15 1.589 3.424 5.312 6.545 11.19 5.882 5.627-0.6353 8.391-1.744 12.43-11.11 2.123-4.918 5.822-15.84 11.31-18.98-8.994-0.5232-22.1 0.5362-30.42 8.058zm-47.38 16.05c-6.225 0.5906-12.23 2.247-18.15 4.163-7.391 1.943-13.29 8.846-17.3 13.38 7.461 0.265 12.05-0.3482 18.91 3.072 1.598 0.7955 3.062 1.398 9.074 4.464 3.029 1.378 5.968 3.797 9.218 2.152 2.345-1.186 3.777-2.516 9.638-7.608 5.237-4.55 10.13-9.317 17.58-11.45-2.144-3.029-13.57-9.96-28.98-8.175zm62.32 7.942c-15.6 0.3354-20.13 7.351-20.68 13.19-0.1453 1.549 1.688 11.75 16.74 12 8.108 0.1352 12.88-2.11 21.05-9.755 5.053-4.728 6.467-6.509 11.58-8.41-7.318-3.792-17.03-7.271-28.68-7.021zm-38.88 8.467c-6.621 1.668-10.8 6.303-11.9 7.648-3.668 4.485-6.458 10.21-8.008 17.47-2.146 6.377-0.6396 11.44-0.5877 17.54 4.87-5.584 10.12-8.461 16.47-11.98 4.507-2.496 11.31-6.551 12.59-7.503 5.279-3.929 7.696-10.93 5.683-16.98-2.705-8.125-10.8-7.061-14.25-6.192zm59.35-85.11a125 125 0 0 0-125 125 125 125 0 0 0 125 125 125 125 0 0 0 38.12-5.955l-0.4209-0.5404c-1.383-1.775-19.38-22.89-24.04-28.21l-4.408-5.029-3.731 7.308-3.732 7.308-11.78 11.89-6.435 3.052c-7.632 3.62-9.835 3.163-3.263-0.6752 15.87-9.267 24.29-23.78 25.93-44.7a94.73 94.73 0 0 1-17.07 2.599l-0.2695 5.133c-0.2779 5.293-1.096 7.407-2.864 7.407-0.485 0-1.323-0.672-1.862-1.494l-0.9791-1.495 0.6739-7.782c0.047-0.5407 0.095-1.076 0.1437-1.6a94.73 94.73 0 0 1-0.5162 1e-3 94.73 94.73 0 0 1-94.73-94.73 94.73 94.73 0 0 1 94.73-94.73 94.73 94.73 0 0 1 61.42 22.61c1.7-0.0667 2.867-0.1488 3.194-0.2365l1.465-0.3916v-3.424c0-5.173-0.6388-7.379-2.744-9.485l-1.914-1.914h1.921c2.676 0 7.295 1.728 9.065 3.391 1.718 1.614 1.808 2.818 0.5582 7.514l-0.9092 3.418h0.9944c1.851 0 14.5-3.66 17.4-4.924a125 125 0 0 0-73.95-24.32zm73.95 24.32a125 125 0 0 1 0.6586 0.4323c-0.1951-0.1452-0.3673-0.3188-0.5633-0.4628-0.015 7e-3 -0.08 0.0239-0.095 0.0305zm0.6586 0.4323c0.9796 0.729 1.872 1.566 2.829 2.323a125 125 0 0 0-2.829-2.323zm2.829 2.323a125 125 0 0 1 6.676 5.73l0.3039 4e-3c-2.222-2.035-4.617-3.865-6.98-5.733zm6.676 5.73-28.54-0.412-0.426 2.82c-0.2231 1.476-0.5481 3.426-0.7413 4.459a94.73 94.73 0 0 1 1.625 1.883c1.881-0.2139 7.099-1.001 12.76-1.932 6.652-1.094 12.74-1.788 13.53-1.544 2.231 0.6889 9.575 5.673 9.575 6.499 0 0.4057-0.6162 1.296-1.37 1.977-2.443 2.211-4.359 6.272-7.408 15.71-2.596 8.032-4.111 11.25-5.292 11.25-0.1677 0-1.458-0.5882-2.867-1.307l-2.066-1.054a94.73 94.73 0 0 1 4.341 17.67c8.469 5.669 17.47 10.27 24.53 12.41 4.458 1.351 19.03 4.544 21.77 4.773 0.01 6.3e-4 0.012 1e-3 0.018 1e-3a125 125 0 0 0-39.44-73.2zm-6.878 56.02c-2.868-1.92-5.674-3.962-8.322-6.072-5.083-4.05-9.945-8.056-10.81-8.904l-1.565-1.541 2.216-0.3395c1.219-0.1866 4.786-0.5037 7.928-0.7044l5.712-0.3649 0.4959 0.253a94.73 94.73 0 0 0-1.464-3.896l-3.976 0.515c-4.639 0.6018-9.489 1.114-10.78 1.139l-2.342 0.0458 0.2708-5.035c0.1491-2.769 0.3927-5.156 0.5404-5.304 0.1477-0.1477 3.13-0.5071 6.629-0.7985 1.505-0.1254 3.284-0.2755 5.03-0.4247a94.73 94.73 0 0 0-2.45-4.261c-0.096 0.0305-0.1925 0.0621-0.2899 0.0941-2.209 0.7252-5.346 1.519-6.972 1.762l-2.955 0.4425v-9.799l2.441-0.3688c0.4523-0.0684 1.226-0.167 2.197-0.2823a94.73 94.73 0 0 0-2.747-3.427c-0.3294 0.0374-0.556 0.0572-0.665 0.0572h-1.33l0.342-1.79c0.01-0.0477 0.018-0.0974 0.028-0.15a94.73 94.73 0 0 0-4.904-5.136c0.05 0.5961 0.08 1.341 0.08 2.146v3.534l-1.578 1.241-1.577 1.24-10.46 0.824c-5.755 0.453-12.24 0.6181-14.41 0.3662l-3.947-0.4578 1.086 2.509c2.614 6.044 3.55 9.654 4.552 17.54 1.109 8.731 2.774 13.94 4.457 13.94 0.5383 0 2.356-0.7324 4.04-1.628 2.26-1.202 4.057-1.628 6.87-1.628 2.095 0 3.81 0.1925 3.81 0.4285 0 0.9556-5.72 7.916-9.688 11.79-4.53 4.42-19.07 15.78-20.2 15.78-0.3741 0-1.64-0.5847-2.813-1.3-3.898-2.377-5.71-1.503-3.998 1.928 1.395 2.796 0.9414 8.738-0.7947 10.42l-1.245 1.209-11.8 1.134c-6.487 0.6238-12.27 0.9504-12.86 0.7261-0.7085-0.2719-1.063-1.183-1.063-2.733 0-2.691-2.084-7.157-3.758-8.053-1.674-0.8961-5.813-1.58-6.604-1.091-0.3949 0.2441 0.3115 1.293 1.682 2.496 2.724 2.392 4.122 5.304 4.122 8.586v2.299h-22.38l1.858 1.938c2.889 3.015 5.381 3.56 10.72 2.345 2.486-0.5654 5.986-1.027 7.777-1.027h3.256l1.125 3.569c0.6332 2.009 1.952 4.357 3.016 5.371l1.891 1.802-0.4565-5.306-0.4578-5.306 1.217-0.6447c1.199-0.6349 8.469-1.648 17.58-2.449l4.645-0.4082-1.289 5.613c-1.863 8.112-1.031 9.104 2.219 2.642 1.441-2.865 3.072-5.721 3.625-6.348l1.006-1.139 9.501-0.0382c5.226-0.0206 10.63-0.2404 12.02-0.4883l2.514-0.4501-3.615-3.418c-3.781-3.574-4.967-4.043-6.269-2.474-1.056 1.273-4.139 2.155-8.654 2.477-4.505 0.3216-4.689-0.2132-1.415-4.131l2.328-2.787-0.3917-2.089-0.3916-2.089 4.737-2.604c6.746-3.708 14.37-9.311 22.75-16.71l7.258-6.415-0.4641 16.01-0.4641 16.01 1.33 2.608c0.7318 1.434 1.578 2.762 1.881 2.949 0.3029 0.1872 1.04-1.21 1.638-3.105l1.086-3.446v-16.99c0-9.912 0.2557-17.15 0.6129-17.37 0.3368-0.2082 5.654 5.122 11.82 11.84l11.21 12.22 0.3547 0.2327a94.73 94.73 0 0 0-0.8913-9.336zm0.8914 9.336a94.73 94.73 0 0 1 0.099 4.325 94.73 94.73 0 0 1-0.012 1.438c1.661 0.4904 2.72 1.356 3.014 2.527 0.2019 0.8045 0.023 3.121-0.398 5.149-0.4209 2.027-0.6304 3.819-0.4667 3.983 0.5295 0.5295 15.65-0.9267 21.73-2.093l5.91-1.133 2.969 1.741c1.634 0.9573 3.629 2.664 4.433 3.793l1.461 2.054-40.11-0.8799a94.73 94.73 0 0 1-2.35 10.03c9.884-0.8792 18.26-1.62 18.79-1.663 0.3835-0.0314 0.7456-0.0508 1.091-0.0547 2.418-0.0291 3.987 0.6402 5.918 2.415l2.431 2.235-2.15 2.225c-1.409 1.458-2.596 3.711-3.442 6.532-1.883 6.276-1.931 6.303-11.12 6.303h-7.837l0.5163 1.139c0.9337 2.063 1.11 19.66 0.2378 23.77-0.7975 3.758-2.835 7.634-4.26 8.101-0.3939 0.1291-2.076-1.358-3.738-3.304-1.662-1.946-4.394-4.446-6.069-5.555l-3.047-2.018 1.577 8e-3c0.8671 4e-3 2.895 0.3899 4.506 0.8583 3.269 0.9502 4.932 0.7925 5.433-0.5137 0.9059-2.361 1.855-14.26 1.443-18.1l-0.4591-4.293-2.396 0.3319c-1.212 0.1678-3.583 0.5618-5.488 0.9104a94.73 94.73 0 0 1-27.67 31.06c-0.012 0.063-0.034 0.1065-0.067 0.1297-0.1223 0.0851-0.668 0.4377-1.472 0.9511-0.9997 0.6381-2.399 1.525-3.877 2.458l-4.851 3.062-0.37 4e-3a94.73 94.73 0 0 0 3.095-1.724 94.73 94.73 0 0 0 6.003-3.799 94.73 94.73 0 0 0 1.54-1.081c0.086-0.4557-0.3729-1.895-1.124-3.465-0.8549-1.786-2.035-6.021-2.623-9.411-0.5882-3.39-1.152-6.247-1.254-6.349-0.1016-0.1016-0.5437 3.41-0.9816 7.805-0.8074 8.102-1.922 11.8-3.765 12.51-1.263 0.4846-11.99 1.636-15.38 1.652l-2.502 0.0115 1.746-2.981c0.9607-1.639 1.632-3.097 1.49-3.239-0.3741-0.3741-8.624-4.096-8.771-3.957-0.068 0.0643 0.2027 2.231 0.6027 4.815s0.5386 4.887 0.3077 5.118c-0.8956 0.8956-3.689-1.801-4.3-4.15-0.3496-1.344-0.6641-6.719-0.6994-11.95-0.05-7.348 0.1394-9.673 0.8342-10.25 0.4942-0.4102 6.73-3.468 13.86-6.795 13.89-6.482 14.84-7.29 11.85-10.01-0.8206-0.7441-2.824-2.118-4.452-3.053l-2.959-1.7 0.2645 2.267c0.3664 3.138-0.9779 4.898-6.685 8.748-4.967 3.351-11.25 7.182-11.78 7.182-3e-4 -4e-5 0-2e-5 0 0h-1e-3c-0.1605-0.0434-0.2923-1.909-0.2923-4.182v-4.181l1.628-1.935c2.008-2.387 2.041-3.421 0.1627-5.132-1.975-1.799-3.686-2.621-6.022-2.895l-1.953-0.2289 0.2263 1.628c0.1246 0.8952 0.4183 11.15 0.6523 22.79l0.426 21.16 1.151 2.11c1.364 2.499 3.32 3.895 6.287 4.489l2.164 0.4336-0.4502 6.901c-0.026 0.4027-0.055 0.8036-0.086 1.202a94.73 94.73 0 0 0 4.589-1.259c0.035-0.571 0.072-1.11 0.1106-1.602l0.4133-5.304 8.528-0.0979 8.158-0.0928a94.73 94.73 0 0 1-17.21 7.097c-0.1744 2.816-0.3048 6.388-0.3064 8.65v4.948l8.971 8.775c9.47 9.263 12.14 11.19 19.15 13.83 6.056 2.28 16.84 4.935 20.05 4.935 0.8452 0 1.586-0.0562 2.368-0.2403a125 125 0 0 0 51.78-55.28l-5.241-2.318-5.452-7.376c-9.136-12.36-11.47-15.79-10.67-15.78 0.054 3.3e-4 0.1217 0.0165 0.2022 0.0458 0.6589 0.2392 4.476 1.969 8.481 3.844 7.692 3.6 10.55 5.437 14.95 9.594l2.005 1.895a125 125 0 0 0 7.889-43.7 125 125 0 0 0-0.8609-14.65c-1.478-0.3874-5.835-0.6548-13.15-0.8087-7.101-0.1493-13.8-0.4096-14.9-0.5786-1.092-0.1689-5.661-2.722-10.15-5.674zm-11.78 50.26a94.73 94.73 0 0 0 1.854-3.516c-2.871 0.2926-4.933 0.5352-5.366 0.6409l-1.396 0.3408-0.768-4.773c-0.422-2.625-0.8992-5.25-1.062-5.833l-0.2962-1.059 7.018-1.039c1.779-0.2637 4.32-0.5452 7.056-0.7947a94.73 94.73 0 0 0 1.031-3.298c-0.2448 0.0217-0.491 0.0442-0.7375 0.0661-10.2 0.9076-18.92 1.65-19.37 1.65-1.185 0-1.023 1.228 0.7337 5.585 0.855 2.121 1.768 5.467 2.028 7.436 0.6542 4.948 1.338 6.065 3.474 5.672 0.9529-0.175 3.343-0.62 5.313-0.988 0.158-0.0295 0.3209-0.0599 0.4871-0.0903zm7.039-16.03a94.73 94.73 0 0 1-5.185 12.52c2.225-0.2268 4.936-0.4835 7.75-0.7312 6.445-0.5673 12.62-1.174 13.73-1.349l2.008-0.3179 0.9689-4.513c0.6326-2.946 0.7575-4.889 0.3599-5.6l-0.6091-1.088-9.529 0.4183c-2.825 0.1239-6.29 0.372-9.488 0.6638zm3.381-13.32a94.73 94.73 0 0 0 1.451-15.14c-1.022-0.3019-2.272-0.4616-3.713-0.4616h-3.012l1.383 1.474c1.681 1.789 3.4 5.744 3.4 7.821 0 3.673-1.437 4.049-21.44 5.629l-7.446 0.5887-3.784-1.177c-2.016-0.6275-3.677-1.026-3.779-0.9104l-2e-3 2e-3v1e-3c-1e-4 2.6e-4 -7e-4 3e-3 -1e-3 4e-3l-1e-3 1e-3c-1e-4 5.8e-4 0 3e-3 0 4e-3 0 0.9273 2.522 3.854 4.204 4.88 2.545 1.552 2.296 1.563 17.96-0.768l13.31-1.98zm-27.26-84.53c-0.071-0.842-0.1822-1.387-0.3065-1.387-0.066 0-0.4175 0.0593-0.9791 0.1628a94.73 94.73 0 0 1 1.286 1.225zm-1.286-1.225a94.73 94.73 0 0 0-3.293-2.941c-2.484 0.0975-6.107 0.1622-9.907 0.1653l-11.63 9e-3 0.8494 1.024c1.315 1.584 5.222 3.365 8.439 3.845 1.946 0.2906 5.11-0.0142 9.526-0.9155 2.505-0.5112 4.778-0.9576 6.02-1.186zm10.56 11.67a94.73 94.73 0 0 1 5.578 8.151c2.898-0.9216 5.124-1.164 8.962-1.001l5.235 0.2225 0.197-3.798c0.2096-4.042-0.2793-5.293-2.553-5.322-0.3248-4e-3 -0.6863 0.0173-1.087 0.0585-1.329 0.1365-5.492 0.5523-9.252 0.9244-2.493 0.2468-5.169 0.5374-7.08 0.7642zm8.029 12.41a94.73 94.73 0 0 1 4.626 9.862l4.458-0.5786 0.8024-4.232c0.9215-4.855 1.315-5.833-0.8049-5.817-0.7067 5e-3 -1.693 0.1213-3.032 0.2403-1.479 0.1316-3.736 0.3274-6.05 0.5252zm-82.79 139.8a94.73 94.73 0 0 0 5.156-0.1691l0.012-0.2251-1.972-3.872c-1.026-2.014-1.77-3.079-2.131-3.072-0.083 1e-3 -0.1467 0.0607-0.1882 0.178-0.1663 0.4693-0.5378 3.538-0.8761 7.16zm65.68-151.2-0.2187 4.813-0.2174 4.814-5.859 0.7172c-3.223 0.3942-7.811 0.9116-10.2 1.151l-4.337 0.4349-1.284-1.631c-1.107-1.407-2.581-7.258-1.971-7.823 0.2708-0.2509 12.34-1.576 18.98-2.085zm-0.1106 13.03v4.543c0 6.069-0.4223 6.397-9.39 7.291-8.182 0.8159-7.448 0.8211-9.289-0.0687-1.751-0.8463-2.092-1.688-2.584-6.396l-0.3866-3.702 5.454-0.4222c3-0.2324 7.871-0.6077 10.82-0.8341zm-76.89 73.84c-0.017-5.7e-4 -0.034 2.1e-4 -0.05 1e-3 -0.4919 0.0324-0.3887 0.8204 0.4501 2.101 0.7081 1.081 0.9449 2.29 0.6803 3.474-0.523 2.34-6.773 11.06-15.61 21.77-6.71 8.132-8.548 11.41-4.105 7.317 1.158-1.066 5.01-4.562 8.562-7.768l6.457-5.829-0.4108 3.581c-0.2256 1.969-0.765 8.78-1.199 15.14l-0.7897 11.56 1.539 1.636c1.051 1.119 1.749 1.425 2.205 0.9689 0.9766-0.9766 1.607-8.693 1.653-20.23 0.052-13.06 0.7662-15.67 5.61-20.47 5.22-5.179 5.02-5.85-3.794-12.64-0.5293-0.4076-0.9333-0.6006-1.194-0.6091zm81.53 21.48-0.431 2.07c-0.6792 3.262-3.132 6.956-7.414 11.16-2.175 2.137-3.956 4.261-3.956 4.72s0.1664 0.8342 0.3701 0.8342c0.8079 0 17.21-15.11 17.21-15.85 0-0.4379-1.299-1.278-2.888-1.867zm-18.26 31.43c0.4749 0.015 1.039 0.2576 1.822 0.6625 1.958 1.012 5.1 5.332 4.393 6.039-0.4466 0.4466-23.25 9.274-24.01 9.291-0.2685 7e-3 -0.4882-0.2595-0.4882-0.59s3.201-2.748 7.113-5.371c4.934-3.309 7.538-5.512 8.495-7.192 1.18-2.07 1.764-2.868 2.67-2.839zm13.88 53.87a125 125 0 0 1-11.71 4.407v1e-3c3.978-1.274 7.886-2.746 11.71-4.409z"/></svg>