<svg id="hero" version="1.1" viewBox="0 0 200 500" xmlns="http://www.w3.org/2000/svg">
  <path id="hero-00" style="fill: #000000" d="m30 130h140v140h-140z"/>
  <path id="hero-01" style="fill: #ffffff" d="m121.9 147.4c-0.7474 0.01-0.9409 0.3512-0.3782 0.6961 1.481 0.9078 1.781 1.23 1.83 2.25 0.0402 0.8294 0.0745 2.363 0.1011 4.36-2.541 0.1894-4.97 0.3272-5.989 0.4752-1.773 0.2575-2.382 0.0178-3.4-0.0437-1.48-0.0894-5.085-1.299-2.992 0.4618 0.714 0.6005 2.649 1.383 3.929 1.906 1.066 0.4354 1.478 0.2632 2.373-0.1251 1.067-0.4633 4.047-0.7605 6.098-1.065 0.0131 1.283 0.0234 2.701 0.0306 4.206-5.252 0.5637-10.63 1.467-12.76 0.9642-0.1254-0.0295-0.2375-0.0496-0.3373-0.0614-0.6037-0.3665-1.339-0.4049-2.064-0.4776-1.206-0.1209-0.496 0.761-0.1729 1.025 0.3237 0.2645 1.075 0.9886 1.417 1.723 0.3642 0.7816 0.8309 3.213 1.152 4.997 0.2504 1.39 0.6292 4.744 0.7409 6.349 0.0566 0.8137 0.1887 1.655 1.07 2.487 0.5571 0.5256 0.6835 0.8744 1.786-0.4305 0.1681-0.199 0.2319-0.4428 0.2283-0.7246 1.458-0.1435 3.664-0.5445 6.128-0.8902-2.553 5.181-12.54 12.23-16.64 15.4 6.106-2.432 13.5-7.41 19.41-14.4-0.0737 6.852-0.2284 12.45-0.4933 12.91-0.7155 1.262 0.122 6.264 1.725 5.421 0.8201-0.4315 1.129-1.319 1.072-4.18-0.0299-1.51-0.0627-8.12-0.0443-15.24 7.039 6.407 14.08 15.46 20.52 17.09 4.562 0.1089 10.31 0.1681 15.51-0.1421l-0.1429-1.438c-3.562-0.2031-8.921-0.9393-12.09-1.74-7.741-1.953-16.69-8.884-22.68-14.31 3.314-0.2762 6.676-0.6218 8.892-0.891-0.0628 0.6363-2e-3 0.9924 0.2168 1.102 0.6334 0.3163 1.498 0.4744 1.976-0.6213 0.7517-1.723 2.499-7.479 2.844-8.741 0.4305-1.573 0.4265-1.649 1.413-2.255 0.8534-0.524 1.586-1.51 1.815-1.774-1.003-0.7404-3.07-2.082-4.003-2.728-0.9795-0.6774-1.141-0.7906-2.28-0.397-2.092 0.7226-6.694 1.229-11.83 1.73 0.0469-1.92 0.1062-3.438 0.1807-4.324 1.872-0.059 5.185 0.0372 5.97-0.0653 1.208-0.1576 8.639 0.2088 10.46 0.2534l-4.75-4.293c-1.863 0.215-4.737 0.7695-6.791 1.791-0.7024 0.3492-2.48 0.6063-4.54 0.809 0.2102-1.041 0.0771-2.431 0.1824-2.735 0.1953-0.5626 1.123-0.5912 0.5743-1.655-0.632-1.225-3.062-2.265-4.334-2.554-0.3648-0.0827-0.6754-0.1164-0.9246-0.1132zm14.69 13.38c0.5685-7e-3 0.9193 0.0418 1.044 0.1565 0.2077 0.1911 0.0618 2.316-0.3174 4.854-1.381-0.2744-2.811-0.5298-4.11-0.9791-1.725 1.023-2.111 1.112-7.437 1.788 0.0169-1.624 0.0381-3.168 0.0643-4.566 5.387-0.7162 9.05-1.234 10.76-1.254zm-13.08 1.557c4e-3 1.468 6e-3 2.996 4e-3 4.546-4.227 0.5185-7.991 0.9004-10.48 1.083-0.2144-1.776-0.7598-3.321-1.273-4.494 2.056-0.1429 6.656-0.4994 11.75-1.135zm13.61 4.679c-0.1658 0.9693-0.3606 1.962-0.5786 2.902-0.2421 1.044-0.4416 1.916-0.5855 2.629-0.9912-0.1909-2.085-0.2511-2.713-0.1131-1.168 0.2566-1.479 0.2756-3.563 0.434-0.7026 0.0535-2.222 0.2243-3.957 0.4328 7e-3 -1.711 0.017-3.425 0.031-5.079 0.9744-0.1121 1.925-0.2098 2.801-0.2795 2.664-0.212 6.039-0.6098 8.564-0.9266zm-13.61 1.482c-4e-3 1.699-0.0121 3.409-0.0243 5.079-2.334 0.2915-4.612 0.5905-5.548 0.7269-1.121 0.1632-2.711 0.1529-3.825 0.2592-0.1553-0.4843-0.3147-1.009-0.4115-1.562-0.257-1.47-0.4539-2.848-0.5705-4.055 0.6752 0.2744 1.574 0.487 3.123 0.4417 1.092-0.0319 4.091-0.4812 7.257-0.8887z"/>
  <path id="hero-02" style="fill: #ffffff" d="m134.6 189.5c-0.9879-8e-3 -1.349 0.1111-0.9085 0.5094 0.4185 0.3783 1.8 0.3693 1.926 0.801 0.2415 0.8285 0.215 3.366 0.2233 4.972-0.1556 0.0145-0.3047 0.029-0.4466 0.0434-3.86 0.3934-12.45 1.48-13.78 1.124-1.434-0.3849-4.027-2.185-2.826-0.5111 1.827 2.546 3.374 3.041 4.907 2.614 2.917-0.8135 11.14-1.899 17.58-2.078 8.333-0.231 13.78 0.7928 14.07 0.2703 0.4752-0.8505-1.28-1.887-3.429-3.074-1.027-0.5674-1.515 0.1142-2.399 0.4899-0.671 0.2852-6.964 0.6119-11.41 0.9379 0.1546-1.472 0.0225-3.006 0.2844-3.328 0.2724-0.3346 0.8277-0.7939 0.1436-1.385-0.8048-0.6955-1.572-1.367-3.936-1.385zm11.42 11.57c-0.9379-0.0996-5.96 0.684-10.64 1.012-4.157 0.2912-6.384 1.052-9.059 0.6662-1.266-0.4793-2.639-0.4983-1.957 0.1518 0.3939 0.376 1.565 0.7476 1.81 1.499 0.5038 1.551 0.9467 3.857 0.9682 4.921 0.0474 2.345 1.62 4.131 2.322 2.544 0.0345-0.0779 0.0462-0.2438 0.0391-0.4769 1.793-0.3374 3.31-0.6166 4.892-0.8234 0.9458 0.7425 1.515 1.742 1.358 2.829-0.5079 3.504 0.2116 7.742-1.25 8.53-1.004 0.5418-5.351-1.742-5.553-1.404-0.2027 0.3378 4.511 2.613 4.979 3.684 0.8272 1.894 1.334 2.77 1.993 1.672 0.8883-1.481 1.812-3.205 1.554-4.139-0.1898-0.6879 0.4018-1.261 0.304-4.054-0.082-2.341 0.1204-5.534-0.2027-5.912-0.5213-0.6105-1.182-1.03-1.996-1.347 0.782-0.0814 1.598-0.1454 2.486-0.1904 2.004-0.1017 2.862-0.2493 5.44-0.1931-8.8e-4 0.2732 0.048 0.4553 0.168 0.514 1.049 0.5139 1.43-0.0134 1.926-1.571 0.4764-1.497 0.7811-2.468 1.212-4.263 0.3808-0.3591 2.519-0.908 1.884-1.43-0.4488-0.3692-1.981-2.147-2.674-2.22zm-2.007 1.748c0.2697 0.1946 0.5132 0.3544 0.6049 0.7715-0.0245 1.458-0.6275 3.619-0.9357 5.151-2.404-0.1155-4.403-0.0403-8.185 0.4297-3.216 0.3996-4.475 0.574-6.134 0.8579-0.2398-1.709-0.7483-4.162-1.194-5.536 5.557-1.059 11.2-1.81 15.84-1.674zm-1.282 10.38c-0.231 0.0119 0.4476 0.5705 1.446 1.573 2.562 2.571 5.523 7.392 7.603 10.35 2.643-0.0219 3.659-1.042 5.655-1.475-3.212-5.992-6.844-7.006-11.92-9.293-1.776-0.7994-2.591-1.165-2.783-1.155zm-17.16 0.6861c-0.244-6e-3 -0.48 0.0159-0.6976 0.0709-0.4094 0.1035 0.7435 0.5732 0.9797 1.166 0.1272 0.319-2.906 4.456-4.78 6.182-3.392 3.124 0.5165 1.34 3.784-2.128 2.196-2.331 2.586-2.84 3.497-3.328 1.031-0.5529-1.074-1.923-2.782-1.963z"/>
  <path id="hero-03" style="fill: #ffffff" d="m102.2 222.4c-0.5124-0.0188-0.5072 0.3231 0.614 1.305 0.6485 0.5682 0.0995 4.852 0.2415 9.152 0.1553 4.702-1.551 9.863-3.538 13.09-4.665 7.574-11.19 9.474-10.79 10.01 0.3404 0.456 8.489-2.955 11.53-7.615 1.635-2.505 3.087-5.447 3.956-8.363 6.152 7.718 12.61 15.73 17.38 18.62l10.84-5.642c-3.342-0.408-10.72-1.201-16.18-3.953-4.772-2.403-7.791-6.133-11.69-10.34 0.0836-0.3548 0.1575-0.7082 0.221-1.059 0.7348-4.061 0.6058-9.903 0.8686-10.83 0.5256-1.863 2.078-1.672 0.2389-2.843-1.092-0.695-2.947-1.493-3.696-1.52zm13.39 6.318c-0.2293-3e-3 -0.4723 6e-3 -0.7314 0.0276 1.003 0.5009 1.978 1.332 1.601 1.816-0.9286 1.191-8.66 5.78-8.122 5.996 0.6575 0.2646 8.141-2.865 9.973-3.715 1.298-0.078 2.804-0.2413 0.9437-2.246-1.12-1.224-2.059-1.856-3.664-1.879zm-23.42 1.36c-0.07082-4e-3 -0.1415 8e-3 -0.2115 0.0368 0.8422 2.32 0.6366 5.921 0.1329 7.96-0.707 2.862 1.924 3.296 2.425 1.171 0.6287-2.67-0.906-9.096-2.346-9.167z"/>
  <path id="hero-04" style="fill: #ffffff; mix-blend-mode: difference" d="m136.7 189.5a46.5 46.5 0 0 1-46.5 46.5 46.5 46.5 0 0 1-46.5-46.5 46.5 46.5 0 0 1 46.5-46.5 46.5 46.5 0 0 1 46.5 46.5z"/>
  <path id="hero-05" style="fill: #000000" d="m102.4 187.8c-0.762 0.0357-0.8683 0.6475 0.3366 1.459 0.8104 0.5455 0.2124 3.098-0.6072 5.757-3.984 0.2993-8.364 0.7083-12.55 1.166-0.4401-2.772-0.2622-4.628-1.095-5.099-2.921-1.653-6.463-1.282-3.108 0.6419 1.239 0.7106 1.365 1.715 1.997 4.704-0.1969 0.0227-0.3932 0.0454-0.5887 0.0682-5.77 0.6741-7.13 1.076-8.692 0.4668-2.156-0.8413-2.563-0.6851-1.564 0.2249 1.582 1.44 2.483 1.749 3.496 2.209 2.485-0.4275 5.09-0.8432 7.734-1.215 0.03744 0.1628 0.07635 0.3299 0.1169 0.5015 1.182 5 4.188 7.39 2.162-0.304-0.04353-0.1653-0.08429-0.3284-0.1226-0.4893 3.931-0.5111 7.899-0.9072 11.64-1.085-0.3823 1.162-0.7555 2.26-1.015 3.128-1.014 3.388-0.1137 4.318 1.689 0.1014 0.5857-1.37 1.002-2.429 1.373-3.305 3.17-0.081 6.136 0.0168 8.729 0.3613 6.938 0.922 1.944-3.064-0.9518-4.164-0.4502 0.5082-0.9714 1.01-1.737 1.644-1.544 0.0578-3.279 0.1519-5.136 0.2752 0.4715-0.818 1.031-1.519 1.912-2.346 2.027-1.901-1.137-3.665-2.635-4.358-0.5558-0.2572-1.038-0.3599-1.384-0.3436zm-16.01 15.94c-0.5179 0.0105-0.2194 0.6489 0.7015 1.503 2.325 2.157-11.9 16.64-10.93 16.31 2.412-0.8389 6.399-5.601 8.477-7.365 0.2687 3.425-0.1201 10.08-0.4855 11.43-0.4392 1.622-0.6455 2.943 1.115 4.561 1.25 1.149 1.349-2.397 1.284-6.385-0.0498-3.038 0.1206-8.315 0.2137-10.88 1.656-1.29 4.133-4.201 4.708-5.35-0.813-1.205-2.214-2.537-3.571-3.261-0.7473-0.3983-1.243-0.5652-1.514-0.5597zm10.9 0.402c-1.197 0.0833 0.05596 0.7426 0.7795 1.304 0.8709 0.6753 0.5922 9.19 0.4639 14.06-0.1158 4.394-0.2365 6.197 0.7626 7.322 2.948 3.317 11.11 2.441 17.34 2.262 5.116-0.1472 4.225-0.847 1.943-3.498-1.872-2.175-1.809-4.699-2.445-10.43-1.335 4.298-0.3343 9.424-1.747 11.15-1.169 1.426-12.3 1.159-13.21-0.3968-0.8213-1.413-0.4451-6.024-0.2741-11.41 3.676-1.374 9.993-3.822 11.65-5.315 0.4329-0.3912 0.5652 0.3208 1.266-0.7882 0.7791-1.233-0.6742-2.25-1.887-2.891-3.743-1.976-3.06-0.8162-2.723-0.5255 0.8313 0.7188 0.5874 0.5941 0.5495 1.887-0.0315 1.075-5.469 4.363-8.813 6.279 0.0303-1.306 0.0424-2.644 0.0175-3.981 0.6441-1.02 1.165-1.258 1.987-2.226-0.6412-0.9632-1.966-2.489-3.536-2.676-1.054-0.1252-1.725-0.1616-2.124-0.1338z"/>
  <path id="hero-06" style="fill: #5b242a" d="m78.92 168.8c-0.01543-3.068-0.7552-5.707-8.063-9.64-5.972-3.214-12.81-1.613-14.16-0.5274 2.302 1.029 4.725 2.341 6.55 5.527 1.983 3.462 5.582 10.09 9.753 9.95 5.326-0.1743 5.931-3.514 5.922-5.311z"/>
  <path id="hero-07" style="fill: #214163" d="m74.26 177.1c-1.507-2.004-8.207-5.723-18.41-3.378-9.083 2.087-11.34 5.622-12.8 8.108 8.332-1.723 13.57 4.566 16.91 4.625 2.708 0.0485 9.964-9.26 14.31-9.355z"/>
  <path id="hero-08" style="fill: #000000" d="m73.12 180.6c-1.429 0.0687-6.882 0.5081-10.08 8.506-2.433 6.077-1.685 9.921-1.321 12.29 2.681-3.164 6.619-5.073 11.51-7.81 5.285-2.958 5.388-5.7 5.396-8.089 0.0095-2.704-1.964-5.065-5.502-4.895z"/>
  <path id="hero-09" style="fill: #000000" d="m82.94 187.6c4.098 2.254 9.495 2.139 13.48-1.453 3.887-3.504 4.733-4.861 7.568-5.912-4.992-2.406-15.04-5.511-20.96-1.602-4.745 3.136-2.72 7.519-0.08736 8.967z"/>
  <path id="hero-10" style="fill: #000000" d="m86.87 175.9c2.168-0.5413 3.331-0.867 5.453-5.771 1.967-4.547 2.468-6.612 5.304-8.736-2.283-0.0883-6.665-0.1814-9.923 1.184-3.981 1.668-7.807 4.049-7.262 9.03 0.3507 3.207 3.42 5.044 6.429 4.293z"/>
  <path id="hero-11" style="fill: #000000" d="m78.99 175.4a1.216 1.216 0 0 1-1.216 1.216 1.216 1.216 0 0 1-1.216-1.216 1.216 1.216 0 0 1 1.216-1.216 1.216 1.216 0 0 1 1.216 1.216z"/>
  <path id="hero-12" style="fill: #000000" d="m77.97 179.1a1.081 1.081 0 0 1-1.081 1.081 1.081 1.081 0 0 1-1.081-1.081 1.081 1.081 0 0 1 1.081-1.081 1.081 1.081 0 0 1 1.081 1.081z"/>
  <path id="hero-13" style="fill: #000000" d="m81.25 178.1a1.216 1.216 0 0 1-1.216 1.216 1.216 1.216 0 0 1-1.216-1.216 1.216 1.216 0 0 1 1.216-1.216 1.216 1.216 0 0 1 1.216 1.216z"/>
  <path id="hero-14" style="fill: #ffffff" d="m20 120v160h160v-160zm80 20a60 60 0 0 1 60 60 60 60 0 0 1-60 60 60 60 0 0 1-60-60 60 60 0 0 1 60-60z"/>
</svg>