<svg id="hero" version="1.1" viewBox="0 0 230 550" xmlns="http://www.w3.org/2000/svg"><path d="m200.3 80.06c-1.905-0.3441-3.43 0.9051-5.115 1.549-2.117 1.436-4.139 3.349-5.769 5.451-1.986 2.681-3.104 5.954-4.82 8.836-1.378 3.37-3.828 6.199-6.99 8.02-1.598 0.8027-2.693 2.057-4.295 2.746-2.999 2.455-6.354 4.501-9.145 7.218-4.38 4.207-8.076 9.13-10.92 14.49-0.634 2.616-2.001 5.13-2.288 7.893-0.8244 2.529-0.619 5.258-1.045 7.887 0.2828 2.901 0.2913 5.849 0.413 8.774 0.1382 1.986 0.6726 3.926 1.29 5.791 0.8763 0.9703 0.2483 2.289 0.9432 3.138 0.5805 1.094 2.51 0.394 0.8474-0.3681-4e-3 -1.379 0.0898-2.775-0.5536-4.042-0.4872-4.295-0.3079-8.694-0.382-13.03-0.2072-2.726 0.4268-5.437 1.059-8.033-0.3001-1.489 0.7296-2.665 0.8959-4.101 1.43-2.817 2.262-6.042 4.497-8.378 2.892-4.56 6.968-8.173 11.05-11.64 2.627-1.871 5.23-3.759 7.948-5.507 1.15-0.1495 2.55-2.485 3.574-1.754l2.956-3.231c-4e-3 -0.9656 0.62-1.921 1.487-2.218 0.88-2.752 2.347-5.293 3.834-7.788 1.015-2.087 1.978-4.148 3.902-5.573 1.766-1.453 3.688-3.749 6.183-3.468 4.782-0.4269 0.8864 3.223-0.1944 5.073-1.283 2.011-2.904 3.888-3.975 5.976-2.769 3.306-6.844 5.026-10.15 7.69-0.348 0.284-0.5917 0.7109-1.102 0.5731-1e-3 -9e-3 3e-3 -0.0173 2e-3 -0.026l-2.818 3.081c0.0219 0.0219 0.0465 0.0221 0.0681 0.0473-0.4089 1.487-2.24 1.977-3.424 2.762-1.29 0.5201-1.929 1.237-0.4178 2.036 0.2405 0.9595-0.1529 2.005-1.107 2.454 0.5392 1.962-1.812 3.207-2.781 4.625-1.64 1.697-3.525 3.493-4.524 5.511-0.2457 1.236-1.786 2.585-0.7864 3.363 1.242 0.157 1.836-0.9993 2.22-1.993 1.065-0.301 0.9665-1.271 1.897-1.913 0.2873 0.8688-0.531 1.756-0.2361 2.763-0.1899 1.139 0.4206 2.812 1.365 3.193 1.332-1.464 0.7319-4.829 1.556-6.938 0.7844-1.37 0.5678 2.408 1.135 3.146 0.3341 2.048 0.0619 4.197 0.0897 6.276-0.7715 2.353 0.0926 4.91-1.099 7.115-0.5964 1.728-0.4868 0.8618 0.8932 0.6728 0.1121-0.3581 0.5146-0.7007 0.8314-0.8346l0.5527-0.9731c-0.1847-0.5227 0.4189-2.484 0.7882-2.693-0.2598-0.4337-0.1233-0.7382 0.0873-0.9355l0.3752-13.17c-0.4019-0.3277 0.1916-1.264 0.1695-1.82 0.5113-0.6881 0.8096-1.019 0.961-1.106 0.0568-0.0327 0.0931-0.0312 0.1121-2e-3 0.1335 0.208-0.571 1.798-0.9065 2.709-0.0978 0.0409 0.1354 0.413-0.0464 0.3698-0.0803-4e-3 -0.0823-0.0553-0.1402-0.0728l-0.3686 12.94c0.0172-7e-3 0.0236-0.0342 0.0411-0.0399 0.3406-0.1107 0.7333 0.1097 0.5965 0.8574 0.3295 1.152-0.3285 2.067-0.9986 2.696-0.29 0.3479-0.4586 0.4287-0.5734 0.4027l-0.469 0.8261c0.2022-9e-3 0.3212 0.1078 0.0775 0.5713-1.221 2.055-3.28 3.95-5.528 5.215-1.624 0.9083 1.67 1.79 2.259 0.7027 2.152-0.6004 3.476-3.697 5.569-3.627 0.3593 1.359 0.0792 2.997-1.103 3.868-0.7088 0.9485-1.994 0.6522-2.954 1.264-0.2734 1.384-1.556 2.068-2.479 3.002-0.7304 1.242-2.504 2.519-1.679 4.128 1.357 0.9988 2.43-2.127 3.51-2.996 0.662-1.113 1.879-1.548 2.686-2.34 0.6731-1.323 1.222 0.8988 0.311 1.28-0.5253 1.258-1.519 2.327-1.589 3.668-0.7982 1.749-3.023 2.497-4.019 4.179-1.33 1.641-2.632 3.439-3.559 5.104-1.334 0.9658-1.412-0.7116-2.605-1.093-1.098-0.2048-1.85 0.5222-2.879 0.4462-0.864 0.1233-2.378-0.3822-2.697 0.6462-0.1687 0.6265-0.3949 0.7573-0.6438 0.7311-0.0861 0.1878-0.1631 0.3556-0.3311 0.7225-0.1511 0.3301-0.2845 0.6223-0.3864 0.8462 0.0681 0.1834 0.0379 0.4363-0.261 0.832-0.296 0.4053-0.5988 0.4276-1.067 0.3849-0.653-1.034 0.4589-1.63 1.052-1.491 0.0861 0.0201 0.1034 0.1082 0.1607 0.1601 0.1004-0.2205 0.2267-0.4965 0.3633-0.795 0.1667-0.3641 0.2417-0.5279 0.3284-0.7169-0.5565-0.2086-1.237-1.162-1.934-0.9438-1.765 1.694-2.284 4.191-3.09 6.419-0.259 1.371 1.811 2.049 1.981 3.413 1.264 1.682-1.103 2.497-1.908 3.664-1.273 1.141-2.619 2.263-4.246 2.707-0.9688 1.222-2.448 1.637-3.984 1.54-1.642-0.4432-2.204 1.09-3.573 1.23 1.13 1.253-0.4897 1.64-1.975 1.715-1.669 2e-3 -3.438 1.155-5.003 0.3701-0.4334-0.4812-2.377-1.972-2.308-0.419 0.4919 0.8515 1.824 0.9832 1.484 2.313-2.095 2.185-5.295 2.664-8.211 2.577-2.386-7e-3 -4.961 1.151-7.221 0.0737-0.6136-0.6474-4.383-0.9504-3.145-0.4814 0.9523 1.989 2.706 3.287 5.053 3.149 0.6285 1.198-2.983 1.306-3.593 2.466-2.169 1.096-4.798-0.0962-7.07 0.8045-1.511 0.2056-2.961 0.6976-4.246 1.378-0.5836 0.665-2.319 1.464-3.374 2.2-0.747 0.7497-1.497 0.6112-2.29 1.311-0.6869 0.9972-1.746 1.136-2.555 1.762-0.1345 1.145-2.567 0.1681-1.541 1.201 0.8496-0.3956 1.322 0.8684 1.808-0.2006 0.8531-0.569 1.84-0.0371 2.234-1.205 1.544 0.0619 2.216-1.506 3.428-1.779 1.03-0.0125-0.8002 1.179-1.123 1.515-0.6907 0.7877-2.209 1.74-3.529 1.923-1.329 0.0145-1.87 1.733-3.337 1.425-1.037 0.9996-2.775 1.949-4.176 2.9-2.253 1.086-4.653 1.961-6.904 3.104-0.8775 0.6361-2.154 0.7474-2.92 1.278-0.4735 0.7864 0.9298 1.808-0.6814 2.184-0.9378 0.8937-1.445 1.842-1.847 2.93-1.166 1.068-1.521 1.094 0.2982 2.155 0.3838-1.525 1.69-2.432 2.704-3.534 0.8651-0.9048 1.173-1.943 2.483-2.507 0.8297-0.6901 1.204-0.7045 1.244-0.4447l3.876-1.124c0.1265-0.3562 0.7447-0.9363 1.088-1.233 0.4651-0.1604 0.7732-0.1812 0.9524-0.1151 0.5376 0.1983-0.0859 1.181-1.118 1.539-0.6443 0.1722-0.888 0.1206-0.9335-0.0296l-3.913 1.135c-0.0628 0.3064-0.3374 0.7583-0.8444 1.132-0.6213 0.9916-1.786 1.061-2.421 1.644 0.732 0.7966-0.377 1.793-0.3897 2.742-1.703 2.636-3.899 4.876-6.332 6.832-1.118 0.0147-1.908 1.231-2.83 1.556-1.431 1.754 1.851 0.0563 2.623 0.1308 6e-4 2e-3 -9.1e-4 5e-3 -3.1e-4 7e-3l1.576-1.103c-0.0562-0.1492-0.0435-0.3031 0.2681-0.1974l0.0331 0.0328c0.0308 0.4298-0.1098 0.4066-0.2225 0.2947l-1.662 1.163c-0.0212 1.1-2.592 2.452-3.283 3.623-1.187 0.5661-1.551 2.225-2.428 2.423-0.2727 1.462 1.065 0.8826 1.642 1.136l0.6101-0.6666c-0.4018-0.2469 0.4566-1.402 0.7947-1.252 0.0638 0.0283 0.0975 0.1258 0.1107 0.263l0.4888-0.534c7e-3 -0.2498 0.4563-0.8505 0.6701-0.8545 0.1139-2e-3 0.1437 0.1785-0.0314 0.6997-0.2807 0.191-0.4006 0.2184-0.508 0.2358l-0.6397 0.6991c-0.0136 0.1599-0.0228 0.313-0.0932 0.5746l-2e-3 2e-3 -0.1376 0.1246c-0.2193 0.077-0.375 0.0999-0.495 0.0944l-0.619 0.6761c0.1416 0.1397 0.1839 0.39 0.0154 0.8841-1.759 2.731-3.113 5.676-4.095 8.764-0.1502 1.862-1.756 0.1706-2.822 0.5092-0.8643-0.973-2.356-0.9493-3.4-0.2837-1.111 0.3892-0.741 1.94-1.667 2.695-0.6863 0.7448-1.846 0.7814-2.67 1.051-1.34 0.8716-0.1025 2.493-0.1683 3.781 0.0942 1.478-0.4917 2.699-1.014 4.041-0.2041 1.604 2.925 1.668 2.584 3.255-0.9376 1.29-0.7906 2.841-0.1003 4.175 0.5076 0.5527 1.235 1.149 2.153 1.595 0.9638 0.6498 1.496 1.613 1.96 2.624l-0.5731-4.524c-0.7783-1.025 0.3115-2.001 1.683-2.764 1.576-0.7717 1.375 2.765 0.4429 3.661l-0.4911 0.3397-0.4261-0.3181c-0.4827-0.246-0.7939-0.4909-1.033-0.7346l0.6074 4.795c0.1101 0.2572 0.2425 0.4984 0.3503 0.7571 0.9375 1.505 1.171 4.57 3.571 4.034 1.195-1.056 2.588-0.8503 2.895 0.9267-0.0936 1.687 1.11 2.09 1.582 3.558 1.244 2.438 2.579 4.635 3.901 6.978 0.9927 1.643 1.348 3.509 0.7595 5.258-0.4371 1.708-0.1083 3.739-1.007 5.27-1.294 3.916-4.295 7.019-7.728 9.201-4.77 2.513-9.542 5.37-14.94 6.245-3.441 0.9673-7.162 1.51-10.1 3.673-4.196 2.335-7.002 6.43-9.173 10.59-0.9278 1.965-1.538 4.114-2.336 6.174-1.335 2.758-1.029 5.914-2.22 8.728-1.255 4.806-2.133 9.72-2.756 14.65-0.4884 3.388-2.037 6.526-2.983 9.793-1.793 3.737-2.978 7.818-5.674 11.05-1.499 0.918-1.208 1.765-2.092 2.868-1.679 1.225-2.329 3.21-3.843 4.532-0.1515 0.0949-0.303 0.1897-0.4545 0.2846h6.124c1.721-0.2403 2.677-2.587 4.062-3.637 1-1.466 2.553-1.497 3.392-3.105 1.539-2.474 0.9292 2.008 2.707 1.287-0.6819-0.9086 0.4265-1.984-0.1337-2.854 0.1125-1.45-0.2367-3.861 1.946-3.66 0.8386-1.828 0.4011-4.046 1.498-5.756 0.6194-1.304 0.8675-2.736 2.177-3.553 0.7164-2.048 1.481 0.2243 0.7098 1.432-1.234 1.066 1.777-0.1928 1.328-1.385 0.8268-3.377 0.7143 2.293 1.846 0.8935 0.9853-2.036 0.8461-5.107 0.621-7.498-0.6664-1.267 0.6637-2.155 0.5006-3.396 0.4382-1.503-0.7577-2.738-0.7971-4.199-0.3586-1.1 0.5736-1.819 0.4482-2.769-0.01-1.669-0.6593-3.674 0.0281-5.215 1.528-0.0696 1.49-1.995 1.469-3.221-0.4362-1.802 1.432-2.118 2.17-3.286 0.5681-1.551 0.2241-4.395 2.702-3.547-0.1729-1.126 1.166-2.455 1.973-3.576 1.134-1.332 0.4059 2.135 0.3039 2.711-0.4916 1.204-1.356 2.077-1.666 3.347-0.1196 1.236 1.766 0.3522 1.94-0.4258 1.376-1.364 0.9163-3.521 2.587-4.698 0.8492-2.589 1.644 1.072 2.74 0.2293 0.1354-0.7449 2.014-1.066 2.954-1.76 0.8511-1.499 2.562-2.424 3.825-3.553 0.6538-1.219 3.086-0.8843 1.378 0.3186-0.9045 0.722-3.51 2.255-1.227 3.118-0.6273 0.7725-2.117 1.962-2.678 2.93-0.1076 1.551 1.814 0.7329 2.247-0.1038 1.116-1.437 2.41-1.023 3.379-1.669 1.225-0.7201 0.9829-3.089 2.421-3.238 1.31-1.892 2.395-0.6974 2.894 0.7574 0.9955 0.2065 2.208-0.2784 2.54-1.209 0.4614-2.044 0.9805 0.914 0.7914 1.817 0.8831 1.356 2.674-0.9588 2.36-2.094-0.3491-1.661 4.175-6.095 2.829-2.5-0.6205 3.42 2.024 0.6766 3.002-0.6358 0.8897-1.138 1.166-1.189 2.186-0.9299 1.203 1.195 2.322-1.098 2.667-2.063 0.1115-0.962 0.6521-1.669 0.7624-2.668 1.011-1.896 1.057 0.4898 1.755 1.077 0.8583 1.343 1.757-0.7379 1.018-1.453 0.055-1.821 0.2269-4.209 1.853-5.305 0.7715-1.478 1.288-2.711 2.78-3.445 1.727-1.281 0.8899-3.617 1.092-5.454 0.1077-0.5813-0.0309-1.306-0.0355-1.963l-0.9678-5.097c-0.204-0.173-0.4806-0.7821-0.5154-1.212-0.2227-0.7645-0.1157-1.11 0.0808-1.161 0.3274-0.0844 0.9036 0.6516 0.616 1.637 0.0551 0.4619 0.0369 0.6924-0.0177 0.7844l0.8746 4.606c0.0713-0.5071 0.2554-0.9553 0.8704-1.173 0.8714-1.735 0.4345-3.704 0.8151-5.562 0.5531-1.397-1.394-2.892-0.4012-4.013 1.315-0.7246 0.9319-2.146-0.1222-2.936-0.4225-0.7592-1.737-3.413-0.8991-3.737 0.321 0.5038 1.963 1.904 2.694 0.7944 1.322-1.103-1.489-1.126-1.182-2.384 0.1919-1.154-1.014-1.922-0.9095-2.911-0.1461-1.361-1.517-2.369-1.954-3.603 0.2434-1.846-1.46-2.142-2.23-3.74 0.1136-0.9118-1.666-2.096-1.039-2.367 1.233-0.5055 0.9381 1.449 1.876 1.836 0.4948 0.5007 1.851 2.351 1.956 0.9071-0.0507-1.146-0.7444-2.325-1.711-2.929-0.1308-0.7641-2.21-2.221-0.3284-2.284 0.5744-1.314-1.278-1.522-1.678-2.359 0.0497-1.464-1.648-2.007-1.962-3.379-0.3903-0.7076-1.181-2.059-0.5074-2.575 1.851-0.0333 0.5113-1.689 0.5642-2.616-0.0943-1.164 0.8937-1.46 0.579-2.659 0.5237-2.593 1.636-1.002 1.929 0.9145 1.025 1.135-0.7409 2.388-0.1068 3.599 1.535 1.403 2.26-1.966 3.623-2.443 0.5928-0.8193 0.7859-2.172 0.0281-2.784-0.7069-0.246-1.802-1.36-1.549-2.148l-0.9024-3.084c-0.2649 0.5868-1.591-1-1.693-1.326 0.1183-0.1967 0.2982-0.3259 0.4982-0.3891 0.15-0.0474 0.3113-0.0575 0.4666-0.0311 0.466 0.0792 0.8775 0.4877 0.7642 1.21 7e-3 0.0532-4e-3 0.0715 0 0.1178l0.9636 3.293c0.0662-0.0915 0.1423-0.1804 0.2621-0.255 2.69-0.7031 2.674-3.278 0.5639-4.719-0.6839-0.8952-0.7356-2.114-1.735-2.884-0.7649-1.187-1.542 0.5044-2.511 0.2133-0.8053-0.5716-0.5609-2.034-0.5281-3.006-0.1702-1.058 0.5064-1.819 0.2722-2.764 0.6075-1.582 2.198-2.028 2.942 4e-3 0.3816 1.131 2.026 0.606 1.854-0.4908-0.7882-0.9483-1.449-2.091-1.011-3.296 1.751-1.384 3.477-2.497 4.8-4.267 3.016-1.452 5.688-3.539 8.683-5.032 4.547-2.116 8.846-4.771 13.51-6.683 0.639-0.716 1.878-0.5866 2.638-1.506 1.083-0.5031 2.453-0.4113 3.437-1.223 1.732-0.6362 3.115-1.902 4.961-2.086 2.433-1.456 5.17-2.411 7.63-3.81 1.559-0.6335 2.39-0.9706 3.853-1.695 1.613-0.1315 2.495-1.543 4.16-1.72 1.549-0.2408 2.572-1.439 4.019-1.425 2.081-1.058 4.201-2.023 6.327-2.954 0.7514-0.7373 1.779-0.8241 2.673-1.294 1.147-1.233 3.118-1.21 4.071-2.263 0.9605-0.4931 2.378-1.001 3.318-1.407 0.6421-0.9912 3.388-2.896 4.003-1.865-0.7879 1.73-1.446 3.607-1.176 5.535 0.0585 1.238 0.1165 3.054 1.596 3.363 1.21 0.6473 2.586-0.3789 2.958-1.47 1.136-1.451 2.255-3.064 3.592-4.541 1.763-2.325 4.441-3.574 6.574-5.432 1.003-0.5084 1.784-1.266 3.018-1.662 1.033-0.8863 2.348-0.2043 3.532-0.3544 1.304-0.0619 2.03-1.067 2.868-1.922 0.7559-1.197 2.574 0.4006 1.774 1.345-0.7463 1.094 0.7426 1.56 1.674 1.288 0.6966-0.7214 1.685-1.322 1.355-2.468-0.5549-0.9789-1.725-1.833-1.225-3.108-0.3306-0.7908-2.315-1.593-1.409-2.375 0.9927-1.674 2.291-0.795 1.933 0.7388 0.015 0.7123 0.2827 2.721 1.226 2.146 0.9349-1.181 1.359-2.608 2.194-3.757 0.3754-1.152-0.3681-2.2-1.361-2.737-1.323-0.7057-1.786-2.16-2.115-3.527-1.344-0.9158-2.945 0.4257-4.296-0.3172-0.9729-0.5229-2.233-0.906-2.968 0.216-1.151 1.513-2.509 2.668-3.989 3.835-0.4902 1.025-1.315 0.8824-1.588 0.461l-2.207 3.833c0.6875 0.3758 1.511 2.4 2.658 2.055 1.549 1.017-2.214 1.86-2.959 2.444-0.4772 0.5529-1.754 0.5182-1.739-0.2799 0.7959-1.088 0.6059-2.462 1.248-3.592 0.2121-0.6038 0.4324-0.7862 0.6693-0.7276 1e-3 3.1e-4 3e-3 3e-3 4e-3 3e-3l2.242-3.896c-0.0856-0.3451 0.1743-0.7808 1.15-0.9903 1.271-2.12 2.663-4.123 4.087-6.132 1.508-1.221 1.883-5.534 3.929-5.245-0.0149-0.3934-0.0382-1.134-0.0234-2.207 0.0198-1.434 0.114-3.146 0.421-4.278 0.3071-1.132 1.098-2.668 1.812-3.927 0.5403-0.9519 0.9438-1.593 1.154-1.922-0.1949-0.343-0.2112-1.304-0.0852-2.079-0.2683-1.269 0.9485-1.995 1.691-2.764 0.1501 0.0385 0.2581 0.1043 0.3397 0.1867l3.873-14.71c-0.643-0.5635-0.9622-3.265-3e-3 -3.823 0.3265 1.147 1.032 2.412 0.4175 3.579-0.0493 0.118-0.0986 0.2361-0.1479 0.3542-0.0439 5e-3 -0.0832-0.0367-0.1254-0.0518l-3.91 14.85c0.2908 0.713-0.6165 2.155-0.8622 2.909l-0.2464 0.4873c-0.3898 0.9864-0.6643 1.28-0.8435 1.191-0.2246 0.3535-0.6075 0.9656-1.12 1.869-0.7119 1.254-1.499 2.79-1.798 3.892-0.2989 1.102-0.3959 2.812-0.4157 4.241-0.015 1.088 9e-3 1.838 0.024 2.219 0.0571 0.0142 0.1013-7e-3 0.161 0.0139-0.1245 1.121 2.394 4.325 2.112 1.789-1.077-2.638-0.9631-5.699 0.2225-8.293 1.508-1.756 2.099-4.147 3.714-5.785 0.459-1.486 1.621-2.819 1.94-4.348 1.395-3.042 0.4995-6.701 2.489-9.54 0.6136-1.259-0.0158-3.095 1.134-3.95 0.4805-0.3581 0.9279 1.75 0.9151 2.532-0.1575 1.679-0.2821 3.434-1.287 4.864-0.3325 1.011-1.163 1.775-1.577 2.633-0.1368 0.8816-0.323 2.285 0.5568 2.724 0.5296-1.637 2.332-3.101 3.237-4.77 0.4525-2.049 2.115-5.074 1.63-6.833 0.8505-1.557-0.0627-2.955-0.4465-4.528 0.2357-1.214-0.6618-1.939-1.024-2.959-0.0753-1.477-1.059-2.093-0.9317-3.412-0.9697-1.639 1.198-0.5632 1.667 0.2509 1.137-0.2683 1.512 1.525 2.595 1.355 1.715 0.4788 1.109-1.417-5e-3 -1.813-0.8318-0.5585-1.389-1.483-1.985-2.086-0.6285-0.912-0.6734-2.006-1.605-2.898-1.14-1.804-1.151-3.874-0.4394-5.843 0.5411-3.365 2.772-6.119 3.538-9.392-0.4016-1.377 0.2783-2.659 0.5604-3.986 0.294-1.732 1.278-3.328 1.262-5.04-0.2742-2.058-1.571-4.182 1.211-5.138 0.9195-1.261 2.924-0.376 3.181 0.9284-0.6242 1.77-0.8335 3.785-1.855 5.504 0.1232 2.026-0.9925 3.842-1.077 5.855-0.6788 1.805-0.4039 3.802-0.5852 5.713 0.1118 5.252 1.147 10.43 1.435 15.67 0.863 1.919 0.3258 4.123 0.8278 6.151 0.264 4.328 0.1168 8.718-0.2379 13.04-0.0215 2.907-0.3835 5.77-1.157 8.578-0.8676 4.118-2.815 7.877-3.996 11.9-0.7466 1.22-1.324 2.469-1.803 3.887-1.193 3.133-2.448 6.249-3.589 9.389-0.9966 2.238-1.533 4.686-2.79 6.806 0.0496 2.069-1.413 3.764-1.412 5.81-1.864 4.594-1.883 9.658-2.184 14.54-0.3118 1.933 0.3646 3.764 0.5867 5.655-0.0851 2.38 0.9476 4.549 1.178 6.893 0.7815 1.233 1.018 5.371 2.459 4.864 2.022 0.1651-0.1993-2.763-0.1713-3.661-0.7376-2.044-0.9113-4.159-0.9255-6.311-0.6873-2.734-0.3975-5.656-0.4793-8.491 0.2308-2.122-0.1589-4.456 0.5367-6.445 0.3396-2.554 0.6481-5.06 1.46-7.487 0.2078-2.234 1.897-3.999 1.999-6.277 0.8309-2.166 1.726-4.347 2.714-6.441 0.8228-1.655 0.7299-3.752 2.163-5.019 1.238-4.089 3.078-7.955 4.573-11.95 0.0939-1.655 1.521-2.886 1.651-4.497 1.182-2.744 0.9466-5.838 1.828-8.649 0.3956-5.359 0.4514-10.82 0.234-16.21-0.3488-2.392-0.2808-4.82-0.8707-7.153 0.0582-2.07-0.8711-3.974-0.8208-6.014-0.6841-4.203-0.6941-8.486-0.2465-12.72 0.2401-1.96 0.2305-4.091 1.094-5.814 0.0946-1.583 1.174-2.87 1.268-4.368 0.8295-0.9172 0.7133-2.088 0.6755-3.239-0.0344-1.992-2.413-3.394-4.238-3.597-1.496 0.0333-2.821 1.5-4.134 1.231-0.7603-1.072-1.435-3.227-3.241-2.576-1.271-0.1944-2.531 0.9778-3.7 0.3479-0.8732-0.1737-1.802-0.4073-2.79-0.5423z"/></svg>