<svg id="hero" version="1.1" viewBox="0 0 500 1080" xmlns="http://www.w3.org/2000/svg"><path d="m368.7 200c-4.332 0.4777-8.213 3.469-11.14 6.612-3.475 3.508-5.208 8.162-7.58 12.4-1.926 4.046-4.335 7.97-8.235 10.41-3.85 2.45-7.665 4.928-11.33 7.673-7.435 5.079-13.67 11.78-18.55 19.32-2.982 3.922-4.286 8.76-5.675 13.4-1.898 7.529-1.806 15.33-1.194 23.02 0.099 3.939 1.725 7.467 2.485 11.25 3.526 3.554 0.8462-3.123 0.7249-5.247-0.6441-6.975-0.5148-14.02-0.3435-21.02 1.142-4.546 1.319-9.421 3.601-13.6 1.59-4.869 5.015-8.726 7.93-12.83 4.654-4.954 9.66-9.816 15.48-13.41 2.903-1.892 5.721-4.406 8.879-5.76 2.05-1.598 4.139-3.376 5.642-4.945 0.9168-2.629 3.418-5.411 4.413-8.483 2.31-4.055 4.125-8.536 7.847-11.54 1.844-1.926 4.604-3.884 7.259-3.963 1.207-0.0358 2.392 0.3165 3.46 1.236-2.445 3.624-4.811 7.386-7.544 10.84-2.947 5.744-9.452 7.999-14.22 11.86v-8.8e-4c-1e-4 -5.8e-4 -4e-4 -1e-3 -6e-4 -2e-3v-2.9e-4h-3e-4l-3e-4 -2.9e-4v-2.9e-4h-3e-4c-1e-4 -8e-5 -7e-4 -3e-4 -8e-4 -3e-4 -0.047-8e-3 -0.7508 0.7158-1.113 0.7662-1.55 1.254-2.768 2.602-4.138 4.405-0.8775 2.583-8.02 2.965-4.671 5.641-0.3532 3.018-2.195 6.255-4.622 8.526-2.959 3.018-5.962 5.979-7.482 9.997-0.8828 4.429 4.007-0.7269 4.745-2.464 1.658-0.2963-1.055 6.03 2.091 7.038 1.771-2.393 1.057-6.889 2.377-9.631 1.645 5.067 1.382 10.6 0.762 15.88 0.7269 2.107-2.947 9.661 0.9834 5.923 0.021 5e-3 0.041 0.0112 0.06 0.0174 0.3788-0.4283 0.7165-0.759 0.931-1.464-0.029-0.7925 0.322-2.302 0.5626-2.536 0.1062-0.8014 0.238-1.328 0.3994-1.641 0.8512-5.449 0.8894-10.77 0.5634-17.09-0.4804-0.1681 0.4389-2.397 0.5922-2.728 0.6913-0.8402 1.058-1.175 1.212-1.185 0-3e-4 0.01-4.4e-4 0.01-3e-4 0.4136 0.0128-0.884 2.644-1.272 3.693-0.255 0.1964-0.4236 0.2563-0.5274 0.22 0.326 6.32 0.2878 11.64-0.5634 17.09 0.1299-0.2518 0.2695-0.3652 0.4054-0.372 0.7785-0.0389 1.437 3.42-0.5223 4.366-0.3043 0.4734-0.4947 0.6646-0.6265 0.6671-0.3542 0.4181-0.5702 0.9184-0.7291 1.394 0.256 1.27-3.368 4.684-4.901 5.478-3.059 0.5649-3.377 3.914 0.1117 2.7 2.842-0.176 6.811-7.633 8.147-3.459-0.3176 4.766-5.999 4.101-7.668 7.939-2.162 0.8921-5.69 8.127-1.372 5.824 1.531-2.092 5.339-7.533 7.116-6.009-1.792 4.366-3.816 8.217-7.726 11.11-2.396 1.711-3.782 7.912-6.676 6.427-2.568-1.58-7.786-1.306-9.465 1.374-0.021-0.0283-0.042-0.0562-0.062-0.0834-0.4348 0.5974-0.7609 1.184-0.9699 1.763 0.024 0.2407-0.053 0.6442-0.2823 1.266-2.792 1.133-0.7693-1.533 0.013-1.562 0.1449-5e-3 0.2328 0.0794 0.2543 0.2957 0.2091-0.5794 0.5351-1.166 0.9699-1.763-2.572-3.377-4.753 0.9753-5.456 3.434-3.546 3.892 2.707 6.753 1.412 10.33-2.928 2.775-6.215 4.937-9.669 6.933-2.004 0.8991-9.369 0.6106-7.399 3.357-2.941 0.9954-7.724 2.932-10.71 0.7988-5.048-2.139 2.121 2.805-1.087 4.018-3.122 2.452-7.102 2.283-10.85 2.532-4.355 1.152-8.462-0.2615-12.66-1.069 1.062 1.764 4.078 4.927 7.261 4.701-3.237 2.396-7.242 4.068-11.46 3.494-3.833 0.2307-7.401 1.558-10.45 3.63-3.675 1.999-6.796 4.866-10.71 6.259 0.97 1.404 4.27 0.1322 5.035-0.8397 1.209-0.3762 5.932-3.908 4.872-1.924-1.892 2.701-5.275 3.102-7.956 4.673-4.286 1.595-7.658 5.148-12.18 6.441-2.266 1.889-8.819 1.929-8.119 5.219-1.114 2.1-5.384 5.211-4.131 7.117 2.371 0.7156 4.09-4.842 6.584-6.204 0.9553-1.003 1.833-1.413 2.284-1.374 2.114-0.9648 3.884-0.6192 5.55-1.684 0.1063-0.1665 0.2888-0.3412 0.5585-0.5003 0.7001-0.6973 1.318-0.9803 1.743-1.004 0.029-2e-3 0.057-2e-3 0.085-1e-3 0.8473 0.0234 0.7823 1.175-1.269 1.954-0.4011 0.2505-0.7267 0.3292-0.9425 0.2771-2.949 0.805-4.924 1.705-6.227 2.539-0.2181 0.2074-0.4838 0.418-0.8022 0.6591-3.026 0.5644-2.056 2.786-3.136 4.985-2.653 4.411-6.546 8.107-11.14 10.32-3.405 3.012 1.488 0.5991 2.866 0.9968 0.5785-0.5218 1.24-1.007 1.931-1.466-0.1225-0.1027-0.072-0.5069 0.1134-0.5117 0.075-2e-3 0.1726 0.0616 0.2897 0.2371-0.1991 0.2911-0.3311 0.3495-0.4031 0.2891-0.6908 0.459-1.352 0.9438-1.931 1.466 0.013 4e-3 0.026-7e-3 0.038-3e-3 -2.367 2.944-5.835 5.215-7.801 8.276 0.7422 0.1637 1.271 0.4174 1.618 0.7437 0.6728-0.4403 1.069-0.8604 1.497-1.356 0.1874-0.4054 0.5373-0.8376 0.7857-0.8997 0.2759-0.3006 0.6015-0.6324 1.014-1.007 0.074-0.2242 0.2197-0.4014 0.4514-0.4006 0.1316 0 0.2906 0.0581 0.4797 0.1974-0.2991 0.8043-0.5445 1.094-0.7143 1.109-0.3549 0.452-0.6955 0.8538-1.018 1.232-0.01 0.0589-0.022 0.1202-0.035 0.1846-0.083 0.0488-0.1599 0.0916-0.2317 0.1286-0.671 0.7896-1.256 1.509-1.718 2.427-0.1356 0.8658-0.7172 1.886-1.555 2.955-2.743 2.797-1.936 11.48-7.185 8.727-3.735-2.969-5.632 1.551-7.478 3.688-4.496 0.1316-2.879 4.043-2.931 7.061-1.672 3.103-1.042 5.777 2.17 7.584-1.881 2.794-0.8151 6.603 2.362 7.895 1.124 0.6686 1.86 1.684 2.437 2.828-0.4777-1.825-0.7345-3.266-0.6594-5.271-1.033-1.454 1.268-3.307 2.799-3.369 0.9981-0.0399 1.668 0.6824 0.8733 2.775-0.2282 1.252-1.168 3.559-2.253 1.557-0.7132-0.2758-1.151-0.6079-1.404-0.9639-0.075 2.004 0.1817 3.445 0.6594 5.271 1.432 2.835 1.874 6.456 4.858 7.512 4.775-3.554 4.6 4.36 7.064 6.968 1.759 3.636 4.344 6.893 5.578 10.81 0.1489 4.397-0.621 9.012-2.516 13.02-3.494 7.092-10.87 10.83-17.73 13.94-5.886 3.323-12.79 3.736-19.11 5.924-6.944 2.534-12.53 8.014-16 14.47-2.54 5.323-4.908 10.88-5.786 16.76-2.449 8.169-4.044 16.57-5.205 25.02-1.695 5.049-3.121 10.24-5.477 15.06-1.798 4.569-4.119 9-7.68 12.44-2.076 2.955-4.089 6.734-7.519 8.511-3.969 2.989-7.647 6.482-10.83 10.29-2.073 2.916-5.153 5.522-2.91 9.301-0.1439 4.384-2.233 8.758-0.972 13.17 1.448 1.463 0.9026-2.871 1.62-3.008 1.441-3.375 1.278-7.953 4.181-10.45 3.913 0.1005 4.387-5.518 7.434-7.533 2.834-2.782 6.587-3.859 8.755-7.626 1.891-3.337 4.235-6.838 7.237-9.599 2.137-0.6183 4.918-6.882 6.222-3.607 2.514 4.155 1.065-4.224 1.853-5.894 3.584-1.381 2.618-5.635 4.201-8.629 0.4123-1.639 4.127-8.396 4.077-4.066-1.872 2.683 0.7706 1.539 1.435-0.14 0.4835-5.343 1.459 4.207 2.961-0.3025 1.028-4.092-0.3639-8.484 0.8945-12.35-0.255-4.321-0.9761-8.3-0.5479-12.63-1.238-3.859 3.23-4.474 2.252-8.362 1.349-2.86 3.735-4.99 4.083-8.51 3.236 0.7181 2.957-3.335 4.957-5.037 2.604 1.748-1.683 6.014-1.791 8.598 3.442 0.8699 3.407-5.116 5.744-6.878 0.9291-3.589 2.471 1.289 3.732-0.1397 3.776-1.522 6.066-5.147 9.674-7.152 3.983-1.445-0.6517 2.326-1.713 3.292 1.458 1.801 0.03 3.022-1.89 4.711-2.066 3.424 3.159 0.7754 4.151-0.67 4.041 0.2239 3.866-5.394 7.64-6.552 0.7461 2.056 4.393 4.091 5.226 0.3268 1.584-0.7082 0.5522 6.725 3.7 2.026-0.8007-2.225 4.704-9.708 4.127-5.244-1.308 5.379 3.785-0.2481 5.029-1.788 3.102 1.449 5.272-1.58 5.792-4.832 0.7641-4.008 2.045-0.2816 3.576 0.7028 0.7808-3.614 0.318-8.002 3.695-10.86 2.386-2.687 5.23-5.321 4.139-9.596 0.2696-1.471-0.5852-3.436 0.5176-4.54 2.185-3.347 2.249-8.251 0.9451-12.03 3.365-2.665-0.8467-4.572-0.8282-7.53-2.338-4.758 3.114 2.026 3.874-1.697-3.308-2.423-2.467-7.409-5.47-10.3 0.028-2.915-2.685-4.054-3.622-6.686-2.139-4.265 2.248 1.173 3.288 2.274 3.556-0.9223-4.578-5.681-1.801-7.188-0.8177-3.208-5.112-6.098-5.423-10.19 2.659-1.255 0.2844-4.566 1.766-6.978 0.5912-5.352 3.511 1.184 2.521 3.352-1.354 3.412 2.28 2.55 3.251 0.2023 4.289-2.526-0.2538-5.386-0.5272-7.917-1.051-1.228-0.1163-2.059-1.274-3.582l-0.075 0.0686c-3.437-0.6039-0.5821-4.469 0.1274-0.8082l0.049 0.6474-0.087 0.0923c1.158 1.522 0.2233 2.354 1.274 3.582v-0.0108c5.391-1.578 1.759-5.557 0.019-8.442-0.6423-3.814-4.45 0.1782-5.026-2.611-1.009-2.865 0.9204-11.56 4.399-5.916 3.906 1.503 0.4193-3.249 0.7511-4.937 2.566-2.143 4.918-4.309 7.576-6.288 4.476-2.768 8.985-5.542 13.77-7.699 5.526-2.99 11.31-5.657 16.87-8.38 3.836-1.218 7.446-3.431 11.31-4.598 3.976-2.125 8.128-3.909 12.18-5.808 3.218-1.191 6.252-2.731 9.513-4.004 3.9-1.36 7.778-2.913 11.47-4.836 3.673-1.719 7.31-3.543 10.84-5.274 2.545-0.1107 6.131-5.725 7.597-3.252-2.42 3.298-2.425 13.9 3.622 10.49 3.133-3.985 6.016-8.419 10.31-11.34 3.322-1.686 5.861-4.886 9.734-5.272 3.57 2.067 6.012-4.746 8.491-1.847-1.401 2.831 1.928 4.079 3.418 1.517 0.5149-2.649-1.446-5.898-3.294-8.072 0.2057-2.128 3.844-2.512 2.807 0.7171 0.8658 5.58 4.886-2.009 4.355-4.225-3.266-1.928-3.519-8.322-8.334-6.607-4.475-2.87-6.785 2.039-9.947 4.345-1.011 2.061-2.899 1.479-2.573 0.5525-1.92 1.879-2.996 3.783-3.541 5.906 0.2174-0.174 0.4452-0.2777 0.6768-0.288 0.5254-0.0234 1.071 0.4335 1.563 1.64 4.718 1.432-0.1492 3.266-2.314 4.112l-0.6988 0.3263-0.4682 0.1271c-1.122-0.8021-0.1664-4.803 1.227-5.918 0.545-2.122 1.62-4.027 3.541-5.906 0.1137-0.3232 0.5116-0.6885 1.296-0.9979 2.549-4.237 5.895-7.978 7.972-12.51 1.813-4.905 3.286 0.0413 5.102 1.561 0-0.0169 0.01-0.0338 0.01-0.0508-1.857-4.776-3.732-10.1 1.94-19.12-0.8698 0.4602-0.4973-3.708 0.2351-4.871 0.7295-0.9336 1.234-1.286 1.556-1.268 0.8905 0.0512 0.3851 2.938-0.6262 4.216-0.5202 1.214-0.8857 1.783-1.15 1.923-5.672 9.026-3.797 14.35-1.94 19.12 0.4733-3.24-1.863-8.596 0.9705-12.29 2.261-3.144 4.202-6.483 5.962-9.921 0.1204-8.306 2.439-14.19 2.827-22.09-0.024 0.0438-0.049 0.0868-0.076 0.1291-0.8233 1.757-0.8994-1.683-1.015-2.043-0.1985-1.633-0.014-2.252 0.2805-2.261 0.6077-0.019 1.697 2.563 0.8245 4.175-0.3881 7.906-2.707 13.79-2.827 22.09 0.2283-0.4458 0.4391-0.8933 0.6616-1.342 1.855-3.772 1.295-8.211 2.926-12.07 1.478-1.1 1.144-8.87 3.068-5.319 1.339 4.675-1.84 8.679-3.5 12.62 0.077 5.103 1.969 0.1801 3.571-1.314 2.286-3.103 3.37-7.468 3.68-11.03 0.621-4.386-1.562-8.405-3.021-12.42-1.842-4.899 3.265-0.2382 5.225 0.6531 4.25-0.6764-3.646-4.233-3.312-6.788-2.767-3.254-2.76-7.721-1.142-11.56 1.104-4.271 4.513-7.849 4.036-12.54 1.045-4.36 3.202-8.894 1.569-13.32 1.628-4.342 8.433-2.937 5.713 1.713-1.693 4.306-2.514 8.869-3.427 13.38-1.127 8.394 0.7134 16.72 1.324 25.07 1.419 8.056 1.535 16.31 0.7931 24.46-0.088 6.069-1.431 12.01-3.213 17.76-1.875 4.229-3.249 8.711-5.162 12.82-1.958 4.658-3.839 9.397-5.53 14.15-1.798 4.104-3.325 8.316-4.557 12.6-1.417 4.581-2.896 9.207-3.112 14.05-1.02 6.181-0.453 12.43 0.5628 18.56 0.8319 3.901 1.543 7.782 3.274 11.41 3.83 2.081 0.4838-4.705 0.2383-6.659-1.324-7.408-1.498-15.04-0.8234-22.54 0.7353-5.587 1.367-11.29 3.75-16.44 1.257-4.734 3.399-9.128 5.125-13.69 1.496-4.046 3.573-7.776 4.815-11.95 2.12-4.144 3.264-8.673 5.262-12.85 1.412-4.055 1.833-8.318 2.696-12.52 0.4039-8.327 0.868-16.7-0.078-25.01-0.622-6.527-2.173-12.91-2.338-19.5 0.1506-5.362-0.1527-11 1.602-16.11 0.5308-3.575 2.846-6.651 2.773-10.31-0.3187-2.625-3.829-5.254-6.499-4.229-2.734 1.642-4.964 1.741-6.178-1.539-3.593-1.022-7.742 0.397-11.61-0.8805z"/></svg>