<svg version="1.1" viewBox="0 0 32 32" xmlns="http://www.w3.org/2000/svg"><path d="m16.08 32c-3.521 0.04445-7.037-1.142-9.824-3.292-3.206-2.44-5.427-6.129-6.064-10.11-0.2436-1.301-0.1114-2.629-0.1453-3.944 0.3239-4.361 2.584-8.516 6.02-11.21 2.861-2.28 6.529-3.522 10.19-3.44 2.627 0.03378 5.246 0.7394 7.533 2.031 0.6185 0.3373 1.21 0.727 1.769 1.155-0.1624 0.1132-0.4447 0.08838-0.6414 0.1977-0.5517 0.1838-1.09 0.4345-1.685 0.4263-0.326 0.1159-0.1104-0.3768-0.163-0.5684-0.05334-0.2378 0.3912-0.3316 0.1539-0.5861-0.2662-0.3838-0.7528-0.5464-1.181-0.6719-0.316-0.0823-0.5677 0.1132-0.1613 0.2592 0.2312 0.1325 0.381 0.3604 0.3335 0.6328 0.0017 0.3355 0.0599 0.6928 0.02726 1.015-0.1358 0.08715-0.7899-0.05469-0.4477 0.2022 0.3088 0.1855 0.2259 0.3267-0.11 0.3131-0.4999 0.0455-0.978 0.2315-1.461 0.3258-0.4918-0.2032-1.108-0.3257-1.425-0.7721 0.1427-0.1525 0.4416 0.05164 0.6439 0.04909 0.4275 0.03152 0.8496 0.1074 1.276 0.0222 0.2872-0.03334 0.641-0.0438 0.8894-0.09053-2.018-1.754-4.671-2.763-7.344-2.852-0.9663-0.00522-1.936 0.02267-2.882 0.2393-2.304 0.4711-4.467 1.634-6.111 3.317 0.9323-0.1079 1.897-0.01866 2.76 0.3685 0.7886 0.3481 1.508 0.887 2.045 1.556 0.2554 0.5083 0.394 1.128 0.19 1.673-0.3036 0.7245-1.239 1.063-1.945 0.7235-0.9659-0.3838-1.436-1.39-1.96-2.219-0.3429-0.6662-0.8561-1.288-1.567-1.58-0.8237 0.8727-1.464 1.92-1.966 3.01-0.19 0.4902-0.4379 0.9742-0.5586 1.474 0.1508-0.03683 0.377-0.213 0.5825-0.2506 1.243-0.4645 2.641-0.7797 3.987-0.5226 0.8204 0.1093 1.645 0.3907 2.263 0.9598-0.3162 0.134-0.6966 0.2309-0.9918 0.4493-0.9246 0.5649-1.584 1.481-2.525 2.015-0.4322 0.2193-0.8653-0.1637-1.256-0.3218-0.7524-0.3828-1.522-0.8215-2.38-0.89-0.3715 1.994-0.1805 4.084 0.4746 6 1.056 3.09 3.424 5.694 6.4 7.038 1.62 0.7395 3.405 1.11 5.184 1.081-0.0057 0.4668-0.18 0.9162-0.1383 1.382 0.09991 0.2932 0.5693 0.3099 0.6291-0.02242 0.1785-0.4319 0.06706-0.9207 0.0095-1.357 0.7162-0.08249 1.473-0.1599 2.187-0.3446 0.2112 0.03314 0.0139 0.4617 0.06979 0.6452-0.2169 1.875-1.191 3.709-2.808 4.734-0.3011 0.2417-0.6991 0.3671-0.9661 0.6388 0.1345 0.1577 0.4029-0.09581 0.5805-0.13 0.9978-0.4369 1.971-1.035 2.564-1.976 0.4284-0.6346 0.7368-1.343 0.9866-2.064 0.1985 0.07486 0.305 0.3809 0.478 0.5374 0.9391 1.143 1.86 2.308 2.901 3.361 0.1674 0.2031 0.4282 0.3527 0.5704 0.558-1.604 0.533-3.294 0.8281-4.984 0.8253zm7.594-1.994c-1.307-0.2439-2.646-0.5307-3.812-1.195-1.001-0.678-1.817-1.586-2.62-2.481 0.03598-0.5406 0.1784-1.092 0.1447-1.628-0.176-0.02877-0.593 0.2892-0.5773-0.08172v-0.9546c-0.5923-0.09059-1.227-0.5068-1.224-1.166-0.0024-1.551 0.02581-3.106 0.0079-4.655-0.01181-0.3136-0.2348-0.5082-0.4603-0.6758 0.07252-0.2088 0.4053-0.06384 0.5749-0.05117 0.4253 0.0958 0.8179 0.3597 1.03 0.7412-0.1741 0.3018-0.6147 0.488-0.5056 0.9014 0.01727 0.2434-0.01631 0.5084 0.03071 0.7392 0.7689-0.4824 1.585-0.9117 2.262-1.523 0.1621-0.2429 0.09576-0.572-0.1476-0.7307 0.09672-0.1724 0.4285 0.0852 0.6037 0.1164 0.3287 0.1657 0.8468 0.4109 0.7277 0.8587-0.1787 0.22-0.4846 0.2545-0.7105 0.4284-0.9 0.5021-1.874 0.8461-2.829 1.225 0.01148 0.9182-0.02259 1.845 0.01679 2.758 0.04916 0.3153 0.3548 0.4525 0.6411 0.4717 0.0024-0.3637 0.07251-0.8163-0.3155-1.015 0.02839-0.2564 0.4258 0.01019 0.6005 0.03743 0.239 0.1203 0.6059 0.2283 0.6701 0.5067-0.06814 0.2037-0.3351 0.3681-0.2579 0.5993 0.6854-0.03269 1.396 0.07319 2.064-0.08813 0.4906-0.1637 0.4647-0.7374 0.4671-1.158-0.0063-0.6139 0.08257-1.217 0.207-1.816 0.08255-0.2634 0.09109 0.5737 0.0807 0.4732 0.1118 0.7114 0.1209 1.497 0.5381 2.109 0.1821 0.2337 0.3871-0.1843 0.5758-0.2626 0.8037-0.6519 1.538-1.424 2.121-2.266-0.3766 0.1751-0.6142 0.5861-0.9376 0.8537-0.3847 0.4104-0.8195 0.7931-1.327 1.038-0.07488-0.1886 0.3144-0.3698 0.4277-0.5515 0.4467-0.4455 0.8668-0.9402 1.145-1.509-0.156-0.1912-0.4049-0.4278 0.03542-0.3496 0.2814 0.03506 0.6322 0.1797 0.7132 0.4515 0.2692-0.3752 0.542-0.7634 0.7263-1.181-0.2339-2.52e-4 -0.4861 0.02237-0.571 0.2724-0.1923 0.2299-0.4271-0.1508-0.4732-0.3355-0.1161-0.4339-0.1106-0.9014-0.236-1.34-0.01814-0.3485-0.2178-0.6416-0.5411-0.7775-0.2535-0.2667 0.3187-0.106 0.4594-0.07658 0.6518 0.1305 1.311-0.09176 1.966-0.1253 0.1671-0.03316 0.5575-0.1205 0.3633 0.1708-0.1035 0.2579 0.3785 0.04246 0.5286 0.06851 0.629-0.06327 1.288-0.1408 1.906-0.06414 0.2687 0.2285 0.02118 0.6111 0.01697 0.9071-0.07858 0.1907-0.0202 0.5293-0.2006 0.6284-0.9886-0.01549-1.97 0.121-2.947 0.2392 0.2074-0.5348 0.5007-1.081 0.6327-1.63-0.5756 0.05227-1.172 0.1468-1.734 0.273 0.09536 0.4719 0.2154 1.001 0.2888 1.489 0.2315 0.02894 0.5357-0.1595 0.7496-0.05774-0.201 0.2466-0.1644 0.4159 0.1682 0.2884 0.2241-0.02977 0.4741-0.1591 0.6168 0.09231 0.3186 0.4669 0.07564 1.052 0.09089 1.573-0.05894 0.3917 0.02366 0.8342-0.1618 1.188-0.2777 0.2568-0.655-0.05844-0.9614-0.1253-0.1494-0.03866-0.6132-0.2838-0.5625-0.08484 0.3857 0.293 0.8583 0.4775 1.202 0.818 0.2106 0.1955 0.1691 0.6529 0.5271 0.6492 0.3459-0.395 0.5595-0.915 0.5253-1.445 0.1101-0.611 0.02884-1.255 0.06002-1.879 0.03931-0.2973-0.0015-0.6412-0.3072-0.7812-0.3247-0.1796 0.1747-0.1447 0.3077-0.1667 0.4841-0.02456 0.9679-0.06587 1.453-0.0564 0.1322 0.2516 0.4843 0.2511 0.5419-0.0519 0.1744-0.4465 0.3002-0.9099 0.4361-1.368 0.139-0.1578 0.4912-0.1504 0.5072-0.3744-0.299-0.2573-0.5523-0.7007-1.005-0.6207-0.8328 0.08776-1.673 0.1738-2.509 0.2518-0.1664-0.1726 0.08406-0.4559 0.08016-0.6754-0.01413-0.1799 0.2796-0.6739-0.06654-0.574-1.166 0.1158-2.337 0.2341-3.477 0.5149-0.4827-0.07399-0.8702-0.4595-1.096-0.876 0.196-0.1205 0.4325 0.1994 0.6589 0.2154 0.4408 0.1406 0.9284 0.07247 1.386 0.04201 0.8572-0.1104 1.718-0.1979 2.578-0.2963-0.02443-0.4453 0.03588-0.924-0.07532-1.347-0.1211-0.172-0.5151-0.07635-0.527-0.295 0.2862-0.05261 0.6425-0.04416 0.9231 0.08704-0.0077 0.6424-0.0744 1.282-0.1766 1.916 1.146-0.05911 2.297-0.06845 3.443-0.01768 0.5244 0.0072 1.064 0.1429 1.578 0.07119 0.1739-0.1656-0.1371-0.4045-0.2851-0.4968-0.2787-0.1729-0.588-0.4116-0.9201-0.3988-0.2796 0.1713-0.5767 0.2777-0.9086 0.2554-0.7809 0.05401-1.561 0.111-2.341 0.1691-0.1959-0.179-0.01564-0.4995-0.05004-0.7392 0.0049-0.1918 0.2977-0.3652 0.04484-0.5281-0.1357-0.1844-0.4968-0.1805-0.3895-0.488 0.0283-0.1715-0.1189-0.8008 0.172-0.5101 0.6209 0.6438 1.387 1.152 2.235 1.437 1.181 0.02381 2.367 0.06893 3.546 0.0012 0.1895 1.159 0.1501 2.353 0.08228 3.525-0.1496 1.409-0.4591 2.805-0.9686 4.128-0.1492-0.1197-0.2886-0.361-0.4734-0.499-0.5304-0.5977-1.325-0.8392-2.021-1.189-0.3561-0.1345-0.681-0.3657-1.054-0.442 0.0011 0.2143 0.3416 0.3202 0.459 0.5049 0.3968 0.4434 0.734 0.9236 1.089 1.4 0.2994 0.4044 0.5438 0.8608 0.8572 1.246 0.2262 0.108 0.5029-0.03884 0.7253-0.02956-1.13 2.544-2.987 4.745-5.236 6.376-0.5167 0.3594-1.048 0.738-1.616 0.9938zm-5.352-4.243c0.8759-0.2982 1.73-0.6781 2.593-0.995 0.1959-0.01466 0.5788-0.07668 0.4183-0.3569-0.2373-0.3348-0.5507-0.7588-1.017-0.6579-0.4061-0.0439 0.2626 0.2501 7e-3 0.4346-0.479 0.4227-1.058 0.7408-1.581 1.114-0.1231 0.1503-0.6126 0.2552-0.4671 0.4731l0.04387-0.01087zm-0.875-1.109c0.6897-0.2126 1.377-0.4849 2.002-0.8472-0.6723-0.0033-1.345-0.0044-2.017-9e-3 0.01389 0.2745-0.04033 0.6239 0.01531 0.8562zm-3.235 0.5588c-0.3776 0.1076-0.1926-0.3717-0.246-0.5858 0.03102-0.1716-0.2394-0.7048 0.06357-0.5609 0.2313 0.3164 0.3564 0.7133 0.4495 1.095-0.05791 0.09434-0.1763 0.0352-0.267 0.05143zm-2.077-1.154c-0.3716-0.1148-0.526-0.6326-0.4361-0.9914 0.2017-0.7611 0.1455-1.552 0.2033-2.327-7e-3 -0.3208 0.0552-0.7103 0.0078-0.9899-0.671 0.6904-1.342 1.391-2.133 1.947-0.2815-0.01661 0.1139-0.3228 0.188-0.4234 0.897-1.009 1.793-2.039 2.489-3.199 0.188-0.2803 0.2387-0.672-0.05178-0.9036-0.2753-0.2132 0.1584-0.1884 0.2835-0.06739 0.3853 0.2227 0.7824 0.508 1.005 0.89-0.2666 0.5893-0.815 0.9961-1.244 1.469-0.01184 1.435-0.0032 2.871-0.0681 4.304-0.05762 0.1029-0.09553 0.3023-0.2438 0.2914zm1.266-7.223c-0.3669-0.07689-0.4383-0.5622-0.5566-0.8693-0.04767-0.2864-0.1041-0.5837-0.4605-0.4386-0.5911 0.07269-1.18 0.159-1.76 0.2984-0.3787-0.189-0.7674-0.4312-1.028-0.7654 0.147-0.1289 0.4234 0.1431 0.6297 0.1402 0.6693 0.1563 1.348-0.0816 2.022-0.1136 0.2576 0.01605 0.4533-0.06278 0.323-0.3483-0.06059-0.4101-0.1754-0.8627-0.5925-1.049-0.3075-0.07054-0.2675-0.4333 0.05914-0.3391 0.3479 0.05608 0.7869 0.0941 1.007 0.3962 0.05773 0.4075 0.04367 0.8445 0.2092 1.23 1.103-0.09954 2.203-0.2197 3.304-0.3368 0.05623-0.4639 0.3543-0.9071 0.2443-1.376-0.03842-0.1981-0.4967-0.3584-0.2185-0.53 0.3728-0.02328 0.6745 0.2636 0.965 0.4361 1.38-1.042 2.851-2.049 3.844-3.494 0.3063-0.3065-0.0967-0.1953-0.3022-0.1588-0.392 0.05957-0.7846 0.1149-1.176 0.1751-0.1006 0.1819-0.2994 0.5842-0.536 0.3465-0.4441-0.34-0.3139-0.9362-0.4019-1.42-0.104-0.8152-0.1745-1.665-0.4985-2.424-0.1252-0.2041-0.3876-0.3478-0.4426-0.5731 0.4043-0.1131 0.8107 0.1988 1.227 0.1271 0.9855-0.02028 1.968-0.1464 2.946-0.2761 0.123-0.1818-0.02068-0.5228 0.07128-0.7428 0.1786-0.186 0.3595 0.2751 0.5209 0.3718 0.1867 0.1071 0.06575-0.4067 0.1167-0.5479-0.1153-0.4045 0.3037-0.2599 0.5545-0.288 0.8747-0.00602 1.749-0.06308 2.622 5.787e-4 0.2692 0.03847 0.6026-0.07609 0.828 0.06704 2.175 2.041 3.778 4.693 4.526 7.584 0.1424 0.5067 0.2434 1.024 0.3301 1.542-0.1636 0.156-0.4353-0.05227-0.6459-0.03195-1.067-0.1014-2.141-0.2749-3.115-0.7442-0.7865-0.3381-1.524-0.8325-2.245-1.253 7.75e-4 0.2745 0.1029 0.5977 0.05372 0.8637-0.4032-0.3044-0.7844-0.7435-1.177-1.102-0.5945-0.5613-1.166-1.17-1.769-1.708-0.05409 0.407-0.01095 0.9116-0.02771 1.356-0.0139 1.118 0.01055 2.242-0.02732 3.355-0.04588 0.2109-0.2523 0.5744-0.5028 0.378-0.243-0.4598-0.4326-1.025-0.1799-1.521 0.08339-1.082 0.03711-2.169 0.06213-3.253-0.326 0.2692-0.615 0.6429-0.9407 0.9393-1.032 1.046-2.265 1.877-3.56 2.558 0.2422 0.1648 0.2803 0.5155 0.01351 0.6811-0.187 0.2077-0.4527 0.3716-0.5289 0.6527 0.477-0.02075 0.9784-0.02227 1.434-0.1392 0.2-0.1443 0.3695-0.5221 0.6464-0.285 0.3277 0.169 0.6398 0.4112 0.8751 0.6837 0.1619 0.2557-0.1575 0.4415-0.3866 0.3702-0.9204-0.1308-1.854-0.1384-2.781-0.1027-0.2309 0.5193-0.476 1.042-0.7578 1.532-0.2416 0.1662-0.2538-0.2941-0.154-0.4384 0.08986-0.3769 0.2243-0.7733 0.301-1.134-0.9958 0.03971-2.008 0.1962-3.007 0.3081-0.1197 0.1436 0.09102 0.4938 0.09307 0.7182 0.03185 0.2187 0.2175 0.5572-0.0488 0.6915zm12.31-5.471c0.04932-0.1982-0.06643-0.5055-0.09686-0.7396-0.09287-0.5118-0.2748-1.029-0.4109-1.511 0.265-0.1441 0.2764 0.34 0.5456 0.3124 0.4284-0.0221 0.4422-0.5707 0.5678-0.8818 0.2341-0.6875 0.4502-1.382 0.6615-2.075 0.2252-0.2461 0.5622-0.3852 0.7202-0.6903-0.354-0.2945-0.7541-0.5383-1.138-0.7934-0.3263-0.2488-0.7163 0.05843-1.067 0.09641-0.8059 0.1375-1.623 0.2045-2.434 0.3111 0.05329 0.1358 0.5065 0.4431 0.1637 0.4441-0.3187-0.03939-0.4289 0.1459-0.355 0.4424 0.03171 0.2534-0.0546 0.6308 0.05174 0.8059 0.4084 0.00646 0.8279-0.1402 1.215-0.1622 0.08656 0.1399 0.4599 0.5339 0.05594 0.4754-0.437 0.0555-0.9134 0.04876-1.325 0.1484-0.03985 0.4339-0.0059 0.8893-0.01758 1.331 0.5424-0.00666 1.096-0.1618 1.649-0.1418 0.2249-0.03068 0.5808-0.2385 0.6029 0.1328 0.2456 0.3511-0.2549 0.2345-0.4586 0.2827-0.502 0.06259-1.044 0.05456-1.522 0.1386 0.8246 0.7311 1.682 1.487 2.593 2.074zm-0.1876-2.702c-0.2014-0.08971-0.5631 0.06658-0.6018-0.2337-0.1409-0.3561-0.3471-0.7298-0.4944-1.045 0.4474-0.07381 0.9198-0.09424 1.375-0.1661 0.1217 0.2048-0.0627 0.5134-0.07086 0.7595-0.0624 0.2238-0.06484 0.5013-0.1896 0.6871zm-1.327-1.775c-0.1831-0.06599-0.2549-0.3722-0.4018-0.527-0.05071-0.1774-0.5033-0.4823-0.2817-0.5669 0.8107-0.09879 1.619-0.2354 2.437-0.2467 0.2188 0.1745 0.02252 0.4955 0.04378 0.7389-0.0531 0.2358 0.05963 0.697-0.3246 0.5234-0.3122-0.00908-0.6307-0.2327-0.9293-0.1455-0.173 0.09167-0.3564 0.166-0.543 0.2237zm-4.174 2.313c0.7444-0.02355 1.483-0.1331 2.22-0.2382 0.0032-0.4553 0.0063-0.9106 0.0095-1.366-0.8581 0.06686-1.726 0.2984-2.585 0.1685-0.3032-0.1629-0.1422 0.3133-0.1318 0.4672 0.04347 0.3302 0.1099 0.6565 0.197 0.9779 0.09701-0.00318 0.194-0.00636 0.291-0.00954zm-0.4611-1.753c0.8985-0.04258 1.791-0.1611 2.681-0.289 0.0032-0.3992 0.0063-0.7984 0.0095-1.198-1.03 0.1061-2.07 0.2095-3.097 0.3036 0.05044 0.3059 0.1753 0.6775 0.2348 1.014 0.02311 0.1163 0.0176 0.2212 0.1717 0.1686zm3.394-2.046c0.2298-0.1508-0.3167-0.2225-0.02786 0.00509zm-17.16 10.91c-0.0935-0.2744-0.1206-0.627-0.1415-0.9334 0.06769-1.316 0.434-2.707 1.356-3.674 0.616-0.6335 1.555-1.04 2.432-0.8017 0.8117 0.2753 1.017 1.323 0.721 2.048-0.2556 0.836-1.118 1.186-1.8 1.61-0.7871 0.4733-1.663 0.811-2.301 1.496-0.0954 0.07466-0.1698 0.1901-0.267 0.2538zm7.263-3.247c-0.8026 0.0013-1.735-0.1811-2.174-0.9289-0.3904-0.553-0.1204-1.302 0.3777-1.688 0.4448-0.428 1.102-0.4968 1.683-0.6108 0.9519-0.08128 1.905 0.07591 2.804 0.3886 0.4215 0.1496 0.8795 0.2935 1.261 0.4953-0.7094 0.2658-1.248 0.8805-1.794 1.403-0.5863 0.5283-1.338 0.9993-2.158 0.9408zm-3.245-2.359c-0.3542 0.02712-0.3829-0.5574-0.03797-0.5705 0.315-0.07278 0.4681 0.4357 0.1482 0.5444-0.03247 0.02912-0.07016 0.02841-0.1103 0.02612zm0.8276-0.2163c-0.3031 0.0045-0.4385-0.4591-0.1385-0.5925 0.3163-0.2055 0.6686 0.3308 0.3332 0.5341-0.06351 0.03089-0.1195 0.07541-0.1947 0.05843zm-0.5982-0.7217c-0.3623 0.01958-0.4307-0.5685-0.0689-0.6212 0.3517-0.1005 0.5421 0.4515 0.2036 0.5884-0.0409 0.033-0.08434 0.03838-0.1347 0.03272zm2.019-0.1702c-0.7239 0.02724-1.396-0.6876-1.325-1.416 0.04661-0.5995 0.3411-1.196 0.8565-1.527 1.02-0.8218 2.396-1.028 3.668-0.9402-0.09032 0.2211-0.3963 0.3595-0.5204 0.5939-0.5655 0.8519-0.7402 1.908-1.36 2.732-0.2617 0.4669-0.8373 0.5319-1.319 0.5573z"/></svg>