<svg version="1.1" viewBox="0 0 32 32" xmlns="http://www.w3.org/2000/svg"><path d="m16.21 32c-1.265 0.017-2.54-0.1144-3.771-0.4038-1.091-0.2414-2.145-0.6082-3.161-1.073-2.263-1.051-4.273-2.657-5.793-4.622-0.7086-0.9022-1.35-1.929-1.857-2.993-0.524-1.045-0.8872-2.171-1.17-3.296-0.0809-0.429-0.1945-0.845-0.222-1.281-0.065-0.2101-0.0717-0.4519-0.1118-0.6926-0.2117-2.056-0.017-4.151 0.5513-6.136 0.3558-1.198 0.8301-2.342 1.45-3.431 0.2436-0.4102 0.4833-0.8388 0.7702-1.198 0.031-0.1386 0.2201-0.2847 0.2742-0.4208 0.3099-0.3754 0.5855-0.783 0.9324-1.117 0.2766-0.3747 0.7089-0.7289 1.046-1.093 0.6244-0.5694 1.277-1.106 1.966-1.56 0.4458-0.308 0.9294-0.5872 1.411-0.8476 0.3388-0.183 0.7386-0.3618 1.039-0.5046 0.8436-0.3527 1.697-0.6483 2.581-0.864 1.579-0.3741 3.232-0.5414 4.861-0.4283 1.646 0.0968 3.281 0.4546 4.811 1.046 1.078 0.4278 2.145 0.9669 3.08 1.625 0.237 0.1699 0.4493 0.2854 0.6498 0.489-0.1491 0.1125-0.4167 0.098-0.5773 0.1716-0.2124 0.0479-0.425 0.13-0.6756 0.1822-0.2472 0.0557-0.4528 0.1577-0.685 0.1617-0.127 0.0929-0.4679 0.1702-0.5173 4e-3 0.0368-0.3536 0.2492-0.7034 0.199-1.054-0.1451-0.3182-0.5124-0.4789-0.8253-0.572-0.1642-0.047-0.3871-0.0957-0.5843-0.0851-0.2608 0.0954 0.3308 0.2935 0.3226 0.5158 0.1218 0.4144 0.0736 0.8507 0.105 1.277-0.1393 0.0969-0.6823 0.0897-0.4031 0.332 0.2928 0.2205-0.1836 0.1836-0.3295 0.2634-0.6582 0.1681-1.413 0.3474-2.044 0.025-0.186-0.0823-0.4756-0.2627-0.5569-0.4165 0.871-0.0185 1.76 5e-3 2.62-0.0395-0.1306-0.2001-0.3846-0.3406-0.5288-0.4961-0.6587-0.5359-1.426-1.015-2.219-1.372-0.7528-0.3551-1.558-0.6048-2.36-0.7898-0.736-0.1597-1.54-0.2577-2.312-0.272-1.347-0.0327-2.723 0.1378-3.997 0.5451-0.3975 0.1296-0.8372 0.2767-1.24 0.464-0.2374 0.0821-0.5781 0.2856-0.8607 0.4224-0.9511 0.5458-1.869 1.2-2.6 2.028 0.0559 0.1292 0.5052 0.019 0.7138 0.0553 0.975 4e-3 1.935 0.3512 2.705 0.9474 0.4397 0.3089 0.8509 0.6588 1.222 1.047 0.051 0.1662 0.1694 0.2945 0.2114 0.4992 0.1375 0.5905 0.0835 1.346-0.4834 1.699-0.4161 0.3179-0.9777 0.3382-1.467 0.2116-0.3636-0.12-0.6362-0.4477-0.8959-0.7554-0.6661-0.9315-1.25-1.928-2.083-2.727-0.1716-0.2086-0.4907-0.4922-0.7315-0.2204-0.2584 0.2602-0.4487 0.5433-0.6438 0.8423-0.1172 0.1393-0.2276 0.3544-0.3562 0.532-0.5433 0.8672-1.024 1.798-1.29 2.797 0.0585 0.2031 0.3919-0.0907 0.5645-0.0892 1.142-0.3805 2.359-0.6489 3.569-0.5308 0.9185 0.1052 1.82 0.416 2.583 0.9432-0.1056 0.1452-0.412 0.1602-0.55 0.2885-0.1655 0.0487-0.3877 0.2074-0.5452 0.3134-0.7904 0.5064-1.399 1.241-2.182 1.772-0.5093 0.3754-1.098-0.0603-1.58-0.2704-0.5515-0.256-1.116-0.4944-1.675-0.7149-0.1189-0.104-0.3908-0.0794-0.5734-0.152-0.1447 0.3886-0.0992 0.8345-0.1749 1.245-0.0616 1.168-0.0213 2.344 0.235 3.489 0.2651 1.314 0.7822 2.55 1.483 3.696 0.1091 0.1954 0.2612 0.3883 0.3931 0.5895 0.1574 0.2171 0.3796 0.5326 0.5865 0.7726 0.8958 1.092 1.95 2.042 3.158 2.768 0.4206 0.2331 0.9302 0.5266 1.42 0.7149 1.505 0.6502 3.137 0.9212 4.769 0.995 0.2125 0.0364 0.0202 0.4417 0.0465 0.6217-0.0565 0.2925-0.1174 0.6376 0.1547 0.8374 0.1197 0.2478 0.431-0.0685 0.4765-0.2346 0.0793-0.4054 9e-3 -0.8236 0.0896-1.226 0.694-0.15 1.406-0.2282 2.111-0.3158 0.1117 0.0991-0.0394 0.4791-0.0199 0.6863-0.1287 1.009-0.4595 2.004-0.9997 2.856-0.3706 0.5482-0.8337 1.06-1.354 1.483-0.2201 0.1528-0.408 0.3289-0.6461 0.4485-0.1624 0.1288-0.3662 0.2256-0.549 0.3203-0.255 0.0182-0.2425 0.3646 0.0329 0.2259 0.2878-0.1156 0.5914-0.2942 0.8456-0.3804 0.6648-0.3247 1.262-0.835 1.763-1.402 0.4636-0.5062 0.8199-1.148 1.104-1.81 0.112-0.1243 0.1513-0.5772 0.3167-0.449 0.658 0.7453 1.3 1.55 1.982 2.301 0.3689 0.4859 0.8351 0.9707 1.222 1.448 0.107 0.174 0.3712 0.3333 0.4176 0.5441-0.1996 0.0913-0.3276 0.0822-0.486 0.1755-1.248 0.3498-2.53 0.5917-3.831 0.6149-0.1089 2e-3 -0.2178 4e-3 -0.3267 6e-3zm7.254-2.052c-0.5869 3e-3 -1.138-0.2556-1.714-0.3469-0.7178-0.2096-1.466-0.471-2.056-0.9077-0.8704-0.6868-1.643-1.497-2.365-2.336 0.0107-0.5345-5e-3 -1.07 0.0549-1.603-0.1407-0.1671-0.5296 0.1849-0.5378-0.0973 0.1708-0.4881-0.0418-1.099-0.5618-1.258-0.2649-0.0595-0.5482-0.2402-0.6018-0.5568-0.0897-0.8112-0.0162-1.635-0.0403-2.452-5e-3 -0.8502 4e-3 -1.707-0.068-2.552-0.0319-0.2421-0.1626-0.4648-0.1507-0.7125 0.4813-0.0545 1.047 0.2101 1.215 0.6617 0.0815 0.2988-0.3721 0.396-0.3708 0.693-0.1173 0.3176-0.0315 0.6669-0.0584 0.9986 0.2536 0.0217 0.4856-0.2322 0.7192-0.3433 0.5231-0.3145 1.028-0.6325 1.492-1.025 0.2624-0.2028 0.362-0.556 0.2074-0.8511 0.1146-0.05 0.3155 0.145 0.4851 0.211 0.2458 0.1832 0.6262 0.3295 0.6206 0.6372-0.1477 0.3466-0.5596 0.3573-0.859 0.5451-0.3276 0.1467-0.7005 0.3239-0.9946 0.4627-0.466 0.2187-1.016 0.4491-1.511 0.6873-0.2598 0.1608-0.2067 0.4976-0.1857 0.7912 0.0245 0.714-7e-3 1.437 0.0526 2.145 0.0798 0.2735 0.448 0.4067 0.6838 0.3349-0.0197-0.3478-0.2002-0.7029-0.2248-1.065 0.3807 0.1343 0.7727 0.3267 1.111 0.515-0.0869 0.258-0.294 0.5063-0.3519 0.7562 0.1911 0.0465 0.5057-0.0291 0.7459-0.0208 0.5031-0.0543 1.049 0.0122 1.52-0.1783 0.1876-0.1568 0.2349-0.3354 0.3206-0.5143 0.0891-0.6659 0.1611-1.334 0.2031-2.005 0.1889 0.1216 0.1071 0.5092 0.1828 0.7391 0.0687 0.5732 0.2148 1.161 0.5781 1.622 0.293-0.1543 0.5167-0.4804 0.7832-0.7002 0.5824-0.5729 1.166-1.144 1.75-1.716-0.1522-0.2378-0.3641 0.1975-0.5288 0.2714-0.5174 0.4425-1.022 0.8992-1.541 1.34-0.223-0.1375 0.1919-0.3647 0.2716-0.5159 0.5246-0.4887 1.072-1.026 1.153-1.778 0.0521-0.1341 0.4052 0.1069 0.5159 0.1268 0.1587 0.095 0.4098 0.1947 0.4842-0.0895 0.1028-0.1896 0.2298-0.3458 0.3017-0.4857 0.1123-0.163 0.3795-0.5008-0.012-0.379-0.2538 0.0598-0.5946 0.3732-0.7902 0.0575-0.1683-0.516-0.0997-1.085-0.3611-1.577-0.0707-0.2349-0.2316-0.4472-0.2613-0.6899 0.7492-0.0612 1.5-0.1013 2.25-0.1593 0.4424 0.398 1.053 0.2093 1.588 0.2322 0.393 0.0148 0.7899-0.077 1.179-0.012 0.2651 0.2403 1e-5 0.6142-0.01 0.9115-0.0729 0.2057-4e-3 0.5699-0.3188 0.5348-0.9064 0.0651-1.809 0.1712-2.716 0.2328 0.0808-0.3537 0.2465-0.6576 0.3677-0.9964 0.0582-0.2009 0.1984-0.3911 0.1908-0.6086-0.5636 0.0646-1.135 0.141-1.689 0.2357-0.0882 0.3094 0.0875 0.6844 0.1101 1.017 0.057 0.2125 5e-3 0.6178 0.3149 0.4733 0.2699-0.0393 0.5512 7e-3 0.4753 0.3055 0.3175 0.0797 0.7786-0.1139 0.9606 0.2634 0.1665 0.5578-0.0233 1.158-0.0462 1.732-0.0687 0.3012 0.0442 0.6959-0.2502 0.8928-0.4434 0.053-0.8953-0.2819-1.3-0.2281 0.1548 0.202 0.4571 0.2852 0.6378 0.4738 0.3275 0.2459 0.5559 0.6162 0.8459 0.901 0.2098 0.1114 0.3574-0.2036 0.4409-0.3032 0.3325-0.6122 0.2924-1.334 0.3356-2.008 2e-3 -0.5309 0.0413-1.079-0.1717-1.575-0.2109-0.3235 0.0669-0.3489 0.3499-0.2972 0.5024-2e-3 1.022 0.0729 1.514 0.015 0.4462-0.1421 0.4501-0.6988 0.6009-1.069 0.0691-0.3178 0.2859-0.5628 0.5437-0.7261 0.1036-0.2145-0.252-0.4047-0.3841-0.553-0.5781-0.3549-1.252-0.0452-1.875-0.0352-0.3851 0.0301-0.7999 0.0853-1.169 0.0822-6e-3 -0.4051 0.1403-0.8619 0.1448-1.274-1.096 0.1133-2.211 0.324-3.315 0.4705-0.5574 0.1741-1.055-0.2477-1.316-0.7047 0.1507-0.0888 0.4251 0.1313 0.6245 0.1592 0.9821 0.116 1.976-0.0745 2.959-0.1459 0.3147-0.0938 0.6735 0.0148 0.9552-0.1743 0.2628-0.5321-0.0123-1.18-0.4674-1.511 0.1611-0.1106 0.5232-0.0235 0.7609-0.0588 0.1257-0.1328-0.0457-0.566 0.1011-0.6762 0.6744 0.4623 1.338 0.9617 2.077 1.322 0.6082 0.1975 1.259 0.0642 1.888 0.1029h1.882c0.1252 0.7342 0.1072 1.494 0.1329 2.238-0.0277 0.8681-0.0881 1.737-0.2322 2.592-0.1896 0.9385-0.4286 1.889-0.792 2.785-0.2379-0.215-0.4566-0.5123-0.7436-0.7011-0.1636-0.139-0.2432-0.1717-0.3948-0.2816-0.6926-0.4385-1.486-0.712-2.222-1.077-9e-3 0.1842 0.2259 0.3438 0.3059 0.5222 0.2259 0.3184 0.4349 0.5732 0.6537 0.9114 0.3459 0.4689 0.7106 0.96 1.062 1.419 0.1682 0.3084 0.5942 0.2599 0.8095 0.4756-0.3586 0.6724-0.6996 1.323-1.124 1.939-0.1076 0.1994-0.2756 0.3874-0.4054 0.6006-0.1338 0.1333-0.2018 0.3132-0.3584 0.4612-0.4026 0.5036-0.8175 1.028-1.29 1.455-0.1194 0.1512-0.2417 0.2612-0.3984 0.4036-0.5934 0.5442-1.204 1.057-1.884 1.493-0.1356 0.1263-0.4046 0.272-0.5961 0.3987-0.2696 0.1683-0.5706 0.3236-0.896 0.2812zm-5.131-4.173c0.5993-0.2088 1.203-0.4558 1.805-0.6879 0.2434-0.0845 0.5136-0.1705 0.7641-0.2948 0.1401-0.0741 0.5478-0.0892 0.4498-0.3045-0.173-0.3428-0.4345-0.739-0.8598-0.7514-0.241 0.2347-0.3003 0.61-0.5957 0.8083-0.1892 0.1222-0.3794 0.2462-0.5304 0.324-0.2053 0.1614-0.416 0.284-0.6006 0.415-0.1509 0.1037-0.2996 0.2278-0.4791 0.3366 0.0159 0.0526-0.0731 0.1998 0.0469 0.1547zm-0.8966-1.13c0.2361-0.0557 0.5138-0.2045 0.7824-0.2674 0.3483-0.1556 0.7465-0.2615 1.077-0.414 0.066-0.27-0.417-0.1116-0.5901-0.1508-0.4347 3e-3 -0.8694 6e-3 -1.304 9e-3 -4e-3 0.2743-9e-3 0.5487-0.0135 0.823h0.0452zm12.77-9.287c0.1919-0.0353 0.7617 0.1277 0.526-0.2201-0.2912-0.3442-0.6889-0.6659-1.146-0.7096-1.097 0.2628-2.221 0.3833-3.349 0.3958-0.0543-0.3565 0.116-0.6914 0.1634-1.028-0.0114-0.221-0.2429-0.4048-0.452-0.4031-0.0515 0.6061-0.1751 1.204-0.2092 1.811 0.768 0.0967 1.555 0.0614 2.331 0.0943 0.6792 4e-3 1.353 0.0362 2.017 0.0601h0.1185zm-15.86 9.776c-0.2994 0.0507-0.3526-0.2551-0.3051-0.4835-0.0512-0.2056 0.0789-0.6495 0.1549-0.2207 0.0742 0.231 0.246 0.4755 0.2409 0.7064-0.0302-7.4e-4 -0.0605-1e-3 -0.0907-2e-3zm-2.208-1.177c-0.2961-0.1628-0.4145-0.5026-0.3788-0.8317 0.0755-1.116 0.2031-2.228 0.2779-3.345-0.1927 0.0125-0.2955 0.233-0.4654 0.3486-0.5611 0.5026-1.123 1.004-1.675 1.516-0.2657-0.0111 0.1143-0.2804 0.1538-0.4016 0.5717-0.6664 1.158-1.408 1.728-2.114 0.3045-0.4695 0.7295-0.8974 0.8832-1.442 0.1009-0.2787-0.2159-0.4652-0.2233-0.6957 0.2389-0.0177 0.3953 0.2761 0.5991 0.3846 0.2076 0.1474 0.3576 0.299 0.5652 0.4752 0.0891 0.3569-0.2047 0.6803-0.482 0.8477-0.204 0.142-0.3272 0.3524-0.4495 0.5618-0.3855 0.8049-0.2023 1.738-0.2447 2.603-0.0273 0.5825-0.015 1.177-0.076 1.752-0.0711 0.1068-0.0909 0.2861-0.2119 0.34zm1.34-7.175c-0.2123-0.0563-0.3796-0.3101-0.4394-0.4653-0.129-0.2272-0.1391-0.6488-0.3497-0.8482-0.5363 0.0261-1.095 0.0711-1.619 0.2264-0.4927 0.1363-0.9952-0.1732-1.274-0.552 0.227-0.0702 0.5827-0.0124 0.8591-0.0334 0.6595-3e-3 1.319-6e-3 1.978-9e-3 0.0347-0.5786-0.1475-1.23-0.6811-1.531-0.3723-0.1876 0.1142-0.234 0.3192-0.175 0.3734 0.0214 0.6802 0.2689 0.7957 0.6251 0.1809 0.2955-0.0712 0.797 0.3371 0.9344 0.7931-0.0141 1.603-0.1624 2.402-0.2277 0.2728-0.0661 0.6683 0.0265 0.8438-0.2154 0.2554-0.3398 0.2433-0.8607 0.1244-1.27-0.1277-0.1959-0.3432-0.5445 0.0756-0.4488 0.2947-0.0167 0.4885 0.3097 0.7628 0.355 0.6368-0.4626 1.275-0.9383 1.866-1.429 0.7429-0.6049 1.425-1.317 1.941-2.116 0.023-0.2318-0.4477 0.0289-0.6388-0.043-0.2845-0.0134-0.516 0.0113-0.7643 0.139-0.1943 0.1458-0.3328 0.3672-0.6026 0.2491-0.4417-0.6376-0.3783-1.479-0.5137-2.221-0.0683-0.6771-0.2736-1.282-0.5783-1.885-0.2096-0.3318 0.2219-0.1664 0.3996-0.1515 1.092 0.0915 2.187-0.0693 3.272-0.1857 0.348-0.158 0.3404-0.5579 0.3372-0.8819 0.2016 0.1085 0.3783 0.3181 0.5687 0.4687 0.1039-0.2601 0.0785-0.5619 0.1426-0.8372 1.161 0.0137 2.325-0.0267 3.483 0.0205 0.6143-6e-3 0.9473 0.5703 1.312 0.9729 0.6464 0.7719 1.3 1.559 1.825 2.433 0.238 0.4167 0.4664 0.7895 0.6716 1.216 0.1255 0.2848 0.3083 0.6155 0.4194 0.9345 0.4434 1.053 0.7832 2.168 0.9736 3.287-0.0201 0.2028 0.1904 0.6019-0.1669 0.4534-0.632-0.1462-1.27-0.2354-1.901-0.3745-0.1468-0.0731-0.3836-0.0638-0.5271-0.1474-1.115-0.2845-2.107-0.9154-3.126-1.428-0.3008-0.1408-0.1164 0.4039-0.1672 0.5749-0.1879 0.2467-0.328-0.1907-0.4862-0.2789-0.7619-0.8133-1.519-1.632-2.29-2.435-0.3241 3e-3 -0.114 0.4502-0.1744 0.6726-0.0245 1.272 0.055 2.547-0.0426 3.816-0.0593 0.264-0.1548 0.5287-0.2444 0.7769-0.2406-0.2226-0.3837-0.4891-0.4448-0.7769-0.1134-0.5964 0.0496-1.204 0.0449-1.807 0.0528-0.7458 0.0715-1.501 0.0362-2.244-0.1547 0.0355-0.371 0.3515-0.5562 0.4883-0.5455 0.5323-1.161 1.024-1.739 1.49-0.5202 0.359-1.086 0.7705-1.683 1.059-0.13 0.1262-0.4213 0.159-0.4876 0.3019 0.1751 0.2461 0.1405 0.5736-0.0897 0.7715-0.1554 0.1969-0.408 0.3706-0.3974 0.646 0.4984-0.105 1.039-6e-3 1.503-0.2522 0.0762-0.1747 0.3518-0.2627 0.5588-0.159 0.2911 0.2051 0.5135 0.5096 0.7508 0.7787-0.6177 0.1874-1.297 0.0948-1.94 0.112-0.3338 0.0213-0.692-0.0508-1.011 0.0265-0.4004 0.2714-0.516 0.7966-0.765 1.205-0.0273 0.3272-0.4462 0.4065-0.2656 0.0197 0.0757-0.4289 0.2242-0.8712 0.27-1.288-0.3778-0.0457-0.8252 0.0447-1.229 0.0571-0.551 0.0779-1.143 0.0543-1.653 0.2892-0.2218 0.2885 7e-3 0.6824-9e-3 1.019-0.019 0.0775 0.0686 0.2878-0.0149 0.2971zm12.2-5.429c0.2966-0.0994-5e-3 -0.4734-3.2e-4 -0.6999-0.0973-0.481-0.2669-0.9521-0.328-1.437 0.1666-2e-3 0.3061 0.2264 0.5168 0.1965 0.3245 0.0335 0.3708-0.4268 0.4659-0.5928 0.1291-0.486 0.3383-0.9495 0.4515-1.446 0.154-0.574 0.426-1.124 0.9-1.499 0.1055-0.2441-0.2846-0.3019-0.4086-0.461-0.371-0.2757-0.8092-0.6027-1.303-0.4589-0.9256 0.1293-1.84 0.2942-2.76 0.4341 0.0582 0.2395 0.2759 0.4318-0.0995 0.4684-0.4093 0.1911-0.2037 0.7307-0.1974 1.082-0.0236 0.3278 0.3543 0.1287 0.5427 0.1134 0.2334-0.0562 0.4728-0.089 0.6986-0.1735 0.0629 0.1549 0.4001 0.451 0.1327 0.5144-0.4423 0.0263-0.8812 0.0923-1.324 0.1093-0.1116 0.3306-9e-3 0.7137-0.0385 1.065-0.097 0.3559 0.1265 0.3898 0.421 0.3084 0.5539-0.0746 1.127-0.1161 1.667-0.2244-0.0808-0.3617-0.3353-0.7404-0.4586-1.118-0.1261-0.2536 0.4273-0.1194 0.6055-0.194 0.2156 0.0116 0.6368-0.1236 0.7169 0.026-0.0853 0.4181-0.1403 0.8681-0.2641 1.261-0.1737 0.0263-0.6003-0.0593-0.5218 0.2039 0.1839 0.3204-0.1361 0.3037-0.3689 0.3133-0.4869 0.0459-0.9764 0.0648-1.461 0.1284-0.1356 0.2303 0.3135 0.3503 0.4377 0.518 0.2792 0.2226 0.5398 0.405 0.8027 0.6542 0.1726 0.1039 0.3955 0.3219 0.5964 0.466 0.1951 0.1398 0.3743 0.3336 0.5796 0.4427zm-1.458-4.488c-0.1918-0.061-0.2533-0.3907-0.4006-0.5508-0.0619-0.1594-0.4647-0.5213-0.1167-0.5232 0.7183-0.0633 1.433-0.1726 2.153-0.2106 0.3183 0.1785 0.1345 0.5648 0.1677 0.8613 0.0682 0.3234-0.1113 0.4415-0.4014 0.3144-0.4503-0.0544-0.9147-0.0756-1.353 0.0583 5.2e-4 0.0385 0.01 0.053-0.0491 0.0507zm-3.955 2.313c0.5774-0.0131 1.157-0.0687 1.724-0.1553 0.3015-0.067 0.3651-0.378 0.3312-0.6449-0.0255-0.2597 0.0833-0.5515-0.0443-0.7869-0.8017 0.1108-1.62 0.1209-2.428 0.1964-0.3857-0.1036-0.2684 0.26-0.2754 0.5081 0.0817 0.2762 0.0264 0.6838 0.3246 0.8108 0.0822 0.1 0.2529 0.0754 0.3684 0.0717zm-0.4273-1.73c0.8154-0.0602 1.632-0.1539 2.443-0.2714-4e-3 -0.4132-9e-3 -0.8264-0.0131-1.24-1.02 0.0735-2.035 0.2161-3.055 0.2891-0.0173 0.3049 0.0963 0.6286 0.1858 0.9222 0.0611 0.1946 0.2233 0.3438 0.4393 0.2996zm-14.02 8.746c-0.0988-0.3875-0.074-0.8801-0.0408-1.311 0.0434-0.8244 0.2564-1.682 0.6852-2.374 0.292-0.5173 0.7435-1.039 1.268-1.375 0.3629-0.1831 0.6995-0.3159 1.114-0.286 0.6926-0.1236 1.444 0.4254 1.457 1.146 0.0911 0.8587-0.4415 1.719-1.198 2.085-0.4767 0.2816-0.9475 0.5624-1.417 0.8384-0.2606 0.1722-0.6299 0.3856-0.9313 0.5753-0.1799 0.0787-0.2847 0.1978-0.4664 0.2917-0.1572 0.1312-0.2963 0.3148-0.4705 0.4105zm7.178-3.197c-0.4998-8e-3 -1.047-0.0781-1.466-0.3405-0.3987-0.2394-0.8152-0.6993-0.7339-1.222-0.0262-0.2377 0.1005-0.4551 0.1811-0.6082 0.2571-0.4599 0.7261-0.7289 1.222-0.8367 1.448-0.4119 2.987-0.0529 4.346 0.5054 0.2884 0.0486 0.4344 0.2128 0.1075 0.3653-0.5171 0.4426-1.066 0.851-1.529 1.354-0.1678 0.0775-0.3757 0.2927-0.5892 0.3894-0.4719 0.2466-1.005 0.4092-1.54 0.3933zm-2.316-2.601c-0.2796-0.0548-0.2808-0.4367 3e-3 -0.5032 0.1513-0.0692 0.532 0.2348 0.3429 0.3026-0.1151 0.0584-0.2194 0.1846-0.3459 0.2006zm-0.5867-0.6388c-0.1491-0.1216-0.419-0.3887-0.1303-0.531 0.1462-0.161 0.4089 0.0944 0.3996 0.2567-0.0924 0.0824-0.1669 0.2154-0.2693 0.2742zm2.222-0.2329c-0.6323 0.1077-1.327-0.2832-1.449-0.935-0.2251-0.7305 0.1814-1.5 0.7698-1.931 0.492-0.4088 1.102-0.7037 1.701-0.8233 0.5506-0.1526 1.128-0.144 1.695-0.1318 0.028 0.2441-0.2172 0.4725-0.2949 0.7128-0.2619 0.4977-0.4909 1.024-0.7732 1.504-0.0282 0.1314-0.2198 0.4432-0.317 0.6453-0.1257 0.1899-0.1698 0.352-0.3353 0.5492-0.2358 0.3086-0.616 0.4376-0.9958 0.4095z" stroke-width=".025"/></svg>
