<svg version="1.1" viewBox="0 0 100 100" xmlns="http://www.w3.org/2000/svg"><path d="m50.17 86.08c-7.939 0.1002-15.87-2.576-22.15-7.424-7.231-5.503-12.24-13.82-13.68-22.8-0.5494-2.934-0.2511-5.929-0.3276-8.894 0.7305-9.834 5.827-19.2 13.58-25.28 6.452-5.141 14.72-7.942 22.97-7.758 5.925 0.07618 11.83 1.667 16.99 4.579 1.395 0.7606 2.728 1.64 3.989 2.605-0.3662 0.2553-1.003 0.1993-1.446 0.4459-1.244 0.4144-2.458 0.9799-3.8 0.9613-0.7351 0.2615-0.249-0.8497-0.3676-1.282-0.1203-0.5362 0.8822-0.7477 0.347-1.322-0.6003-0.8655-1.698-1.232-2.663-1.515-0.7127-0.1856-1.28 0.2552-0.3637 0.5846 0.5214 0.2987 0.8592 0.8126 0.752 1.427 0.0039 0.7565 0.1351 1.562 0.06148 2.289-0.3064 0.1965-1.781-0.1233-1.01 0.4559 0.6964 0.4183 0.5095 0.7368-0.248 0.706-1.127 0.1026-2.205 0.5221-3.295 0.7347-1.109-0.4582-2.498-0.7344-3.213-1.741 0.3218-0.3439 0.9958 0.1165 1.452 0.1107 0.9641 0.07108 1.916 0.2421 2.877 0.05007 0.6476-0.07519 1.446-0.09877 2.006-0.2042-4.551-3.956-10.53-6.23-16.56-6.432-2.179-0.01177-4.366 0.05112-6.499 0.5396-5.195 1.062-10.07 3.685-13.78 7.48 2.102-0.2433 4.278-0.04208 6.225 0.831 1.778 0.785 3.401 2 4.612 3.509 0.576 1.146 0.8884 2.544 0.4284 3.773-0.6847 1.634-2.793 2.396-4.386 1.632-2.178-0.8655-3.238-3.134-4.419-5.003-0.7733-1.502-1.931-2.905-3.533-3.563-1.858 1.968-3.301 4.33-4.434 6.788-0.4286 1.106-0.9874 2.197-1.26 3.324 0.3402-0.08306 0.8503-0.4804 1.314-0.5652 2.802-1.047 5.957-1.758 8.991-1.179 1.85 0.2465 3.71 0.881 5.104 2.164-0.7131 0.3021-1.571 0.5208-2.237 1.013-2.085 1.274-3.571 3.34-5.693 4.545-0.9746 0.4945-1.951-0.3691-2.833-0.7256-1.697-0.8632-3.433-1.853-5.368-2.007-0.8378 4.496-0.407 9.209 1.07 13.53 2.382 6.967 7.721 12.84 14.43 15.87 3.653 1.668 7.679 2.504 11.69 2.437-0.01294 1.053-0.4059 2.066-0.3118 3.116 0.2253 0.6611 1.284 0.6989 1.419-0.05055 0.4025-0.974 0.1512-2.076 0.02133-3.06 1.615-0.186 3.321-0.3606 4.932-0.7772 0.4762 0.07474 0.03135 1.041 0.1574 1.455-0.4891 4.227-2.686 8.364-6.333 10.67-0.679 0.5452-1.577 0.828-2.179 1.441 0.3033 0.3556 0.9085-0.2161 1.309-0.2932 2.25-0.9852 4.445-2.334 5.782-4.456 0.9662-1.431 1.662-3.027 2.225-4.654 0.4476 0.1688 0.6879 0.8589 1.078 1.212 2.118 2.577 4.195 5.204 6.542 7.579 0.3775 0.4579 0.9657 0.7954 1.286 1.258-3.616 1.202-7.428 1.867-11.24 1.861zm17.13-4.497c-2.947-0.55-5.967-1.197-8.595-2.695-2.257-1.529-4.099-3.576-5.909-5.594 0.08113-1.219 0.4024-2.464 0.3262-3.671-0.3968-0.06488-1.337 0.6522-1.302-0.1843v-2.153c-1.336-0.2043-2.767-1.143-2.76-2.629-0.0054-3.498 0.05822-7.003 0.01782-10.5-0.02663-0.7073-0.5295-1.146-1.038-1.524 0.1636-0.471 0.9139-0.144 1.296-0.1154 0.9591 0.216 1.845 0.8111 2.324 1.672-0.3927 0.6806-1.386 1.101-1.14 2.033 0.03895 0.5489-0.03678 1.146 0.06926 1.667 1.734-1.088 3.574-2.056 5.101-3.435 0.3655-0.5477 0.2159-1.29-0.3329-1.648 0.2181-0.3888 0.9663 0.1921 1.361 0.2625 0.7412 0.3737 1.91 0.9266 1.641 1.937-0.4029 0.4962-1.093 0.574-1.602 0.9662-2.03 1.132-4.225 1.908-6.38 2.761 0.02589 2.071-0.05094 4.161 0.03787 6.22 0.1109 0.711 0.8001 1.02 1.446 1.064 0.0054-0.8202 0.1635-1.841-0.7115-2.289 0.06403-0.5782 0.9602 0.02298 1.354 0.08442 0.539 0.2714 1.366 0.5148 1.511 1.143-0.1537 0.4595-0.7557 0.8301-0.5816 1.352 1.546-0.07372 3.147 0.1651 4.654-0.1987 1.106-0.3691 1.048-1.663 1.053-2.611-0.01417-1.384 0.1862-2.744 0.4669-4.095 0.1862-0.5939 0.2054 1.294 0.182 1.067 0.252 1.604 0.2726 3.376 1.213 4.755 0.4106 0.5271 0.873-0.4156 1.298-0.5921 1.812-1.47 3.468-3.212 4.784-5.11-0.8493 0.3949-1.385 1.322-2.114 1.925-0.8675 0.9254-1.848 1.788-2.992 2.342-0.1689-0.4253 0.709-0.834 0.9645-1.244 1.007-1.005 1.955-2.12 2.583-3.403-0.3517-0.4311-0.9131-0.9648 0.07988-0.7883 0.6345 0.07906 1.426 0.4053 1.608 1.018 0.6071-0.8461 1.222-1.722 1.638-2.662-0.5274-5.7e-4 -1.096 0.05044-1.288 0.6143-0.4336 0.5184-0.9633-0.34-1.067-0.7566-0.2618-0.9784-0.2494-2.033-0.5323-3.022-0.04091-0.7858-0.4911-1.447-1.22-1.753-0.5717-0.6014 0.7187-0.2391 1.036-0.1727 1.47 0.2942 2.956-0.2069 4.433-0.2826 0.3769-0.07477 1.257-0.2716 0.8192 0.3851-0.2335 0.5816 0.8536 0.09575 1.192 0.1545 1.418-0.1427 2.905-0.3176 4.298-0.1446 0.6059 0.5152 0.04777 1.378 0.03827 2.046-0.1772 0.4301-0.04556 1.194-0.4524 1.417-2.229-0.03494-4.442 0.273-6.647 0.5393 0.4677-1.206 1.129-2.438 1.427-3.676-1.298 0.1179-2.643 0.3311-3.911 0.6156 0.2151 1.064 0.4858 2.256 0.6513 3.358 0.5221 0.06526 1.208-0.3597 1.69-0.1302-0.4532 0.5561-0.3707 0.9379 0.3794 0.6504 0.5054-0.06714 1.069-0.3589 1.391 0.2082 0.7184 1.053 0.1706 2.372 0.205 3.547-0.1329 0.8833 0.05336 1.881-0.3649 2.68-0.6263 0.5791-1.477-0.1318-2.168-0.2826-0.337-0.08719-1.383-0.64-1.269-0.1913 0.8697 0.6607 1.936 1.077 2.711 1.845 0.4749 0.441 0.3814 1.472 1.189 1.464 0.78-0.8907 1.262-2.063 1.185-3.26 0.2483-1.378 0.06505-2.83 0.1354-4.238 0.08864-0.6706-0.0034-1.446-0.6927-1.762-0.7322-0.405 0.3941-0.3263 0.6938-0.3759 1.092-0.05538 2.183-0.1485 3.277-0.1272 0.298 0.5675 1.092 0.5663 1.222-0.117 0.3933-1.007 0.677-2.052 0.9834-3.085 0.3134-0.3559 1.108-0.3392 1.144-0.8442-0.6743-0.5803-1.246-1.58-2.267-1.4-1.878 0.1979-3.773 0.3919-5.659 0.5678-0.3753-0.3892 0.1896-1.028 0.1808-1.523-0.03186-0.4056 0.6306-1.52-0.1501-1.294-2.63 0.2611-5.271 0.5278-7.841 1.161-1.089-0.1668-1.962-1.036-2.472-1.975 0.442-0.2717 0.9754 0.4497 1.486 0.4858 0.9941 0.3171 2.094 0.1634 3.126 0.09474 1.933-0.249 3.875-0.4462 5.813-0.6682-0.05509-1.004 0.08092-2.084-0.1698-3.038-0.273-0.3878-1.162-0.1722-1.188-0.6652 0.6454-0.1186 1.449-0.09959 2.082 0.1963-0.01744 1.449-0.1678 2.891-0.3982 4.32 2.584-0.1333 5.179-0.1544 7.764-0.03987 1.183 0.01614 2.399 0.3224 3.559 0.1605 0.3921-0.3735-0.3092-0.9121-0.6428-1.12-0.6284-0.3899-1.326-0.9283-2.075-0.8994-0.6305 0.3862-1.3 0.6263-2.049 0.576-1.761 0.1218-3.521 0.2504-5.28 0.3813-0.4418-0.4037-0.03528-1.126-0.1128-1.667 0.01103-0.4326 0.6713-0.8235 0.1011-1.191-0.306-0.4158-1.12-0.4071-0.8783-1.101 0.06382-0.3867-0.2682-1.806 0.3879-1.15 1.4 1.452 3.128 2.599 5.039 3.241 2.664 0.05369 5.337 0.1554 7.998 0.0026 0.4274 2.613 0.3384 5.305 0.1856 7.948-0.3373 3.177-1.035 6.325-2.184 9.309-0.3364-0.2699-0.6509-0.8141-1.067-1.125-1.196-1.348-2.989-1.892-4.558-2.68-0.803-0.3034-1.536-0.8247-2.377-0.9967 0.0025 0.4834 0.7703 0.722 1.035 1.139 0.8949 0.9999 1.655 2.083 2.457 3.158 0.6753 0.9119 1.226 1.941 1.933 2.81 0.5102 0.2435 1.134-0.08758 1.636-0.06666-2.548 5.738-6.736 10.7-11.81 14.38-1.165 0.8105-2.363 1.664-3.644 2.241zm-12.07-9.568c1.975-0.6724 3.901-1.529 5.848-2.244 0.4417-0.03306 1.305-0.1729 0.9434-0.8049-0.5352-0.755-1.242-1.711-2.294-1.484-0.9157-0.09899 0.5923 0.5639 0.01585 0.98-1.08 0.9533-2.385 1.671-3.566 2.512-0.2777 0.3388-1.382 0.5754-1.053 1.067l0.09894-0.02451zm-1.973-2.5c1.555-0.4794 3.106-1.093 4.514-1.91-1.516-0.0073-3.032-0.01-4.549-0.02035 0.03132 0.619-0.09095 1.407 0.03453 1.931zm-7.295 1.26c-0.8514 0.2427-0.4343-0.8381-0.5548-1.321 0.06994-0.387-0.5399-1.59 0.1433-1.265 0.5216 0.7135 0.8036 1.609 1.014 2.47-0.1306 0.2127-0.3976 0.07937-0.6021 0.116zm-4.683-2.602c-0.8379-0.259-1.186-1.426-0.9835-2.236 0.4549-1.716 0.328-3.5 0.4584-5.247-0.01587-0.7235 0.1245-1.602 0.01759-2.232-1.513 1.557-3.026 3.137-4.81 4.39-0.6348-0.03745 0.2569-0.7279 0.424-0.9547 2.023-2.276 4.042-4.597 5.613-7.214 0.424-0.632 0.5382-1.515-0.1168-2.038-0.6208-0.4807 0.3573-0.4249 0.6393-0.152 0.8688 0.5022 1.764 1.146 2.266 2.007-0.6012 1.329-1.838 2.246-2.805 3.314-0.02671 3.235-0.0072 6.474-0.1536 9.706-0.1299 0.2321-0.2154 0.6817-0.5498 0.6571zm2.856-16.29c-0.8275-0.1734-0.9884-1.268-1.255-1.96-0.1075-0.6458-0.2347-1.316-1.038-0.989-1.333 0.1639-2.662 0.3586-3.968 0.6729-0.8541-0.4263-1.731-0.9725-2.319-1.726 0.3314-0.2906 0.9547 0.3227 1.42 0.3161 1.509 0.3525 3.041-0.184 4.559-0.2562 0.5808 0.03619 1.022-0.1416 0.7283-0.7855-0.1366-0.9248-0.3955-1.945-1.336-2.365-0.6935-0.1591-0.6033-0.9771 0.1334-0.7647 0.7846 0.1265 1.775 0.2122 2.272 0.8935 0.1302 0.9189 0.09849 1.904 0.4717 2.775 2.487-0.2245 4.968-0.4955 7.451-0.7595 0.1268-1.046 0.7991-2.046 0.5508-3.103-0.08664-0.4467-1.12-0.8082-0.4928-1.195 0.8407-0.0525 1.521 0.5944 2.176 0.9833 3.113-2.35 6.43-4.62 8.668-7.88 0.6906-0.6913-0.2181-0.4404-0.6815-0.3581-0.8839 0.1343-1.769 0.259-2.653 0.395-0.2268 0.4102-0.6753 1.317-1.209 0.7815-1.002-0.7667-0.7078-2.111-0.9062-3.202-0.2345-1.838-0.3934-3.755-1.124-5.466-0.2824-0.4602-0.874-0.7844-0.998-1.292 0.9118-0.2551 1.828 0.4483 2.766 0.2866 2.222-0.04574 4.439-0.3302 6.644-0.6225 0.2773-0.41-0.04663-1.179 0.1608-1.675 0.4027-0.4195 0.8108 0.6205 1.175 0.8385 0.421 0.2416 0.1483-0.9172 0.2631-1.235-0.2601-0.9123 0.6848-0.586 1.25-0.6496 1.972-0.01358 3.944-0.1423 5.912 0.0013 0.6071 0.08675 1.359-0.1716 1.867 0.1512 4.905 4.602 8.521 10.58 10.21 17.1 0.3212 1.143 0.5489 2.308 0.7443 3.478-0.369 0.3518-0.9815-0.1179-1.456-0.07204-2.405-0.2287-4.829-0.6199-7.025-1.678-1.774-0.7625-3.437-1.877-5.062-2.827 0.0017 0.6189 0.2321 1.348 0.1211 1.948-0.9093-0.6865-1.769-1.677-2.654-2.485-1.341-1.266-2.63-2.639-3.989-3.852-0.122 0.9178-0.02469 2.056-0.06249 3.058-0.03134 2.52 0.02379 5.055-0.06162 7.567-0.1035 0.4756-0.5689 1.295-1.134 0.8524-0.5479-1.037-0.9756-2.312-0.4056-3.429 0.1881-2.44 0.08368-4.891 0.1401-7.337-0.7352 0.6071-1.387 1.45-2.121 2.118-2.326 2.36-5.107 4.234-8.028 5.768 0.5462 0.3717 0.6322 1.162 0.03048 1.536-0.4218 0.4685-1.021 0.838-1.193 1.472 1.076-0.04679 2.206-0.05022 3.233-0.314 0.451-0.3254 0.8333-1.177 1.458-0.6426 0.7391 0.3811 1.443 0.9273 1.973 1.542 0.365 0.5765-0.3552 0.9956-0.8719 0.8348-2.076-0.2949-4.181-0.3121-6.272-0.2315-0.5207 1.171-1.073 2.35-1.709 3.456-0.5448 0.3748-0.5722-0.6632-0.3474-0.9885 0.2026-0.85 0.5059-1.744 0.6787-2.558-2.246 0.08956-4.528 0.4424-6.781 0.6948-0.2699 0.3238 0.2053 1.114 0.2099 1.62 0.07183 0.4932 0.4904 1.257-0.11 1.559zm27.76-12.34c0.1112-0.447-0.1498-1.14-0.2184-1.668-0.2094-1.154-0.6196-2.32-0.9266-3.406 0.5977-0.3251 0.6233 0.7666 1.23 0.7045 0.9662-0.04984 0.9971-1.287 1.281-1.989 0.5278-1.55 1.015-3.117 1.492-4.68 0.5079-0.5549 1.268-0.8686 1.624-1.557-0.7983-0.6641-1.701-1.214-2.567-1.789-0.7359-0.561-1.615 0.1318-2.407 0.2174-1.817 0.3101-3.661 0.4613-5.49 0.7015 0.1202 0.3063 1.142 0.9993 0.3691 1.002-0.7186-0.08884-0.9672 0.329-0.8006 0.9977 0.0715 0.5715-0.1231 1.423 0.1167 1.817 0.9209 0.01456 1.867-0.3162 2.74-0.3658 0.1952 0.3156 1.037 1.204 0.1262 1.072-0.9854 0.1251-2.06 0.11-2.989 0.3347-0.08988 0.9786-0.01336 2.005-0.03965 3.002 1.223-0.01503 2.472-0.3649 3.719-0.3197 0.5072-0.06917 1.31-0.5379 1.36 0.2994 0.5538 0.7918-0.5747 0.5289-1.034 0.6375-1.132 0.1411-2.353 0.123-3.433 0.3126 1.86 1.649 3.793 3.353 5.848 4.676zm-0.4231-6.093c-0.4541-0.2023-1.27 0.1502-1.357-0.527-0.3178-0.8031-0.7826-1.646-1.115-2.357 1.009-0.1664 2.074-0.2125 3.1-0.3745 0.2744 0.4617-0.1414 1.158-0.1598 1.713-0.1407 0.5047-0.1462 1.13-0.4276 1.549zm-2.992-4.004c-0.4129-0.1488-0.5748-0.8392-0.9062-1.188-0.1144-0.4-1.135-1.088-0.6354-1.278 1.828-0.2228 3.652-0.5308 5.495-0.5563 0.4935 0.3934 0.05078 1.117 0.09872 1.666-0.1197 0.5318 0.1345 1.572-0.732 1.18-0.7041-0.02047-1.422-0.5249-2.096-0.3282-0.3902 0.2067-0.8038 0.3743-1.225 0.5045zm-9.412 5.216c1.679-0.05312 3.345-0.3002 5.006-0.5372 0.0071-1.027 0.01421-2.053 0.02131-3.08-1.935 0.1508-3.893 0.673-5.83 0.38-0.6838-0.3674-0.3206 0.7065-0.2972 1.054 0.09803 0.7447 0.2478 1.48 0.4443 2.205 0.2188-0.0072 0.4375-0.01435 0.6563-0.02152zm-1.04-3.952c2.026-0.09602 4.039-0.3633 6.046-0.6517 0.0071-0.9002 0.01428-1.8 0.02142-2.701-2.323 0.2394-4.669 0.4726-6.984 0.6846 0.1137 0.6899 0.3953 1.528 0.5295 2.287 0.05212 0.2623 0.03968 0.4989 0.3871 0.3802zm7.654-4.613c0.5182-0.3401-0.7142-0.5019-0.06282 0.01149zm-38.71 24.59c-0.2108-0.6187-0.272-1.414-0.3192-2.105 0.1526-2.968 0.9787-6.105 3.058-8.284 1.389-1.429 3.506-2.344 5.485-1.808 1.83 0.6209 2.293 2.984 1.626 4.62-0.5764 1.885-2.522 2.674-4.058 3.631-1.775 1.067-3.75 1.829-5.19 3.374-0.2151 0.1684-0.3829 0.4287-0.602 0.5723zm16.38-7.322c-1.81 0.0029-3.912-0.4084-4.903-2.095-0.8803-1.247-0.2716-2.936 0.8517-3.806 1.003-0.9653 2.485-1.12 3.796-1.377 2.147-0.1833 4.295 0.1712 6.323 0.8763 0.9506 0.3374 1.983 0.6619 2.843 1.117-1.6 0.5994-2.813 1.986-4.045 3.163-1.322 1.191-3.018 2.253-4.866 2.122zm-7.317-5.32c-0.7986 0.06116-0.8635-1.257-0.08563-1.286 0.7104-0.1641 1.055 0.9826 0.3343 1.228-0.07323 0.06568-0.1582 0.06407-0.2486 0.0589zm1.866-0.4878c-0.6835 0.01012-0.9889-1.035-0.3123-1.336 0.7132-0.4634 1.508 0.746 0.7513 1.204-0.1432 0.06965-0.2696 0.1701-0.439 0.1318zm-1.349-1.628c-0.8169 0.04415-0.9712-1.282-0.1554-1.401 0.7932-0.2266 1.222 1.018 0.4592 1.327-0.09224 0.07443-0.1902 0.08656-0.3038 0.07378zm4.552-0.3839c-1.632 0.06143-3.148-1.551-2.987-3.192 0.1051-1.352 0.7693-2.698 1.932-3.444 2.301-1.853 5.404-2.318 8.271-2.12-0.2037 0.4985-0.8937 0.8106-1.174 1.339-1.275 1.921-1.669 4.302-3.067 6.161-0.5902 1.053-1.888 1.2-2.975 1.257z"/></svg>