<svg version="1.1" viewBox="0 0 100 100" xmlns="http://www.w3.org/2000/svg"><path d="m50.46 86.08c-2.853 0.0382-5.727-0.2581-8.504-0.9106-2.46-0.5444-4.836-1.371-7.128-2.42-5.103-2.37-9.636-5.992-13.06-10.42-1.598-2.034-3.045-4.349-4.188-6.75-1.182-2.356-2.001-4.895-2.639-7.432-0.1825-0.9674-0.4385-1.905-0.5006-2.89-0.1465-0.4737-0.1617-1.019-0.2521-1.562-0.4773-4.637-0.0383-9.361 1.243-13.84 0.8024-2.702 1.872-5.281 3.269-7.737 0.5494-0.925 1.09-1.892 1.737-2.702 0.0699-0.3125 0.4964-0.6421 0.6182-0.9488 0.6988-0.8464 1.32-1.766 2.102-2.518 0.6237-0.8448 1.599-1.644 2.359-2.465 1.408-1.284 2.88-2.493 4.433-3.518 1.005-0.6945 2.096-1.324 3.181-1.911 0.764-0.4127 1.665-0.8159 2.344-1.138 1.902-0.7952 3.826-1.462 5.821-1.948 3.56-0.8436 7.289-1.221 10.96-0.9658 3.711 0.2182 7.398 1.025 10.85 2.36 2.432 0.9647 4.836 2.18 6.946 3.665 0.5344 0.383 1.013 0.6437 1.465 1.103-0.3362 0.2536-0.9397 0.2209-1.302 0.387-0.479 0.1081-0.9584 0.2932-1.523 0.4109-0.5575 0.1256-1.021 0.3556-1.545 0.3647-0.2864 0.2094-1.055 0.3838-1.166 0.01 0.083-0.7973 0.5618-1.586 0.4488-2.377-0.3272-0.7176-1.155-1.08-1.861-1.29-0.3702-0.1059-0.8729-0.2158-1.318-0.1919-0.5882 0.2152 0.746 0.6618 0.7274 1.163 0.2747 0.9344 0.166 1.918 0.2368 2.879-0.3141 0.2185-1.539 0.2022-0.909 0.7487 0.6604 0.4971-0.4141 0.414-0.7431 0.594-1.484 0.379-3.186 0.7833-4.61 0.0563-0.4194-0.1856-1.072-0.5924-1.256-0.9391 1.964-0.0417 3.968 0.0115 5.908-0.0891-0.2944-0.4512-0.8673-0.768-1.192-1.119-1.485-1.208-3.216-2.289-5.004-3.094-1.697-0.8008-3.513-1.364-5.323-1.781-1.66-0.3601-3.472-0.5812-5.213-0.6134-3.037-0.0738-6.14 0.3107-9.013 1.229-0.8963 0.2923-1.888 0.624-2.797 1.046-0.5353 0.1851-1.304 0.644-1.941 0.9525-2.145 1.231-4.214 2.706-5.862 4.574 0.126 0.2913 1.139 0.0428 1.61 0.1246 2.199 8e-3 4.363 0.792 6.1 2.136 0.9915 0.6965 1.919 1.486 2.756 2.361 0.1151 0.3747 0.382 0.6641 0.4767 1.126 0.31 1.332 0.1882 3.036-1.09 3.831-0.9382 0.7169-2.205 0.7626-3.307 0.4773-0.8199-0.2705-1.435-1.009-2.02-1.703-1.502-2.1-2.819-4.349-4.697-6.148-0.3868-0.4704-1.107-1.11-1.649-0.4971-0.5826 0.5868-1.012 1.225-1.452 1.899-0.2643 0.3141-0.5133 0.7992-0.8033 1.2-1.225 1.955-2.309 4.054-2.908 6.307 0.1319 0.458 0.8837-0.2046 1.273-0.201 2.576-0.8579 5.319-1.463 8.047-1.197 2.071 0.2371 4.104 0.9382 5.824 2.127-0.2382 0.3273-0.9292 0.3612-1.24 0.6506-0.3732 0.1098-0.8743 0.4676-1.229 0.7067-1.782 1.142-3.155 2.798-4.92 3.995-1.148 0.8465-2.476-0.1361-3.563-0.6098-1.244-0.5772-2.516-1.115-3.777-1.612-0.2682-0.2345-0.8813-0.1791-1.293-0.3428-0.3262 0.8764-0.2238 1.882-0.3943 2.808-0.139 2.633-0.0481 5.285 0.5299 7.867 0.5978 2.963 1.764 5.75 3.345 8.335 0.2459 0.4407 0.589 0.8757 0.8864 1.329 0.3551 0.4896 0.8561 1.201 1.323 1.742 2.02 2.463 4.396 4.606 7.12 6.241 0.9484 0.5257 2.098 1.188 3.202 1.612 3.394 1.466 7.075 2.077 10.75 2.244 0.4793 0.0822 0.0456 0.9961 0.1048 1.402-0.1275 0.6595-0.2648 1.438 0.349 1.888 0.2698 0.5589 0.972-0.1545 1.074-0.5291 0.1788-0.9141 0.0212-1.857 0.202-2.766 1.565-0.3382 3.171-0.5146 4.761-0.712 0.2518 0.2234-0.0889 1.08-0.0448 1.548-0.2903 2.275-1.036 4.52-2.254 6.439-0.8357 1.236-1.88 2.39-3.053 3.343-0.4963 0.3444-0.92 0.7417-1.457 1.011-0.3662 0.2905-0.8256 0.5087-1.238 0.7222-0.5749 0.041-0.5469 0.8222 0.0743 0.5093 0.649-0.2606 1.334-0.6635 1.907-0.8579 1.499-0.7321 2.847-1.883 3.975-3.161 1.045-1.141 1.849-2.588 2.489-4.082 0.2525-0.2803 0.3412-1.302 0.7142-1.013 1.484 1.681 2.931 3.496 4.47 5.19 0.8318 1.096 1.883 2.189 2.756 3.264 0.2414 0.3924 0.8371 0.7516 0.9418 1.227-0.45 0.2059-0.7387 0.1854-1.096 0.3958-2.815 0.7887-5.704 1.334-8.638 1.386-0.2456 5e-3 -0.4912 9e-3 -0.7368 0.0142zm16.36-4.627c-1.323 7e-3 -2.566-0.5764-3.865-0.7822-1.619-0.4726-3.305-1.062-4.636-2.047-1.963-1.549-3.705-3.377-5.333-5.267 0.0243-1.205-0.0119-2.413 0.1238-3.614-0.3174-0.3767-1.194 0.4169-1.213-0.2194 0.3851-1.101-0.0942-2.478-1.267-2.836-0.5973-0.1343-1.236-0.5416-1.357-1.256-0.2023-1.829-0.0365-3.687-0.0908-5.528-0.0103-1.917 9e-3 -3.85-0.1533-5.756-0.0719-0.546-0.3666-1.048-0.3398-1.607 1.085-0.1228 2.361 0.4737 2.74 1.492 0.1838 0.6737-0.8391 0.8929-0.8361 1.563-0.2646 0.7161-0.0711 1.504-0.1316 2.252 0.5719 0.0489 1.095-0.5236 1.622-0.7742 1.18-0.7093 2.317-1.426 3.364-2.311 0.5918-0.4574 0.8162-1.254 0.4676-1.919 0.2583-0.1127 0.7114 0.3269 1.094 0.4758 0.5543 0.413 1.412 0.7431 1.4 1.437-0.333 0.7815-1.262 0.8056-1.937 1.229-0.7387 0.3308-1.58 0.7303-2.243 1.043-1.051 0.4931-2.29 1.013-3.407 1.55-0.5859 0.3627-0.466 1.122-0.4187 1.784 0.0552 1.61-0.0164 3.24 0.1186 4.837 0.1798 0.6168 1.01 0.9172 1.542 0.7551-0.0445-0.7842-0.4515-1.585-0.5069-2.401 0.8585 0.3028 1.742 0.7367 2.504 1.161-0.1959 0.5818-0.6631 1.142-0.7936 1.705 0.4309 0.1049 1.14-0.0657 1.682-0.0469 1.135-0.1225 2.365 0.0276 3.427-0.402 0.423-0.3536 0.5298-0.7564 0.7228-1.16 0.2009-1.502 0.3632-3.009 0.458-4.521 0.4259 0.2742 0.2416 1.148 0.4122 1.667 0.1549 1.293 0.4844 2.617 1.304 3.658 0.6607-0.348 1.165-1.083 1.766-1.579 1.313-1.292 2.63-2.581 3.945-3.87-0.3432-0.5363-0.821 0.4454-1.192 0.612-1.167 0.9978-2.304 2.028-3.474 3.021-0.503-0.3101 0.4327-0.8224 0.6124-1.163 1.183-1.102 2.416-2.314 2.6-4.01 0.1175-0.3024 0.9137 0.241 1.163 0.2859 0.358 0.2142 0.9241 0.439 1.092-0.2018 0.2317-0.4275 0.5181-0.7798 0.6802-1.095 0.2532-0.3677 0.8558-1.129-0.0271-0.8547-0.5724 0.1348-1.341 0.8416-1.782 0.1296-0.3795-1.164-0.2248-2.446-0.8143-3.555-0.1595-0.5296-0.5223-1.008-0.5893-1.556 1.69-0.1381 3.383-0.2283 5.073-0.3593 0.9975 0.8976 2.374 0.4719 3.581 0.5236 0.8861 0.0333 1.781-0.1736 2.658-0.0271 0.5978 0.5418 1e-5 1.385-0.0219 2.055-0.1645 0.4639-9e-3 1.285-0.7189 1.206-2.044 0.1467-4.08 0.3861-6.125 0.5248 0.1823-0.7976 0.5559-1.483 0.8292-2.247 0.1314-0.453 0.4474-0.8819 0.4303-1.372-1.271 0.1456-2.56 0.318-3.809 0.5315-0.1988 0.6976 0.1974 1.543 0.2483 2.294 0.1286 0.4792 0.0114 1.393 0.71 1.067 0.6087-0.0885 1.243 0.0166 1.072 0.6889 0.716 0.1798 1.756-0.2569 2.166 0.594 0.3754 1.258-0.0525 2.612-0.1041 3.906-0.1548 0.6792 0.0997 1.569-0.5642 2.013-0.9998 0.1196-2.019-0.6357-2.932-0.5143 0.3492 0.4556 1.031 0.6432 1.438 1.068 0.7384 0.5545 1.254 1.389 1.908 2.032 0.4731 0.2512 0.8058-0.4591 0.9942-0.6837 0.7498-1.38 0.6592-3.008 0.7568-4.527 5e-3 -1.197 0.0932-2.434-0.3873-3.552-0.4755-0.7295 0.1509-0.7868 0.7891-0.6701 1.133-4e-3 2.304 0.1643 3.414 0.0338 1.006-0.3204 1.015-1.576 1.355-2.412 0.1559-0.7166 0.6446-1.269 1.226-1.637 0.2336-0.4836-0.5684-0.9126-0.8661-1.247-1.304-0.8003-2.824-0.102-4.229-0.0793-0.8683 0.0679-1.804 0.1923-2.635 0.1852-0.0142-0.9134 0.3164-1.944 0.3265-2.872-2.472 0.2555-4.987 0.7306-7.476 1.061-1.257 0.3926-2.379-0.5586-2.969-1.589 0.3398-0.2003 0.9586 0.2961 1.408 0.359 2.215 0.2616 4.455-0.1679 6.672-0.329 0.7096-0.2115 1.519 0.0333 2.154-0.3931 0.5926-1.2-0.0278-2.661-1.054-3.406 0.3633-0.2494 1.18-0.0531 1.716-0.1327 0.2834-0.2994-0.103-1.276 0.2279-1.525 1.521 1.042 3.018 2.169 4.684 2.981 1.372 0.4454 2.839 0.1447 4.256 0.2321h4.243c0.2822 1.656 0.2418 3.368 0.2996 5.047-0.0624 1.958-0.1986 3.918-0.5236 5.846-0.4275 2.116-0.9664 4.26-1.786 6.281-0.5365-0.4849-1.03-1.155-1.677-1.581-0.369-0.3133-0.5485-0.3871-0.8902-0.635-1.562-0.9887-3.35-1.606-5.01-2.428-0.0213 0.4154 0.5094 0.7752 0.6899 1.178 0.5095 0.7179 0.9807 1.293 1.474 2.055 0.7801 1.057 1.602 2.165 2.396 3.2 0.3793 0.6953 1.34 0.586 1.825 1.072-0.8087 1.516-1.577 2.984-2.535 4.372-0.2428 0.4497-0.6215 0.8735-0.9141 1.354-0.3017 0.3006-0.4551 0.7062-0.8083 1.04-0.9079 1.136-1.844 2.318-2.909 3.28-0.2692 0.341-0.5451 0.5891-0.8983 0.91-1.338 1.227-2.714 2.384-4.248 3.367-0.3058 0.2848-0.9124 0.6134-1.344 0.8991-0.6079 0.3795-1.287 0.7296-2.02 0.6341zm-11.57-9.411c1.351-0.471 2.714-1.028 4.07-1.551 0.549-0.1906 1.158-0.3845 1.723-0.6648 0.3159-0.167 1.235-0.201 1.014-0.6866-0.3901-0.7729-0.9799-1.666-1.939-1.694-0.5434 0.5291-0.6771 1.375-1.343 1.823-0.4267 0.2756-0.8555 0.5552-1.196 0.7306-0.4629 0.3639-0.938 0.6404-1.354 0.9358-0.3402 0.2339-0.6756 0.5137-1.08 0.7591 0.0358 0.1186-0.1649 0.4505 0.1058 0.3489zm-2.022-2.548c0.5324-0.1255 1.159-0.4612 1.764-0.6029 0.7853-0.3508 1.683-0.5898 2.429-0.9335 0.1489-0.6089-0.9403-0.2517-1.331-0.34-0.9803 7e-3 -1.961 0.0137-2.941 0.0205-0.0101 0.6186-0.0202 1.237-0.0304 1.856h0.102zm28.79-20.94c0.4327-0.0797 1.718 0.288 1.186-0.4963-0.6567-0.7762-1.553-1.502-2.585-1.6-2.473 0.5925-5.009 0.8643-7.552 0.8925-0.1225-0.8038 0.2615-1.559 0.3686-2.319-0.0256-0.4984-0.5478-0.9129-1.019-0.9091-0.1161 1.367-0.3949 2.714-0.4718 4.084 1.732 0.2181 3.507 0.1385 5.256 0.2126 1.532 9e-3 3.05 0.0815 4.549 0.1355h0.2671zm-35.75 22.04c-0.6752 0.1143-0.7951-0.5753-0.688-1.09-0.1155-0.4637 0.1779-1.465 0.3493-0.4976 0.1672 0.5208 0.5548 1.072 0.5432 1.593-0.0682-2e-3 -0.1363-3e-3 -0.2045-5e-3zm-4.979-2.654c-0.6676-0.3671-0.9347-1.133-0.8543-1.875 0.1703-2.517 0.4579-5.025 0.6266-7.542-0.4346 0.0281-0.6664 0.5253-1.049 0.7862-1.265 1.133-2.533 2.265-3.777 3.418-0.5991-0.0251 0.2578-0.6322 0.3468-0.9056 1.289-1.503 2.611-3.174 3.895-4.767 0.6866-1.059 1.645-2.024 1.992-3.251 0.2276-0.6284-0.4868-1.049-0.5036-1.569 0.5386-0.0399 0.8913 0.6227 1.351 0.8674 0.4681 0.3325 0.8063 0.6743 1.274 1.072 0.2008 0.8047-0.4616 1.534-1.087 1.912-0.4599 0.3203-0.7377 0.7946-1.014 1.267-0.8692 1.815-0.4563 3.918-0.5519 5.87-0.0615 1.314-0.0337 2.654-0.1713 3.951-0.1603 0.2408-0.2051 0.6452-0.4778 0.7667zm3.023-16.18c-0.4788-0.127-0.856-0.6992-0.9907-1.049-0.291-0.5123-0.3136-1.463-0.7886-1.913-1.209 0.0589-2.47 0.1603-3.65 0.5105-1.111 0.3073-2.244-0.3905-2.874-1.245 0.5119-0.1584 1.314-0.0279 1.937-0.0754 1.487-7e-3 2.974-0.0133 4.461-0.0199 0.0782-1.305-0.3326-2.774-1.536-3.453-0.8395-0.423 0.2574-0.5278 0.7199-0.3947 0.8421 0.0482 1.534 0.6064 1.794 1.41 0.4078 0.6664-0.1605 1.797 0.7602 2.107 1.788-0.0318 3.614-0.3661 5.417-0.5134 0.6151-0.1489 1.507 0.0598 1.903-0.4856 0.576-0.7663 0.5486-1.941 0.2804-2.863-0.2879-0.4417-0.774-1.228 0.1706-1.012 0.6646-0.0377 1.102 0.6984 1.72 0.8006 1.436-1.043 2.875-2.116 4.208-3.223 1.675-1.364 3.213-2.971 4.376-4.771 0.0518-0.5226-1.01 0.0652-1.44-0.097-0.6414-0.0302-1.164 0.0254-1.723 0.3135-0.4382 0.3287-0.7503 0.8281-1.359 0.5618-0.9961-1.438-0.853-3.336-1.158-5.008-0.1539-1.527-0.617-2.89-1.304-4.251-0.4727-0.7482 0.5004-0.3753 0.9011-0.3416 2.462 0.2063 4.931-0.1562 7.378-0.4187 0.7847-0.3562 0.7676-1.258 0.7605-1.989 0.4547 0.2446 0.8531 0.7172 1.282 1.057 0.2343-0.5864 0.1769-1.267 0.3216-1.888 2.617 0.031 5.243-0.0602 7.854 0.0462 1.385-0.0132 2.136 1.286 2.96 2.194 1.458 1.741 2.93 3.515 4.115 5.487 0.5368 0.9396 1.052 1.78 1.514 2.741 0.2829 0.6422 0.6953 1.388 0.9456 2.107 0.9999 2.375 1.766 4.888 2.195 7.412-0.0454 0.4574 0.4294 1.357-0.3764 1.022-1.425-0.3297-2.863-0.5308-4.288-0.8445-0.3311-0.1648-0.8651-0.1439-1.189-0.3324-2.515-0.6415-4.75-2.064-7.05-3.221-0.6782-0.3176-0.2626 0.9108-0.3769 1.296-0.4237 0.5562-0.7396-0.43-1.096-0.629-1.718-1.834-3.424-3.679-5.164-5.492-0.7308 6e-3 -0.2572 1.015-0.3932 1.517-0.0553 2.868 0.124 5.744-0.0959 8.606-0.1337 0.5954-0.349 1.192-0.551 1.752-0.5425-0.502-0.8652-1.103-1.003-1.752-0.2557-1.345 0.1119-2.714 0.1014-4.074 0.1191-1.682 0.1612-3.384 0.0816-5.06-0.349 0.0801-0.8367 0.7926-1.254 1.101-1.23 1.2-2.618 2.31-3.921 3.359-1.173 0.8096-2.449 1.737-3.795 2.389-0.2931 0.2846-0.95 0.3585-1.099 0.6807 0.3948 0.5549 0.3169 1.293-0.2024 1.74-0.3504 0.444-0.92 0.8358-0.8962 1.457 1.124-0.2368 2.343-0.0132 3.389-0.5687 0.1718-0.3939 0.7932-0.5924 1.26-0.3586 0.6564 0.4624 1.158 1.149 1.693 1.756-1.393 0.4226-2.924 0.2138-4.376 0.2526-0.7527 0.0481-1.56-0.1145-2.28 0.0597-0.9029 0.6121-1.164 1.796-1.725 2.718-0.0616 0.7379-1.006 0.9167-0.5988 0.0445 0.1706-0.9671 0.5056-1.965 0.6088-2.903-0.852-0.1031-1.861 0.1008-2.772 0.1289-1.242 0.1756-2.577 0.1225-3.728 0.6521-0.5002 0.6506 0.0156 1.539-0.0206 2.297-0.0429 0.1748 0.1548 0.649-0.0336 0.67zm27.5-12.24c0.6689-0.2242-0.0111-1.068-7.3e-4 -1.578-0.2194-1.085-0.6019-2.147-0.7397-3.24 0.3758-4e-3 0.6902 0.5104 1.165 0.4432 0.7317 0.0756 0.8361-0.9624 1.051-1.337 0.2911-1.096 0.7628-2.141 1.018-3.261 0.3473-1.294 0.9606-2.535 2.029-3.38 0.2379-0.5504-0.6418-0.6808-0.9214-1.039-0.8366-0.6218-1.825-1.359-2.938-1.035-2.087 0.2916-4.149 0.6635-6.224 0.9788 0.1314 0.5401 0.6222 0.9736-0.2245 1.056-0.923 0.431-0.4594 1.648-0.4452 2.44-0.0533 0.7392 0.799 0.2902 1.224 0.2558 0.5264-0.1268 1.066-0.2006 1.575-0.3913 0.1419 0.3494 0.9022 1.017 0.2992 1.16-0.9975 0.0593-1.987 0.208-2.986 0.2465-0.2517 0.7455-0.0211 1.609-0.0868 2.401-0.2187 0.8025 0.2853 0.8789 0.9494 0.6955 1.249-0.1683 2.54-0.2619 3.759-0.506-0.1822-0.8156-0.756-1.67-1.034-2.522-0.2844-0.5719 0.9636-0.2692 1.365-0.4374 0.4861 0.0261 1.436-0.2786 1.617 0.0586-0.1924 0.9428-0.3164 1.958-0.5955 2.844-0.3917 0.0592-1.354-0.1338-1.177 0.4598 0.4147 0.7225-0.3069 0.6849-0.8319 0.7065-1.098 0.1035-2.202 0.1461-3.295 0.2895-0.3058 0.5192 0.7069 0.7898 0.9869 1.168 0.6297 0.502 1.217 0.9132 1.81 1.475 0.3892 0.2342 0.8918 0.726 1.345 1.051 0.44 0.3151 0.8441 0.7523 1.307 0.9982zm-3.289-10.12c-0.4324-0.1376-0.5711-0.8811-0.9034-1.242-0.1397-0.3595-1.048-1.175-0.2632-1.18 1.62-0.1428 3.232-0.3892 4.855-0.4749 0.7178 0.4024 0.3032 1.274 0.3783 1.942 0.1538 0.7293-0.251 0.9955-0.9051 0.709-1.015-0.1227-2.063-0.1705-3.051 0.1314 1e-3 0.0868 0.0218 0.1196-0.1107 0.1143zm-8.919 5.215c1.302-0.0296 2.609-0.155 3.887-0.3501 0.6799-0.151 0.8232-0.8524 0.7469-1.454-0.0575-0.5857 0.1878-1.244-0.0998-1.774-1.808 0.2499-3.654 0.2727-5.475 0.4428-0.8697-0.2336-0.6053 0.5862-0.621 1.146 0.1843 0.6227 0.0595 1.542 0.732 1.828 0.1853 0.2256 0.5703 0.1701 0.8308 0.1617zm-0.9636-3.901c1.839-0.1356 3.681-0.347 5.508-0.612-0.01-0.9317-0.0197-1.863-0.0296-2.795-2.299 0.1656-4.588 0.4873-6.888 0.6519-0.0389 0.6874 0.2173 1.417 0.419 2.08 0.1379 0.4389 0.5035 0.7752 0.9905 0.6756zm-31.61 19.72c-0.2229-0.8738-0.1669-1.985-0.0921-2.956 0.0978-1.859 0.5782-3.793 1.545-5.354 0.6585-1.167 1.676-2.342 2.86-3.101 0.8183-0.413 1.577-0.7123 2.513-0.6448 1.562-0.2788 3.256 0.9594 3.286 2.584 0.2055 1.936-0.9956 3.877-2.703 4.701-1.075 0.635-2.137 1.268-3.196 1.891-0.5877 0.3882-1.42 0.8696-2.1 1.297-0.4057 0.1774-0.6421 0.4461-1.052 0.6577-0.3546 0.2957-0.668 0.7098-1.061 0.9257zm16.19-7.21c-1.127-0.0176-2.36-0.1761-3.306-0.7679-0.899-0.5397-1.838-1.577-1.655-2.756-0.0591-0.536 0.2265-1.026 0.4084-1.372 0.5797-1.037 1.637-1.644 2.756-1.887 3.266-0.9289 6.736-0.1192 9.801 1.14 0.6503 0.1097 0.9797 0.4798 0.2424 0.8238-1.166 0.998-2.404 1.919-3.447 3.054-0.3784 0.1748-0.8472 0.6601-1.329 0.8781-1.064 0.5561-2.266 0.9228-3.472 0.8869zm-5.222-5.865c-0.6305-0.1235-0.6332-0.9846 7e-3 -1.135 0.3412-0.1561 1.2 0.5295 0.7732 0.6824-0.2594 0.1316-0.4947 0.4162-0.78 0.4524zm-1.323-1.44c-0.3361-0.2742-0.945-0.8765-0.2939-1.197 0.3298-0.3631 0.922 0.2128 0.9011 0.5789-0.2083 0.1859-0.3764 0.4858-0.6072 0.6183zm5.011-0.5251c-1.426 0.2429-2.991-0.6386-3.267-2.108-0.5075-1.647 0.4089-3.382 1.736-4.354 1.109-0.9219 2.485-1.587 3.835-1.856 1.242-0.3441 2.544-0.3248 3.821-0.2972 0.0632 0.5504-0.4899 1.065-0.6649 1.607-0.5905 1.122-1.107 2.31-1.744 3.392-0.0637 0.2962-0.4956 0.9995-0.7149 1.455-0.2834 0.4281-0.3829 0.7937-0.7562 1.238-0.5318 0.6958-1.389 0.9867-2.246 0.9235z"/></svg>